<?xml version="1.0" standalone="no"?>
<!DOCTYPE svg PUBLIC "-//W3C//DTD SVG 1.1//EN" "http://www.w3.org/Graphics/SVG/1.1/DTD/svg11.dtd" >
<svg xmlns="http://www.w3.org/2000/svg" xmlns:xlink="http://www.w3.org/1999/xlink" version="1.1">
<metadata>
Created by FontForge 20170731 at Tue Dec 12 17:12:30 2017
 By Aleksey,,,
</metadata>
<defs>
<font id="PoppinsVN-200" horiz-adv-x="672" >
  <font-face 
    font-family="PoppinsVN 200"
    font-weight="400"
    font-stretch="normal"
    units-per-em="1000"
    panose-1="0 0 5 0 0 0 0 0 0 0"
    ascent="800"
    descent="-200"
    x-height="543"
    cap-height="705"
    bbox="-291 -266 1070 1056"
    underline-thickness="50"
    underline-position="-150"
    unicode-range="U+000D-FB02"
  />
<missing-glyph horiz-adv-x="498" 
d="M408 -256h-315v996h315v-996zM167 673v-33h65v-36h-66v-33h166v33h-66v36h66v33h-165zM166 545v-104h166v34h-66v70h-100zM232 475h-33v36h33v-36zM166 414v-33h66v-36h-66v-33h100v69h66v33h-166zM299 355v-66h-133v-34h166v100h-33zM232 233v-56h34v23h33v-47h-100v80
h-33v-113h166v113h-100zM166 61v-113h166v113h-166zM299 -19h-100v47h100v-47zM166 -75v-33h70l-70 -46v-33h166v33h-102l70 46h32v33h-166z" />
    <glyph glyph-name=".notdef" horiz-adv-x="498" 
d="M408 -256h-315v996h315v-996zM167 673v-33h65v-36h-66v-33h166v33h-66v36h66v33h-165zM166 545v-104h166v34h-66v70h-100zM232 475h-33v36h33v-36zM166 414v-33h66v-36h-66v-33h100v69h66v33h-166zM299 355v-66h-133v-34h166v100h-33zM232 233v-56h34v23h33v-47h-100v80
h-33v-113h166v113h-100zM166 61v-113h166v113h-166zM299 -19h-100v47h100v-47zM166 -75v-33h70l-70 -46v-33h166v33h-102l70 46h32v33h-166z" />
    <glyph glyph-name=".null" horiz-adv-x="0" 
 />
    <glyph glyph-name=".null" horiz-adv-x="0" 
 />
    <glyph glyph-name="nonmarkingreturn" unicode="&#xd;" horiz-adv-x="250" 
 />
    <glyph glyph-name="space" unicode=" " horiz-adv-x="275" 
 />
    <glyph glyph-name="exclam" unicode="!" horiz-adv-x="250" 
d="M151 710l-9 -529h-34l-9 529h52zM162 69v-69h-71v69h71z" />
    <glyph glyph-name="quotedbl" unicode="&#x22;" horiz-adv-x="233" 
d="M90 794l-8 -186h-33l-8 186h49zM192 794l-8 -186h-32l-9 186h49z" />
    <glyph glyph-name="numbersign" unicode="#" horiz-adv-x="767" 
d="M568 460l-39 -186h149v-41h-158l-50 -233h-43l50 233h-237l-50 -233h-43l50 233h-161v41h170l39 186h-156v41h165l51 239h43l-51 -239h237l51 239h43l-51 -239h154v-41h-163zM525 460h-237l-39 -186h237z" />
    <glyph glyph-name="dollar" unicode="$" horiz-adv-x="552" 
d="M288 377q38 -12 75.5 -25.5t67 -35.5t47.5 -55.5t18 -86.5q0 -32 -11 -64.5t-35.5 -58.5t-63 -42t-93.5 -16h-5v-80h-24v81q-45 4 -81 20.5t-62.5 41t-42.5 55.5t-19 65h47q3 -19 13 -42.5t29 -44.5t48 -36.5t68 -20.5v310q-38 11 -75.5 24t-67 34t-47.5 54t-18 84
q0 37 13.5 68.5t39 55t63.5 37t87 13.5h5v88h24v-89q45 -4 78.5 -19.5t57 -37.5t37.5 -49t19 -54h-48q-4 17 -14 36.5t-27 37t-42.5 31t-60.5 17.5v-296zM104 539q0 -37 13 -62.5t35 -42.5t51 -28.5t61 -21.5v291h-5q-70 0 -112.5 -34.5t-42.5 -101.5zM293 30
q39 0 68.5 11.5t49 31t29 45.5t9.5 55q0 38 -13 64.5t-35.5 44.5t-51.5 30t-61 22v-304h5z" />
    <glyph glyph-name="percent" unicode="%" horiz-adv-x="575" 
d="M171 712q58 0 96 -37.5t38 -97.5q0 -30 -10 -55t-28 -43t-42.5 -28t-53.5 -10q-28 0 -52.5 10t-42.5 28t-28 43t-10 55t10 55t28 42.5t42.5 27.5t52.5 10zM519 705l-417 -705h-47l417 705h47zM73 577q0 -45 27 -74.5t71 -29.5t71 29.5t27 74.5t-27 74t-71 29t-71 -29
t-27 -74zM404 263q58 0 95.5 -38t37.5 -98t-37.5 -97.5t-95.5 -37.5t-96 37.5t-38 97.5q0 30 10 55t28 43t42.5 28t53.5 10zM306 127q0 -45 27 -74t71 -29t71 29t27 74q0 46 -27 75t-71 29t-71 -29t-27 -75z" />
    <glyph glyph-name="ampersand" unicode="&#x26;" horiz-adv-x="676" 
d="M618 0l-202 218q10 -22 7 -56q-2 -37 -16.5 -68t-38.5 -53.5t-56.5 -35t-71.5 -12.5q-42 0 -78.5 14t-64 40t-43.5 64t-16 86t14.5 84.5t38.5 61t55.5 37t66.5 12.5q37 0 62 -12l-27 30q-28 31 -50 65.5t-22 86.5q0 29 10 56t30.5 48t51.5 33.5t72 12.5q45 0 77.5 -14
t53 -36.5t30.5 -51t11 -57.5q2 -10 2.5 -19.5t-1.5 -19.5h-43q1 8 1 14.5v12.5q-1 62 -35.5 97t-94.5 35q-30 0 -53 -9.5t-38.5 -25t-23 -36t-7.5 -43.5q0 -43 17 -71t42 -55l389 -433h-49zM241 33q33 0 60.5 11.5t48 31.5t31.5 48.5t11 61.5q0 37 -15 67.5t-39 53t-54 35
t-61 12.5q-30 0 -56 -9.5t-45.5 -29t-31 -49t-11.5 -68.5q0 -40 13 -70.5t35.5 -51.5t52 -32t61.5 -11z" />
    <glyph glyph-name="quotesingle" unicode="'" horiz-adv-x="137" 
d="M97 794l-12 -186h-32l-12 186h56z" />
    <glyph glyph-name="parenleft" unicode="(" horiz-adv-x="366" 
d="M54 403q0 102 20 190t55 161.5t82.5 132t102.5 101.5h44v-5q-134 -108 -197 -255.5t-63 -324.5t63 -324.5t197 -255.5v-5h-44q-55 43 -102.5 101.5t-82.5 132t-55 161.5t-20 190z" />
    <glyph glyph-name="parenright" unicode=")" horiz-adv-x="366" 
d="M312 403q0 -102 -20 -190t-55 -161.5t-82 -132t-102 -101.5h-45v5q135 108 197.5 255.5t62.5 324.5t-62.5 324.5t-197.5 255.5v5h45q55 -43 102 -101.5t82 -132t55 -161.5t20 -190z" />
    <glyph glyph-name="asterisk" unicode="*" horiz-adv-x="446" 
d="M371 660l30 -54l-154 -61l154 -60l-29 -54l-131 93l18 -164h-62l14 164l-134 -95l-31 55l153 61l-153 61l32 57l132 -96l-13 163h61l-17 -163z" />
    <glyph glyph-name="plus" unicode="+" horiz-adv-x="584" 
d="M547 354h-233v-234h-44v234h-232v42h232v234h44v-234h233v-42z" />
    <glyph glyph-name="comma" unicode="," horiz-adv-x="139" 
d="M102 44q14 -70 -5.5 -108t-67.5 -38v26q24 0 34.5 14t10.5 41v7h-38v58h66z" />
    <glyph glyph-name="hyphen" unicode="-" horiz-adv-x="461" 
d="M348 395v-39h-376v39h376z" />
    <glyph glyph-name="period" unicode="." horiz-adv-x="134" 
d="M102 69v-69h-71v69h71z" />
    <glyph glyph-name="slash" unicode="/" horiz-adv-x="364" 
d="M343 938l-277 -1099h-44l275 1099h46z" />
    <glyph glyph-name="zero" unicode="0" horiz-adv-x="597" 
d="M65 355q0 77 9.5 142t35.5 113t71.5 75t117.5 27q71 0 116.5 -27t71.5 -75t35.5 -113t9.5 -142t-9.5 -143t-35.5 -114.5t-71.5 -76t-116.5 -27.5q-72 0 -117.5 27.5t-71.5 76t-35.5 114.5t-9.5 143zM487 355q0 67 -7 124.5t-27 100t-57 66.5t-97 24t-97.5 -24
t-57.5 -66.5t-27 -100t-7 -124.5t7 -125.5t27 -101.5t57.5 -67.5t97.5 -24.5t97 24.5t57 67.5t27 101.5t7 125.5z" />
    <glyph glyph-name="one" unicode="1" horiz-adv-x="248" 
d="M14 663v42h153v-705h-47v663h-106z" />
    <glyph glyph-name="two" unicode="2" horiz-adv-x="567" 
d="M47 32q87 57 161.5 117.5t129 121.5t85 122t30.5 119q0 32 -8 61t-26.5 51.5t-49.5 36t-78 13.5q-46 0 -79.5 -15t-56 -41t-35 -62.5t-15.5 -78.5h-44q8 113 69.5 174.5t162.5 61.5q42 0 79 -11t65.5 -35t45 -61.5t16.5 -90.5q0 -69 -37 -138.5t-94 -132.5t-124 -116
t-127 -89h404v-38h-474v31z" />
    <glyph glyph-name="three" unicode="3" horiz-adv-x="580" 
d="M298 716q50 0 88 -13.5t64 -37.5t39 -56.5t13 -70.5q0 -29 -8.5 -57t-28 -51t-51.5 -38.5t-78 -20.5v-5q38 -9 70.5 -23.5t56.5 -36.5t38 -52t14 -71q0 -39 -13 -73.5t-39.5 -60.5t-67 -41t-96.5 -15q-103 0 -168 54t-80 157h45q6 -37 21.5 -68t41 -54t60 -36t78.5 -13
t77 12t54.5 32.5t32 48t10.5 59.5q0 81 -63.5 122t-176.5 41h-19v39h20q118 0 172 38t54 109q0 63 -41.5 103t-119.5 40q-34 0 -66 -9t-57.5 -28.5t-43 -50.5t-22.5 -75h-45q9 94 69 148t166 54z" />
    <glyph glyph-name="four" unicode="4" horiz-adv-x="590" 
d="M24 180v37l385 489h47v-486h116v-40h-116v-180h-45v180h-387zM413 646l-339 -426h339v426z" />
    <glyph glyph-name="five" unicode="5" horiz-adv-x="601" 
d="M513 667h-388v-290q28 39 80.5 63.5t115.5 24.5q61 0 104 -19t70 -50.5t39.5 -72.5t12.5 -85q0 -48 -13 -92t-41.5 -78t-73 -54t-107.5 -20q-100 0 -163.5 54.5t-75.5 148.5h44q16 -80 67 -121t126 -41q50 0 86.5 15.5t60 43t35 65t11.5 80.5q0 87 -48 137.5t-141 50.5
q-64 0 -113.5 -27t-75.5 -73h-42v380h430v-40z" />
    <glyph glyph-name="six" unicode="6" horiz-adv-x="616" 
d="M488 520q-11 74 -52.5 116t-116.5 42q-52 0 -93 -20t-68 -63.5t-39.5 -113.5t-8.5 -170q7 36 26.5 65.5t48.5 49.5t66 31t78 11q110 0 169.5 -64.5t59.5 -177.5q0 -45 -12.5 -87t-40 -74.5t-71.5 -52t-106 -19.5q-82 0 -133 29t-79 77.5t-38 111.5t-10 131q0 86 13 155.5
t43 118t78.5 74.5t118.5 26q49 0 86 -14.5t63 -40.5t41 -62t20 -79h-43zM117 245q0 -39 11.5 -77t37 -68t65 -48.5t96.5 -18.5q85 0 136.5 50.5t51.5 142.5q0 102 -52.5 153.5t-140.5 51.5q-36 0 -72.5 -11t-66 -34t-48 -58t-18.5 -83z" />
    <glyph glyph-name="seven" unicode="7" horiz-adv-x="503" 
d="M467 670l-275 -670h-49l279 666h-411v40h456v-36z" />
    <glyph glyph-name="eight" unicode="8" horiz-adv-x="614" 
d="M74 535q0 39 15.5 72.5t45 58t73 38t99.5 13.5t99.5 -13.5t73 -38t45 -58t15.5 -72.5q0 -60 -33 -105t-111 -63q77 -16 120.5 -63t43.5 -121q0 -97 -67.5 -151.5t-185.5 -54.5t-185.5 54.5t-67.5 151.5q0 74 43.5 121t120.5 63q-77 18 -110.5 63t-33.5 105zM118 530
q0 -72 51 -110t138 -38t138 38t51 110q0 73 -52.5 110.5t-136.5 37.5t-136.5 -37.5t-52.5 -110.5zM99 185q0 -82 57 -126t151 -44t151.5 44t57.5 126q0 44 -17 74.5t-45.5 50t-66.5 28.5t-80 9t-79.5 -9t-66 -28.5t-45.5 -50t-17 -74.5z" />
    <glyph glyph-name="nine" unicode="9" horiz-adv-x="612" 
d="M127 188q10 -74 52 -116t117 -42q53 0 93.5 20t67.5 63.5t39.5 113.5t8.5 170q-7 -36 -26.5 -65.5t-49 -49.5t-66 -31t-77.5 -11q-110 0 -170 64.5t-60 177.5q0 45 13 87t40.5 74.5t71.5 52t106 19.5q82 0 133 -29t79 -77t38 -110.5t10 -130.5q0 -85 -13 -154.5
t-42.5 -119t-77.5 -76t-118 -26.5q-49 0 -86.5 14.5t-63.5 40.5t-41.5 62t-20.5 79h43zM498 464q0 39 -11.5 77t-37 68t-65 48.5t-96.5 18.5q-85 0 -136.5 -51t-51.5 -143q0 -102 52 -153.5t141 -51.5q36 0 72.5 11t66 34.5t48 58.5t18.5 83z" />
    <glyph glyph-name="colon" unicode=":" horiz-adv-x="140" 
d="M106 516v-70h-71v70h71zM106 69v-69h-71v69h71z" />
    <glyph glyph-name="semicolon" unicode=";" horiz-adv-x="177" 
d="M138 515v-69h-71v69h71zM132 44q14 -70 -5.5 -108t-67.5 -38v26q24 0 34.5 14t10.5 41v7h-38v58h66z" />
    <glyph glyph-name="less" unicode="&#x3c;" horiz-adv-x="396" 
d="M302 141l-264 234l264 235h56l-264 -235l264 -234h-56z" />
    <glyph glyph-name="equal" unicode="=" horiz-adv-x="572" 
d="M534 491v-41h-496v41h496zM534 301v-41h-496v41h496z" />
    <glyph glyph-name="greater" unicode="&#x3e;" horiz-adv-x="396" 
d="M38 610h56l264 -235l-264 -234h-56l264 234z" />
    <glyph glyph-name="question" unicode="?" horiz-adv-x="489" 
d="M246 719q47 0 85 -14t65 -39.5t41.5 -62t14.5 -81.5q0 -59 -18.5 -100t-52.5 -67t-81 -38t-104 -12v-136h-43v169h24q42 0 83.5 6.5t74 26t52.5 56t20 95.5q0 75 -43.5 117t-118.5 42q-39 0 -70.5 -11.5t-54.5 -32t-35.5 -49t-12.5 -63.5h-43q0 45 16.5 81t45.5 61
t69 38.5t86 13.5zM211 69v-69h-71v69h71z" />
    <glyph glyph-name="at" unicode="@" horiz-adv-x="1065" 
d="M571 770q112 0 196 -33t140 -92t84 -140.5t28 -177.5q0 -73 -17 -135t-45.5 -107t-67 -70.5t-81.5 -25.5q-25 0 -45.5 6.5t-34 23t-18 44.5t4.5 71q-35 -66 -91 -105.5t-137 -39.5q-49 0 -89 18.5t-68.5 51.5t-44 79t-14.5 102q1 69 23 126.5t59.5 99.5t88 65.5
t108.5 23.5q66 0 112.5 -23.5t74.5 -63.5t37 -91t0 -107l-26 -156q-8 -50 10 -67.5t52 -17.5q33 0 62.5 20.5t52 58.5t35.5 93.5t13 124.5q0 90 -26 164.5t-77 127.5t-127 82.5t-176 29.5q-112 0 -200 -38.5t-148.5 -106t-92 -158t-31.5 -195.5q0 -112 32 -194t90 -135.5
t140 -80t181 -28.5l-8 -39q-109 2 -198 32t-152 89t-97 148t-34 208q0 108 34.5 205.5t101 171.5t164 117.5t222.5 43.5zM734 311q0 42 -10.5 79t-33.5 64.5t-59 43t-86 15.5q-51 0 -93 -20.5t-72.5 -56.5t-47.5 -86t-17 -109q0 -44 12 -83t35 -67.5t57 -45t78 -16.5
q49 0 92 20t75 57t51 89t19 116z" />
    <glyph glyph-name="A" unicode="A" horiz-adv-x="623" 
d="M479 183h-334l-69 -183h-50l261 686h50l259 -686h-49zM465 220l-153 411l-154 -411h307z" />
    <glyph glyph-name="B" unicode="B" horiz-adv-x="576" 
d="M377 366q33 -6 61 -21.5t48 -39t31.5 -53t11.5 -63.5q0 -40 -14 -74.5t-41.5 -60t-70 -40t-99.5 -14.5h-223v705h222q55 0 94.5 -13.5t65 -36.5t38 -55t12.5 -69t-11 -65.5t-29.5 -49t-43.5 -33t-52 -17.5zM126 383h175q82 0 124 38.5t42 104.5q0 61 -40.5 100t-130.5 39
h-170v-282zM298 40q88 0 136.5 40.5t48.5 112.5q0 70 -49.5 111.5t-137.5 41.5h-170v-306h172z" />
    <glyph glyph-name="C" unicode="C" horiz-adv-x="767" 
d="M387 712q128 0 209 -61t115 -162h-47q-14 39 -38.5 72t-59.5 57.5t-79.5 38t-99.5 13.5q-60 0 -111.5 -22t-90 -63t-60.5 -100t-22 -133t22 -132.5t60.5 -99.5t90 -63t111.5 -22q55 0 99.5 13.5t79.5 37.5t59.5 57t38.5 72h47q-34 -100 -115 -161t-209 -61
q-73 0 -133.5 26.5t-104.5 74t-68.5 113.5t-24.5 145t24.5 145t68.5 114t104.5 74.5t133.5 26.5z" />
    <glyph glyph-name="D" unicode="D" horiz-adv-x="707" 
d="M651 353q0 -82 -24 -147.5t-71 -111.5t-116.5 -70t-160.5 -24h-198v705h198q91 0 160.5 -24t116.5 -69.5t71 -111t24 -147.5zM277 41q164 0 246 83.5t82 228.5t-82 228.5t-246 83.5h-151v-624h151z" />
    <glyph glyph-name="E" unicode="E" horiz-adv-x="489" 
d="M126 667v-296h285v-36h-285v-297h315v-38h-360v705h360v-38h-315z" />
    <glyph glyph-name="F" unicode="F" horiz-adv-x="482" 
d="M444 705v-38h-318v-297h282v-36h-282v-334h-45v705h363z" />
    <glyph glyph-name="G" unicode="G" horiz-adv-x="787" 
d="M395 711q60 0 110.5 -16t90.5 -44.5t69 -69t45 -90.5h-47q-14 39 -39 71.5t-59 56t-77 37t-93 13.5q-61 0 -114.5 -22t-93 -63t-62 -99.5t-22.5 -132.5q0 -75 23 -134t62.5 -100.5t93.5 -63t116 -21.5q59 0 111 20.5t91.5 58.5t63.5 93t27 125h-312v35h352v-34
q-2 -73 -27.5 -135.5t-69.5 -107.5t-105 -70.5t-134 -25.5q-75 0 -137 26.5t-107 74.5t-70 114t-25 145t25 145t70 113.5t107 74t137 26.5z" />
    <glyph glyph-name="H" unicode="H" horiz-adv-x="662" 
d="M582 705v-705h-46v343h-410v-343h-45v705h45v-324h410v324h46z" />
    <glyph glyph-name="I" unicode="I" horiz-adv-x="207" 
d="M126 705v-705h-45v705h45z" />
    <glyph glyph-name="J" unicode="J" horiz-adv-x="447" 
d="M371 705v-548q0 -71 -43 -117.5t-123 -46.5q-85 0 -131 51t-46 141h44q0 -30 7 -57.5t22.5 -48.5t41 -33t61.5 -12t59.5 11t37.5 29t19.5 40t5.5 43v548h45z" />
    <glyph glyph-name="K" unicode="K" horiz-adv-x="527" 
d="M163 353l345 -353h-57l-325 334v-334h-45v705h45v-334l325 334h57z" />
    <glyph glyph-name="L" unicode="L" horiz-adv-x="409" 
d="M126 37h263v-37h-308v705h45v-668z" />
    <glyph glyph-name="M" unicode="M" horiz-adv-x="816" 
d="M736 687v-687h-45v608l-262 -608h-41l-262 604v-604h-45v687h51l277 -630l275 630h52z" />
    <glyph glyph-name="N" unicode="N" horiz-adv-x="664" 
d="M583 0h-45l-412 628v-628h-45v704h45l412 -628v628h45v-704z" />
    <glyph glyph-name="O" unicode="O" horiz-adv-x="792" 
d="M396 711q74 0 136 -26.5t107 -74t70.5 -113.5t25.5 -145t-25.5 -145t-70.5 -114t-107 -74.5t-136 -26.5t-136.5 26.5t-107.5 74.5t-70.5 114t-25.5 145t25.5 145t70.5 113.5t107.5 74t136.5 26.5zM396 670q-62 0 -115.5 -22t-93 -63t-62 -100t-22.5 -133t22.5 -133
t62 -100t93 -63t115.5 -22t115 22t93 63t62.5 100t22.5 133t-22.5 133t-62.5 100t-93 63t-115 22z" />
    <glyph glyph-name="P" unicode="P" horiz-adv-x="543" 
d="M126 306v-306h-45v705h194q61 0 104.5 -14.5t71.5 -40.5t41.5 -63.5t13.5 -82.5q0 -98 -59 -148t-172 -50h-149zM272 346q52 0 87.5 11.5t58 32t32.5 49.5t10 65q0 76 -42 118.5t-146 42.5h-146v-319h146z" />
    <glyph glyph-name="Q" unicode="Q" horiz-adv-x="792" 
d="M684 -145l-179 154q-53 -17 -109 -17q-74 0 -136.5 26.5t-107.5 74.5t-70.5 114t-25.5 145t25.5 145t70.5 113.5t107.5 74t136.5 26.5t136 -26.5t107 -74t70.5 -113.5t25.5 -145q0 -115 -51 -200t-139 -127l202 -170h-63zM103 352q0 -74 22.5 -133t62 -100t93 -63
t115.5 -22t115 22t93 63t62.5 100t22.5 133t-22.5 133t-62.5 100t-93 63t-115 22t-115.5 -22t-93 -63t-62 -100t-22.5 -133z" />
    <glyph glyph-name="R" unicode="R" horiz-adv-x="552" 
d="M462 0l-204 300h-132v-300h-45v705h197q61 0 104.5 -15t71.5 -42t41 -64.5t13 -82.5q0 -91 -51 -142t-150 -58l207 -301h-52zM126 337h149q52 0 87.5 12t58 33.5t32.5 51.5t10 66q0 38 -10 68t-32.5 51.5t-58 33t-87.5 11.5h-149v-327z" />
    <glyph glyph-name="S" unicode="S" horiz-adv-x="547" 
d="M491 174q0 -32 -11 -64.5t-35 -58.5t-62 -42t-92 -16q-51 0 -92 15t-71 40t-47.5 58.5t-21.5 69.5h47q3 -21 14.5 -46.5t34 -47.5t56 -37t79.5 -15q39 0 68 11.5t48 31t28.5 45.5t9.5 55q0 58 -28.5 90t-72 50.5t-93.5 31.5t-93.5 34.5t-72 57.5t-28.5 101q0 37 13 68.5
t38.5 55t62.5 37t86 13.5q51 0 89.5 -14t65.5 -37t42.5 -52t21.5 -58h-48q-4 18 -15.5 40t-32 40.5t-51 31t-72.5 12.5q-68 0 -110 -35t-42 -101q0 -56 28.5 -86t71.5 -48.5t93.5 -31.5t93.5 -34.5t71.5 -59.5t28.5 -105z" />
    <glyph glyph-name="T" unicode="T" horiz-adv-x="488" 
d="M470 705v-38h-203v-667h-46v667h-202v38h451z" />
    <glyph glyph-name="U" unicode="U" horiz-adv-x="640" 
d="M121 705v-433q0 -64 15 -109.5t41.5 -73.5t63.5 -41t81 -13q43 0 79 13t62.5 41t41 73.5t14.5 109.5v433h46v-433q0 -73 -18 -126t-50 -87t-77 -50t-98 -16q-54 0 -99 16t-77.5 50t-51 87t-18.5 126v433h45z" />
    <glyph glyph-name="V" unicode="V" horiz-adv-x="637" 
d="M77 705l240 -647l243 647h51l-266 -705h-54l-265 705h51z" />
    <glyph glyph-name="W" unicode="W" horiz-adv-x="929" 
d="M894 705l-185 -705h-52l-193 636l-192 -636h-52l-186 705h51l161 -640l193 640h51l192 -640l161 640h51z" />
    <glyph glyph-name="X" unicode="X" horiz-adv-x="533" 
d="M454 0l-193 317l-182 -317h-51l209 358l-211 347h53l190 -312l184 312h51l-211 -353l214 -352h-53z" />
    <glyph glyph-name="Y" unicode="Y" horiz-adv-x="545" 
d="M518 705l-222 -420v-285h-45v285l-225 420h53l194 -372l193 372h52z" />
    <glyph glyph-name="Z" unicode="Z" horiz-adv-x="505" 
d="M87 39h381v-39h-431v38l373 627h-362v40h411v-39z" />
    <glyph glyph-name="bracketleft" unicode="[" horiz-adv-x="258" 
d="M216 938v-38h-86v-1023h86v-38h-130v1099h130z" />
    <glyph glyph-name="backslash" unicode="\" horiz-adv-x="525" 
d="M391 -161l-340 1099h47l338 -1099h-45z" />
    <glyph glyph-name="bracketright" unicode="]" horiz-adv-x="258" 
d="M42 -161v38h86v1023h-86v38h130v-1099h-130z" />
    <glyph glyph-name="asciicircum" unicode="^" horiz-adv-x="578" 
d="M83 173h-45l232 514h38l232 -514h-45l-205 456z" />
    <glyph glyph-name="underscore" unicode="_" horiz-adv-x="562" 
d="M522 -32v-42h-481v42h481z" />
    <glyph glyph-name="grave" unicode="`" horiz-adv-x="274" 
d="M233 612l-12 -22l-144 103l17 26z" />
    <glyph glyph-name="a" unicode="a" 
d="M314 550q46 0 84 -12.5t67.5 -35t50.5 -53.5t31 -68v162h45v-543h-45v162q-10 -37 -31 -68t-50.5 -53.5t-67.5 -35t-84 -12.5q-57 0 -104.5 19t-82 55t-53.5 88t-19 117t19 116.5t53.5 87.5t82 55t104.5 19zM324 510q-51 0 -92 -16.5t-70.5 -47t-45 -74.5t-15.5 -100
t15.5 -100.5t45 -75t70.5 -47t92 -16.5q48 0 89 17t71 48t46.5 75.5t16.5 98.5t-16.5 98t-46.5 75t-71 48t-89 17z" />
    <glyph glyph-name="b" unicode="b" 
d="M358 550q57 0 104.5 -19t82 -55t53.5 -87.5t19 -116.5t-19 -117t-53.5 -88t-82 -55t-104.5 -19q-45 0 -83.5 12.5t-68 35t-50 53.5t-31.5 68v-162h-44v740h44v-359q11 37 31.5 68t50 53.5t68 35t83.5 12.5zM349 510q-48 0 -89 -17t-71 -48t-47 -75t-17 -98t17 -98.5
t47 -75.5t71 -48t89 -17q51 0 92 16.5t70 47t45 75t16 100.5t-16 100t-45 74.5t-70 47t-92 16.5z" />
    <glyph glyph-name="c" unicode="c" horiz-adv-x="626" 
d="M319 550q53 0 96 -14.5t75.5 -40t53 -61.5t27.5 -79h-47q-12 73 -68.5 114.5t-137.5 41.5q-42 0 -81.5 -14t-69.5 -43.5t-48 -74.5t-18 -107t18 -107t48 -74.5t69.5 -43.5t81.5 -14q81 0 137.5 41.5t68.5 114.5h47q-7 -43 -27.5 -79.5t-53 -62t-75.5 -40t-96 -14.5
q-57 0 -105.5 19t-84 55t-55 87.5t-19.5 117.5q0 65 19.5 116.5t55 87.5t84 55t105.5 19z" />
    <glyph glyph-name="d" unicode="d" 
d="M314 550q46 0 84 -12.5t67.5 -35t50.5 -53.5t31 -68v359h45v-740h-45v162q-10 -37 -31 -68t-50.5 -53.5t-67.5 -35t-84 -12.5q-57 0 -104.5 19t-82 55t-53.5 88t-19 117t19 116.5t53.5 87.5t82 55t104.5 19zM324 510q-51 0 -92 -16.5t-70.5 -47t-45 -74.5t-15.5 -100
t15.5 -100.5t45 -75t70.5 -47t92 -16.5q48 0 89 17t71 48t46.5 75.5t16.5 98.5t-16.5 98t-46.5 75t-71 48t-89 17z" />
    <glyph glyph-name="e" unicode="e" horiz-adv-x="627" 
d="M317 31q82 0 138 41.5t68 113.5h47q-7 -42 -27.5 -77.5t-52.5 -61t-75 -40t-96 -14.5q-57 0 -105.5 19t-84 55t-55 87.5t-19.5 117.5q0 65 19.5 116.5t55 87.5t84 55t105.5 19q62 0 109 -20t79 -53.5t48.5 -76.5t16.5 -88q0 -19 -1.5 -29.5t-3.5 -23.5h-467
q1 -60 19.5 -103t48.5 -70.5t69 -41t80 -13.5zM319 513q-42 0 -81.5 -13.5t-69.5 -41t-48.5 -70.5t-19.5 -102h428q3 59 -14 102t-46.5 71t-68.5 41t-80 13z" />
    <glyph glyph-name="f" unicode="f" horiz-adv-x="326" 
d="M295 706q-84 0 -115 -32t-31 -101v-30h146v-41h-146v-502h-46v502h-84v41h84v33q0 84 44 128.5t148 42.5v-41z" />
    <glyph glyph-name="g" unicode="g" 
d="M314 550q46 0 84 -12.5t67.5 -35t50.5 -53.5t31 -68v162h45v-559q0 -58 -19.5 -104.5t-52.5 -78.5t-78 -49.5t-96 -17.5q-105 0 -170 51t-87 133h44q20 -64 72.5 -104t138.5 -40q43 0 80 14t64.5 41t43 66t15.5 89v178q-10 -37 -31 -68t-50.5 -53.5t-67.5 -35t-84 -12.5
q-57 0 -104.5 19t-82 55t-53.5 88t-19 117t19 116.5t53.5 87.5t82 55t104.5 19zM324 510q-51 0 -92 -16.5t-70.5 -47t-45 -74.5t-15.5 -100t15.5 -100.5t45 -75t70.5 -47t92 -16.5q48 0 89 17t71 48t46.5 75.5t16.5 98.5t-16.5 98t-46.5 75t-71 48t-89 17z" />
    <glyph glyph-name="h" unicode="h" horiz-adv-x="624" 
d="M333 554q45 0 84.5 -14t68.5 -43t46 -73.5t17 -106.5v-317h-45v315q0 100 -50 150.5t-133 50.5q-42 0 -78 -14t-62 -42t-40.5 -70.5t-14.5 -100.5v-289h-45v740h45v-340q11 40 31.5 69t48 48t60 28t67.5 9z" />
    <glyph glyph-name="i" unicode="i" horiz-adv-x="207" 
d="M65 707q0 17 10.5 27t27.5 10t28 -10t11 -27t-11 -27.5t-28 -10.5t-27.5 10.5t-10.5 27.5zM126 543v-543h-45v543h45z" />
    <glyph glyph-name="j" unicode="j" horiz-adv-x="215" 
d="M112 669q-17 0 -28 10.5t-11 27.5t11 27t28 10t28 -10t11 -27t-11 -27.5t-28 -10.5zM-26 -215h37q39 0 58.5 17t19.5 65v676h46v-681q0 -57 -28.5 -87.5t-91.5 -30.5h-41v41z" />
    <glyph glyph-name="k" unicode="k" horiz-adv-x="430" 
d="M361 0l-235 250v-250h-45v740h45v-441l230 244h59l-258 -269l264 -274h-60z" />
    <glyph glyph-name="l" unicode="l" horiz-adv-x="207" 
d="M126 740v-740h-45v740h45z" />
    <glyph glyph-name="m" unicode="m" horiz-adv-x="1012" 
d="M729 554q43 0 81 -14t66 -43t44 -73.5t16 -106.5v-317h-44v315q0 100 -47 149.5t-125 49.5q-41 0 -76 -13.5t-60 -41.5t-39 -70.5t-14 -99.5v-289h-44v315q0 100 -47.5 149.5t-125.5 49.5q-41 0 -75.5 -13.5t-59.5 -41.5t-39 -70.5t-14 -99.5v-289h-45v543h45v-141
q10 39 30 68t46.5 47.5t58 27.5t64.5 9q71 0 125.5 -39t72.5 -122q10 42 30.5 72t48 50t60 29.5t67.5 9.5z" />
    <glyph glyph-name="n" unicode="n" horiz-adv-x="624" 
d="M333 554q45 0 84.5 -14t68.5 -43t46 -73.5t17 -106.5v-317h-45v315q0 100 -50 150.5t-133 50.5q-42 0 -78 -14t-62 -42t-40.5 -70.5t-14.5 -100.5v-289h-45v543h45v-143q11 40 31.5 69t48 48t60 28t67.5 9z" />
    <glyph glyph-name="o" unicode="o" horiz-adv-x="646" 
d="M323 550q57 0 106 -19t85 -55t56.5 -87.5t20.5 -116.5q0 -66 -20.5 -117.5t-56.5 -87.5t-85 -55t-106 -19t-106 19t-85 55t-56.5 87.5t-20.5 117.5q0 65 20.5 116.5t56.5 87.5t85 55t106 19zM323 510q-42 0 -82 -14t-71 -43t-50 -74t-19 -107t19 -107t50 -74.5t71 -43.5
t82 -14q43 0 83 14t71 43.5t49.5 74.5t18.5 107t-18.5 107t-49.5 74t-71 43t-83 14z" />
    <glyph glyph-name="p" unicode="p" 
d="M358 550q57 0 104.5 -19t82 -55t53.5 -87.5t19 -116.5t-19 -117t-53.5 -88t-82 -55t-104.5 -19q-45 0 -83.5 12.5t-68 35t-50 53.5t-31.5 68v-418h-44v799h44v-162q11 37 31.5 68t50 53.5t68 35t83.5 12.5zM349 510q-48 0 -89 -17t-71 -48t-47 -75t-17 -98t17 -98.5
t47 -75.5t71 -48t89 -17q51 0 92 16.5t70 47t45 75t16 100.5t-16 100t-45 74.5t-70 47t-92 16.5z" />
    <glyph glyph-name="q" unicode="q" 
d="M316 550q90 0 149.5 -46.5t81.5 -118.5v158h45v-799h-45v416q-22 -74 -81 -120.5t-150 -46.5q-57 0 -105 19.5t-82.5 55.5t-54 87.5t-19.5 115.5q0 65 19.5 116.5t54 87.5t82.5 55.5t105 19.5zM324 510q-50 0 -91 -16t-70.5 -47t-45.5 -75.5t-16 -100.5t16 -100.5
t45.5 -75t70.5 -46.5t91 -16q48 0 88.5 17t70.5 48t47 75t17 99q0 54 -17 98t-47 75t-70.5 48t-88.5 17z" />
    <glyph glyph-name="r" unicode="r" horiz-adv-x="354" 
d="M126 423q21 63 73.5 97t135.5 34v-49h-15q-36 0 -70.5 -9.5t-62 -32t-44.5 -60t-17 -93.5v-310h-45v543h45v-120z" />
    <glyph glyph-name="s" unicode="s" horiz-adv-x="495" 
d="M235 550q87 0 138 -46t61 -124h-43q-3 27 -14 51t-30.5 43t-47 30t-64.5 11q-63 0 -96.5 -30.5t-33.5 -79.5q0 -42 24.5 -63.5t62 -33.5t80.5 -20.5t80.5 -24.5t62 -45t24.5 -81q0 -63 -45.5 -103.5t-121.5 -40.5q-91 0 -148 45.5t-68 124.5h45q3 -27 15 -51.5t33.5 -43
t52.5 -29.5t71 -11q60 0 91.5 31t31.5 79q0 44 -24.5 66.5t-62 35t-80.5 21t-80.5 23.5t-62 42.5t-24.5 78.5q0 66 47 105.5t126 39.5z" />
    <glyph glyph-name="t" unicode="t" horiz-adv-x="350" 
d="M150 502v-349q0 -66 24 -89t80 -23h57v-41h-62q-73 0 -108.5 34t-35.5 119v349h-86v41h86v138h45v-138h161v-41h-161z" />
    <glyph glyph-name="u" unicode="u" horiz-adv-x="611" 
d="M531 543v-543h-46v142q-10 -39 -31 -68t-48.5 -48t-60 -28t-67.5 -9q-45 0 -84 14t-68 43t-46 74t-17 107v316h44v-315q0 -100 50 -150t133 -50q43 0 78.5 13.5t61.5 41.5t40.5 71t14.5 101v288h46z" />
    <glyph glyph-name="v" unicode="v" horiz-adv-x="535" 
d="M268 57l199 486h49l-225 -543h-48l-224 543h48z" />
    <glyph glyph-name="w" unicode="w" horiz-adv-x="816" 
d="M798 543l-165 -543h-44l-181 483l-181 -483h-44l-166 543h47l143 -487l179 487h45l180 -487l143 487h44z" />
    <glyph glyph-name="x" unicode="x" horiz-adv-x="448" 
d="M378 0l-158 240l-151 -240h-50l176 278l-174 265h52l153 -232l149 232h50l-174 -270l179 -273h-52z" />
    <glyph glyph-name="y" unicode="y" horiz-adv-x="525" 
d="M66 543l204 -483l189 483h50l-315 -799h-52l104 259l-230 540h50z" />
    <glyph glyph-name="z" unicode="z" horiz-adv-x="421" 
d="M78 39h314v-39h-363v38l302 466h-293v39h344v-37z" />
    <glyph glyph-name="braceleft" unicode="{" horiz-adv-x="321" 
d="M76 371q32 -7 54.5 -22.5t37 -36.5t21.5 -47t7 -53q0 -25 -4 -47t-9 -45t-9 -50t-4 -63q0 -42 11.5 -77t29.5 -63t39 -47.5t40 -31.5v-5h-43q-12 7 -32 24.5t-39.5 45.5t-34 68t-14.5 92q0 31 4 57.5t9 50.5t9 46.5t4 45.5q0 17 -3 37.5t-14 40.5t-33 37.5t-61 28.5v30
q39 11 61 28.5t33.5 37.5t14 40.5t2.5 37.5q0 23 -4 45.5t-9 46.5t-9 50.5t-4 57.5q0 52 14.5 92t34 68t39.5 45.5t32 24.5h43v-5q-19 -12 -40 -31.5t-39 -47.5t-29.5 -63t-11.5 -77q0 -36 4 -62.5t9 -50t9 -45t4 -47.5q0 -27 -7 -53t-21.5 -47t-37 -36.5t-54.5 -22.5v-2z
" />
    <glyph glyph-name="bar" unicode="|" horiz-adv-x="199" 
d="M122 -93h-45v877h45v-877z" />
    <glyph glyph-name="braceright" unicode="}" horiz-adv-x="326" 
d="M253 373q-31 7 -54 22t-37 36t-21 46t-7 52q0 26 4 48t9 45t9 49.5t4 62.5q0 42 -11.5 77.5t-29.5 64t-39 48.5t-40 32v5h43q12 -7 32 -24.5t39.5 -45.5t33.5 -68t14 -92q0 -31 -4 -57.5t-8.5 -50.5t-8.5 -46.5t-4 -45.5q0 -17 2.5 -37.5t13.5 -40.5t33 -37.5t61 -28.5
v-30q-39 -11 -61 -28.5t-33 -37.5t-13.5 -40.5t-2.5 -37.5q0 -23 4 -45.5t8.5 -46.5t8.5 -50.5t4 -57.5q0 -52 -14 -92t-33.5 -68t-39.5 -45.5t-32 -24.5h-43v5q19 12 40 32t39 48.5t29.5 64t11.5 77.5q0 36 -4 62.5t-9 49.5t-9 45t-4 48q0 27 7 52t21 46t37 36t54 22v2z
" />
    <glyph glyph-name="asciitilde" unicode="~" horiz-adv-x="449" 
d="M145 377q26 0 47 -10.5t39.5 -23t37 -23t40.5 -10.5q26 0 43 19.5t22 47.5h38q-9 -52 -36 -81t-71 -29q-26 0 -46.5 10.5t-39.5 23t-37.5 23t-40.5 10.5q-26 0 -43 -19.5t-22 -47.5h-38q9 52 36 81t71 29z" />
    <glyph glyph-name="exclamdown" unicode="&#xa1;" horiz-adv-x="254" 
d="M91 554h71v-69h-71v69zM108 373h34l9 -529h-52z" />
    <glyph glyph-name="cent" unicode="&#xa2;" horiz-adv-x="587" 
d="M300 57q74 0 125.5 41t63.5 114h43q-13 -85 -72 -138t-153 -55v-111h-29v112q-49 3 -90 21.5t-70.5 50t-46 76t-16.5 100.5t16.5 100.5t46 76t70.5 50t90 21.5v103h29v-102q94 -2 153 -55t72 -138h-43q-12 73 -63.5 114t-125.5 41q-39 0 -75.5 -12.5t-64.5 -38.5
t-44.5 -66t-16.5 -94t16.5 -94t44.5 -66t64.5 -38.5t75.5 -12.5z" />
    <glyph glyph-name="sterling" unicode="&#xa3;" horiz-adv-x="557" 
d="M229 220q0 -53 -20 -95.5t-62 -86.5h371v-39h-413l-7 30q18 21 34.5 41.5t28.5 42.5t19 47t7 55q0 28 -6 54t-15 52h-118v34h105q-14 39 -27 80.5t-13 91.5q0 42 14 77t39.5 60.5t61.5 40t81 14.5q48 0 85.5 -15.5t64.5 -42t43 -62.5t21 -77h-43q-3 34 -16.5 63t-35.5 50
t-52 33t-66 12q-30 0 -57.5 -9t-48.5 -28.5t-34 -48.5t-13 -70q0 -47 13.5 -87.5t27.5 -81.5h190v-34h-178q8 -25 13.5 -50t5.5 -51z" />
    <glyph glyph-name="currency" unicode="&#xa4;" horiz-adv-x="514" 
d="M417 377q0 -34 -9.5 -62.5t-26.5 -50.5l61 -59l-23 -21l-58 58q-22 -18 -48.5 -28t-55.5 -10q-31 0 -58 10t-47 28l-59 -58l-22 21l60 59q-16 22 -25 50.5t-9 62.5q0 69 36 114l-62 61l22 21l60 -60q21 18 47.5 28t56.5 10q29 0 55 -10t47 -28l60 60l23 -21l-62 -61
q17 -22 27 -50.5t10 -63.5zM257 235q24 0 46 9.5t39 27.5t27 44.5t10 60.5q0 33 -10 59.5t-27 45t-39 28t-46 9.5q-52 0 -86.5 -37.5t-34.5 -104.5q0 -68 34.5 -105t86.5 -37z" />
    <glyph glyph-name="yen" unicode="&#xa5;" horiz-adv-x="584" 
d="M357 359h161v-33h-178l-22 -41v-51h200v-35h-200v-199h-46v199h-200v35h200v51l-22 41h-178v33h161l-185 346h53l194 -375l193 375h52z" />
    <glyph glyph-name="brokenbar" unicode="&#xa6;" horiz-adv-x="220" 
d="M88 784h45v-360h-45v360zM133 -93h-45v361h45v-361z" />
    <glyph glyph-name="section" unicode="&#xa7;" horiz-adv-x="570" 
d="M326 129q32 -9 61.5 -21t52.5 -30t36.5 -42t13.5 -56q0 -60 -46.5 -99t-134.5 -39q-91 0 -149.5 45.5t-69.5 126.5h45q3 -26 14 -50.5t32 -43.5t52.5 -31t76.5 -12q59 0 96.5 24.5t37.5 76.5q0 47 -38 76t-130 54q-45 12 -85 26t-70.5 35t-48 51t-17.5 73q0 30 12 58.5
t36.5 51t60.5 37t84 16.5q-31 9 -61.5 21.5t-54 30.5t-38 43t-14.5 58q0 59 48 97t137 38q91 0 147.5 -45t67.5 -126h-45q-2 23 -12.5 47t-31 44t-52 32.5t-75.5 12.5q-61 0 -99.5 -24t-38.5 -75q0 -46 38 -76.5t130 -54.5q45 -12 85 -26.5t70.5 -35.5t48 -51t17.5 -73
q0 -30 -12 -58t-35.5 -50.5t-59 -37.5t-82.5 -18zM102 293q0 -60 48.5 -97.5t136.5 -37.5q45 0 78.5 11t56.5 30t34.5 43t11.5 51q0 60 -48 98t-137 38q-45 0 -78.5 -11.5t-56.5 -30t-34.5 -43t-11.5 -51.5z" />
    <glyph glyph-name="dieresis" unicode="&#xa8;" horiz-adv-x="331" 
d="M56 663q0 15 10.5 26t26.5 11t26.5 -11t10.5 -26t-10.5 -26t-26.5 -11t-26.5 11t-10.5 26zM202 663q0 15 10.5 26t26.5 11q15 0 25.5 -11t10.5 -26t-10.5 -26t-25.5 -11q-16 0 -26.5 11t-10.5 26z" />
    <glyph glyph-name="copyright" unicode="&#xa9;" horiz-adv-x="799" 
d="M400 704q77 0 140 -26t108 -72.5t70 -111t25 -141.5t-25 -142t-70 -111.5t-108 -72.5t-140 -26q-76 0 -139.5 26t-109 72.5t-70.5 111.5t-25 142t25 141.5t70.5 111t109 72.5t139.5 26zM400 680q-73 0 -131.5 -24.5t-100 -68t-63.5 -103.5t-22 -131t22 -131t63.5 -104
t100 -68.5t131.5 -24.5t131.5 24.5t100 68.5t63.5 104t22 131t-22 131t-63.5 103.5t-100 68t-131.5 24.5zM403 589q-43 0 -82.5 -15t-68.5 -45t-46.5 -74t-17.5 -101q0 -58 17.5 -102.5t46.5 -74.5t68.5 -45t82.5 -15q35 0 67.5 10t59.5 30t47 49.5t30 68.5h-41
q-19 -61 -64.5 -92t-99.5 -31q-34 0 -65.5 12.5t-56 37.5t-39 62.5t-14.5 87.5t14.5 88t39 63t56 37.5t65.5 12.5q54 0 99.5 -31t64.5 -92h41q-10 39 -30 68.5t-47 50t-59.5 30.5t-67.5 10z" />
    <glyph glyph-name="ordfeminine" unicode="&#xaa;" horiz-adv-x="439" 
d="M200 709q57 0 93.5 -27t50.5 -75v97h38v-350h-38v96q-14 -48 -50.5 -75.5t-93.5 -27.5q-36 0 -66 13t-51.5 37t-33 57.5t-11.5 73.5q0 82 44.5 131.5t117.5 49.5zM207 677q-57 0 -94 -40t-37 -109t37 -108.5t94 -39.5q61 0 99 40t38 109q0 68 -38 108t-99 40z" />
    <glyph glyph-name="guillemotleft" unicode="&#xab;" horiz-adv-x="405" 
d="M148 120l-103 175l103 175h49l-105 -175l105 -175h-49zM307 120l-103 175l103 175h49l-105 -175l105 -175h-49z" />
    <glyph glyph-name="logicalnot" unicode="&#xac;" horiz-adv-x="719" 
d="M671 427v-184h-43v146h-574v38h617z" />
    <glyph glyph-name="registered" unicode="&#xae;" horiz-adv-x="791" 
d="M396 705q76 0 138.5 -25t107 -70.5t69 -110.5t24.5 -145q0 -77 -24.5 -142t-69 -112t-107 -73.5t-138.5 -26.5q-75 0 -137.5 26.5t-107.5 73.5t-70 112t-25 142q0 80 25 145t70 110.5t107.5 70.5t137.5 25zM396 32q72 0 130 23t98.5 65.5t62.5 102t22 131.5
q0 74 -22 134.5t-62.5 103t-98.5 66t-130 23.5t-130 -23.5t-98.5 -66t-62.5 -103t-22 -134.5q0 -72 22 -131.5t62.5 -102t98.5 -65.5t130 -23zM566 471q0 -58 -35.5 -90.5t-103.5 -35.5l139 -203h-40l-136 203h-89v-203h-34v453h146q80 0 116.5 -34.5t36.5 -89.5zM412 372
q66 0 93 26t27 70q0 46 -27 71t-93 25h-111v-192h111z" />
    <glyph glyph-name="macron" unicode="&#xaf;" horiz-adv-x="397" 
d="M361 689v-35h-325v35h325z" />
    <glyph glyph-name="degree" unicode="&#xb0;" horiz-adv-x="374" 
d="M187 694q72 0 114.5 -47.5t42.5 -125.5q0 -79 -42.5 -126.5t-114.5 -47.5q-71 0 -114.5 47.5t-43.5 126.5q0 78 43 125.5t115 47.5zM187 664q-54 0 -86.5 -37t-32.5 -106t32.5 -106.5t86.5 -37.5t86.5 37.5t32.5 106.5t-32.5 106t-86.5 37z" />
    <glyph glyph-name="plusminus" unicode="&#xb1;" horiz-adv-x="584" 
d="M547 426v-41h-233v-222h-44v222h-232v41h232v208h44v-208h233zM38 133h509v-41h-509v41z" />
    <glyph glyph-name="uni00B2" unicode="&#xb2;" horiz-adv-x="316" 
d="M278 383v-31h-237v24l117 108q26 25 48.5 54t22.5 70q0 38 -20.5 54t-48.5 16q-74 0 -82 -84h-38q2 23 10 43.5t23 36.5t37.5 25t52.5 9q48 0 76.5 -26.5t28.5 -71.5q0 -46 -25.5 -80.5t-69.5 -70.5l-87 -76h192z" />
    <glyph glyph-name="uni00B3" unicode="&#xb3;" horiz-adv-x="315" 
d="M162 708q50 0 81.5 -26t31.5 -71q0 -30 -16.5 -52t-51.5 -31v-2q32 -8 51 -29.5t19 -55.5q0 -36 -29 -65t-88 -29q-57 0 -87 25.5t-36 76.5h39q5 -42 27.5 -57t54.5 -15q39 0 59.5 18t20.5 50q0 35 -24 52.5t-60 17.5h-58v23h59q36 0 58.5 18t22.5 52q0 31 -21 50t-56 19
q-37 0 -57.5 -17t-26.5 -46h-37q6 38 35.5 66t88.5 28z" />
    <glyph glyph-name="acute" unicode="&#xb4;" horiz-adv-x="269" 
d="M203 685l-153 -89l-14 20l152 99z" />
    <glyph glyph-name="uni00B5" unicode="&#xb5;" horiz-adv-x="636" 
d="M552 543v-543h-45v143q-10 -40 -29.5 -69t-45.5 -48t-57 -28t-64 -9q-27 0 -54.5 6t-52 20.5t-44.5 39t-32 60.5v-371h-44v799h44v-280q0 -60 14.5 -104t40 -73t61.5 -43t78 -14q40 0 74 13.5t58.5 41.5t38.5 70.5t14 100.5v288h45z" />
    <glyph glyph-name="paragraph" unicode="&#xb6;" horiz-adv-x="525" 
d="M441 0h-39v651h-102v-651h-39v293h-5q-60 0 -104.5 14.5t-73.5 41t-43.5 62.5t-14.5 79q0 44 15 80t44.5 62t73.5 40.5t103 14.5h185v-687z" />
    <glyph glyph-name="periodcentered" unicode="&#xb7;" horiz-adv-x="137" 
d="M104 387v-69h-71v69h71z" />
    <glyph glyph-name="cedilla" unicode="&#xb8;" horiz-adv-x="261" 
d="M98 -81q60 3 93.5 -18.5t33.5 -66.5q0 -42 -29.5 -66t-82.5 -24h-77v31h72q45 0 63 17t18 43q0 23 -18 39t-63 16h-43v117h33v-88z" />
    <glyph glyph-name="uni00B9" unicode="&#xb9;" horiz-adv-x="170" 
d="M38 672v32h93v-352h-38v320h-55z" />
    <glyph glyph-name="ordmasculine" unicode="&#xba;" horiz-adv-x="419" 
d="M211 709q38 0 69.5 -13.5t54.5 -37.5t36 -57.5t13 -74.5q0 -40 -13 -73.5t-36 -57.5t-54.5 -37.5t-69.5 -13.5t-69.5 13.5t-54.5 37.5t-36 57.5t-13 73.5q0 41 13 74.5t36 57.5t54.5 37.5t69.5 13.5zM211 676q-57 0 -96 -38.5t-39 -111.5q0 -72 39 -110.5t96 -38.5
q56 0 95 38.5t39 110.5q0 73 -39 111.5t-95 38.5z" />
    <glyph glyph-name="guillemotright" unicode="&#xbb;" horiz-adv-x="405" 
d="M156 295l-106 175h50l102 -175l-102 -175h-50zM315 295l-106 175h50l102 -175l-102 -175h-50z" />
    <glyph glyph-name="onequarter" unicode="&#xbc;" horiz-adv-x="558" 
d="M461 705l-353 -705h-44l353 705h44zM59 672v32h93v-352h-38v320h-55zM520 74h-52v-74h-38v74h-176v26l172 255h42v-253h52v-28zM431 302l-137 -199h137v199z" />
    <glyph glyph-name="onehalf" unicode="&#xbd;" horiz-adv-x="635" 
d="M448 705l-355 -705h-44l354 705h45zM116 672h-55v32h93v-352h-38v320zM590 30v-31h-237v24l117 108q26 25 48.5 54t22.5 70q0 38 -20.5 54t-48.5 16q-74 0 -82 -84h-38q2 23 10 43.5t23 36.5t37.5 25t52.5 9q48 0 76.5 -26.5t28.5 -71.5q0 -46 -25.5 -80.5t-69.5 -70.5
l-87 -76h192z" />
    <glyph glyph-name="threequarters" unicode="&#xbe;" horiz-adv-x="594" 
d="M184 708q50 0 81.5 -26t31.5 -71q0 -30 -16.5 -52t-51.5 -31v-2q32 -8 51 -29.5t19 -55.5q0 -36 -29 -65t-88 -29q-57 0 -87 25.5t-36 76.5h39q5 -42 27.5 -57t54.5 -15q39 0 59.5 18t20.5 50q0 35 -24 52.5t-60 17.5h-58v23h59q36 0 58.5 18t22.5 52q0 31 -21 50t-56 19
q-37 0 -57.5 -17t-26.5 -46h-37q6 38 35.5 66t88.5 28zM522 705l-351 -705h-45l351 705h45zM557 74h-53v-74h-38v74h-176v26l170 255h44v-253h53v-28zM467 304l-137 -202h137v202z" />
    <glyph glyph-name="questiondown" unicode="&#xbf;" horiz-adv-x="472" 
d="M277 473v69h71v-69h-71zM242 -177q-46 0 -84 14t-65 39.5t-42 62t-15 81.5q0 59 18.5 100t52.5 67t81 38t104 12v136h43v-169h-24q-42 0 -83.5 -6.5t-74 -26t-52.5 -56t-20 -95.5q0 -75 43.5 -117t118.5 -42q39 0 70.5 11.5t54.5 32t35.5 49t12.5 63.5h43
q0 -45 -16.5 -81t-45.5 -61t-69 -38.5t-86 -13.5z" />
    <glyph glyph-name="Agrave" unicode="&#xc0;" horiz-adv-x="623" 
d="M394 752l-144 103l17 26l139 -107zM479 183h-334l-69 -183h-50l261 686h50l259 -686h-49zM465 220l-153 411l-154 -411h307z" />
    <glyph glyph-name="Aacute" unicode="&#xc1;" horiz-adv-x="623" 
d="M251 758l-14 20l152 99l15 -30zM479 183h-334l-69 -183h-50l261 686h50l259 -686h-49zM465 220l-153 411l-154 -411h307z" />
    <glyph glyph-name="Acircumflex" unicode="&#xc2;" horiz-adv-x="623" 
d="M200 760l-14 22l126 80l124 -80l-13 -23l-111 71zM479 183h-334l-69 -183h-50l261 686h50l259 -686h-49zM465 220l-153 411l-154 -411h307z" />
    <glyph glyph-name="Atilde" unicode="&#xc3;" horiz-adv-x="623" 
d="M256 814q-35 0 -41 -47h-27q5 36 22.5 56t46.5 20q19 0 32 -7.5t24.5 -17t24 -17t29.5 -7.5q15 0 27.5 11.5t15.5 34.5h27q-3 -33 -22.5 -53.5t-48.5 -20.5q-20 0 -34 7.5t-25.5 16.5t-23.5 16.5t-27 7.5zM479 183h-334l-69 -183h-50l261 686h50l259 -686h-49zM465 220
l-153 411l-154 -411h307z" />
    <glyph glyph-name="Adieresis" unicode="&#xc4;" horiz-adv-x="623" 
d="M239 788q-16 0 -26.5 11t-10.5 26t10.5 26t26.5 11t26.5 -11t10.5 -26t-10.5 -26t-26.5 -11zM385 788q-16 0 -26.5 11t-10.5 26t10.5 26t26.5 11q15 0 25.5 -11t10.5 -26t-10.5 -26t-25.5 -11zM479 183h-334l-69 -183h-50l261 686h50l259 -686h-49zM465 220l-153 411
l-154 -411h307z" />
    <glyph glyph-name="Aring" unicode="&#xc5;" horiz-adv-x="623" 
d="M311 774q-39 0 -67.5 25.5t-28.5 70.5t28.5 70t67.5 25t67 -25t28 -70t-28 -70.5t-67 -25.5zM311 938q-29 0 -48 -18t-19 -50t19 -50.5t48 -18.5t48 18.5t19 50.5t-19 50t-48 18zM479 183h-334l-69 -183h-50l261 686h50l259 -686h-49zM465 220l-153 411l-154 -411h307z
" />
    <glyph glyph-name="AE" unicode="&#xc6;" horiz-adv-x="856" 
d="M494 667v-295h284v-37h-284v-297h314v-38h-359v182h-281l-109 -182h-50l421 705h378v-38h-314zM449 219v432l-259 -432h259z" />
    <glyph glyph-name="Ccedilla" unicode="&#xc7;" horiz-adv-x="767" 
d="M387 35q55 0 99.5 13.5t79.5 37.5t59.5 57t38.5 72h47q-34 -97 -111.5 -157.5t-199.5 -64.5v-74q60 3 93.5 -18.5t33.5 -66.5q0 -42 -29.5 -66t-82.5 -24h-77v31h72q45 0 63 17t18 43q0 23 -18 39t-63 16h-43v104q-69 3 -126 31t-98 75t-64 111.5t-23 140.5
q0 79 24.5 145t68.5 114t104.5 74.5t133.5 26.5q128 0 209 -61t115 -162h-47q-14 39 -38.5 72t-59.5 57.5t-79.5 38t-99.5 13.5q-60 0 -111.5 -22t-90 -63t-60.5 -100t-22 -133t22 -132.5t60.5 -99.5t90 -63t111.5 -22z" />
    <glyph glyph-name="Egrave" unicode="&#xc8;" horiz-adv-x="489" 
d="M339 774l-12 -22l-144 103l17 26zM126 667v-296h285v-36h-285v-297h315v-38h-360v705h360v-38h-315z" />
    <glyph glyph-name="Eacute" unicode="&#xc9;" horiz-adv-x="489" 
d="M337 847l-153 -89l-14 20l152 99zM126 667v-296h285v-36h-285v-297h315v-38h-360v705h360v-38h-315z" />
    <glyph glyph-name="Ecircumflex" unicode="&#xca;" horiz-adv-x="489" 
d="M245 830l-112 -70l-14 22l126 80l124 -80l-13 -23zM126 667v-296h285v-36h-285v-297h315v-38h-360v705h360v-38h-315z" />
    <glyph glyph-name="Edieresis" unicode="&#xcb;" horiz-adv-x="489" 
d="M152 825q0 15 10.5 26t26.5 11t26.5 -11t10.5 -26t-10.5 -26t-26.5 -11t-26.5 11t-10.5 26zM298 825q0 15 10.5 26t26.5 11q15 0 25.5 -11t10.5 -26t-10.5 -26t-25.5 -11q-16 0 -26.5 11t-10.5 26zM126 667v-296h285v-36h-285v-297h315v-38h-360v705h360v-38h-315z" />
    <glyph glyph-name="Igrave" unicode="&#xcc;" horiz-adv-x="207" 
d="M197 774l-12 -22l-144 103l17 26zM126 705v-705h-45v705h45z" />
    <glyph glyph-name="Iacute" unicode="&#xcd;" horiz-adv-x="207" 
d="M195 847l-153 -89l-14 20l152 99zM126 705v-705h-45v705h45z" />
    <glyph glyph-name="Icircumflex" unicode="&#xce;" horiz-adv-x="207" 
d="M103 830l-112 -70l-14 22l126 80l124 -80l-13 -23zM126 705v-705h-45v705h45z" />
    <glyph glyph-name="Idieresis" unicode="&#xcf;" horiz-adv-x="207" 
d="M-6 825q0 15 10.5 26t26.5 11t26.5 -11t10.5 -26t-10.5 -26t-26.5 -11t-26.5 11t-10.5 26zM140 825q0 15 10.5 26t26.5 11q15 0 25.5 -11t10.5 -26t-10.5 -26t-25.5 -11q-16 0 -26.5 11t-10.5 26zM126 705v-705h-45v705h45z" />
    <glyph glyph-name="Eth" unicode="&#xd0;" horiz-adv-x="742" 
d="M314 705q91 0 160.5 -24t116.5 -69.5t71 -111t24 -147.5t-24 -147.5t-71 -111.5t-116.5 -70t-160.5 -24h-198v334h-107v37h107v334h198zM312 41q164 0 246 83.5t82 228.5t-82 228.5t-246 83.5h-151v-294h220v-37h-220v-293h151z" />
    <glyph glyph-name="Ntilde" unicode="&#xd1;" horiz-adv-x="664" 
d="M277 843q19 0 32 -7.5t24.5 -17t24 -17t29.5 -7.5q15 0 27.5 11.5t15.5 34.5h27q-3 -33 -22.5 -53.5t-48.5 -20.5q-20 0 -34 7.5t-25.5 16.5t-23.5 16.5t-27 7.5q-35 0 -41 -47h-27q5 36 22.5 56t46.5 20zM583 0h-45l-412 628v-628h-45v704h45l412 -628v628h45v-704z" />
    <glyph glyph-name="Ograve" unicode="&#xd2;" horiz-adv-x="792" 
d="M490 774l-12 -22l-144 103l17 26zM396 711q74 0 136 -26.5t107 -74t70.5 -113.5t25.5 -145t-25.5 -145t-70.5 -114t-107 -74.5t-136 -26.5t-136.5 26.5t-107.5 74.5t-70.5 114t-25.5 145t25.5 145t70.5 113.5t107.5 74t136.5 26.5zM396 670q-62 0 -115.5 -22t-93 -63
t-62 -100t-22.5 -133t22.5 -133t62 -100t93 -63t115.5 -22t115 22t93 63t62.5 100t22.5 133t-22.5 133t-62.5 100t-93 63t-115 22z" />
    <glyph glyph-name="Oacute" unicode="&#xd3;" horiz-adv-x="792" 
d="M488 847l-153 -89l-14 20l152 99zM396 711q74 0 136 -26.5t107 -74t70.5 -113.5t25.5 -145t-25.5 -145t-70.5 -114t-107 -74.5t-136 -26.5t-136.5 26.5t-107.5 74.5t-70.5 114t-25.5 145t25.5 145t70.5 113.5t107.5 74t136.5 26.5zM396 670q-62 0 -115.5 -22t-93 -63
t-62 -100t-22.5 -133t22.5 -133t62 -100t93 -63t115.5 -22t115 22t93 63t62.5 100t22.5 133t-22.5 133t-62.5 100t-93 63t-115 22z" />
    <glyph glyph-name="Ocircumflex" unicode="&#xd4;" horiz-adv-x="792" 
d="M396 830l-112 -70l-14 22l126 80l124 -80l-13 -23zM396 711q74 0 136 -26.5t107 -74t70.5 -113.5t25.5 -145t-25.5 -145t-70.5 -114t-107 -74.5t-136 -26.5t-136.5 26.5t-107.5 74.5t-70.5 114t-25.5 145t25.5 145t70.5 113.5t107.5 74t136.5 26.5zM396 670
q-62 0 -115.5 -22t-93 -63t-62 -100t-22.5 -133t22.5 -133t62 -100t93 -63t115.5 -22t115 22t93 63t62.5 100t22.5 133t-22.5 133t-62.5 100t-93 63t-115 22z" />
    <glyph glyph-name="Otilde" unicode="&#xd5;" horiz-adv-x="792" 
d="M341 843q19 0 32 -7.5t24.5 -17t24 -17t29.5 -7.5q15 0 27.5 11.5t15.5 34.5h27q-3 -33 -22.5 -53.5t-48.5 -20.5q-20 0 -34 7.5t-25.5 16.5t-23.5 16.5t-27 7.5q-35 0 -41 -47h-27q5 36 22.5 56t46.5 20zM396 711q74 0 136 -26.5t107 -74t70.5 -113.5t25.5 -145
t-25.5 -145t-70.5 -114t-107 -74.5t-136 -26.5t-136.5 26.5t-107.5 74.5t-70.5 114t-25.5 145t25.5 145t70.5 113.5t107.5 74t136.5 26.5zM396 670q-62 0 -115.5 -22t-93 -63t-62 -100t-22.5 -133t22.5 -133t62 -100t93 -63t115.5 -22t115 22t93 63t62.5 100t22.5 133
t-22.5 133t-62.5 100t-93 63t-115 22z" />
    <glyph glyph-name="Odieresis" unicode="&#xd6;" horiz-adv-x="792" 
d="M287 825q0 15 10.5 26t26.5 11t26.5 -11t10.5 -26t-10.5 -26t-26.5 -11t-26.5 11t-10.5 26zM433 825q0 15 10.5 26t26.5 11q15 0 25.5 -11t10.5 -26t-10.5 -26t-25.5 -11q-16 0 -26.5 11t-10.5 26zM396 711q74 0 136 -26.5t107 -74t70.5 -113.5t25.5 -145t-25.5 -145
t-70.5 -114t-107 -74.5t-136 -26.5t-136.5 26.5t-107.5 74.5t-70.5 114t-25.5 145t25.5 145t70.5 113.5t107.5 74t136.5 26.5zM396 670q-62 0 -115.5 -22t-93 -63t-62 -100t-22.5 -133t22.5 -133t62 -100t93 -63t115.5 -22t115 22t93 63t62.5 100t22.5 133t-22.5 133
t-62.5 100t-93 63t-115 22z" />
    <glyph glyph-name="multiply" unicode="&#xd7;" horiz-adv-x="483" 
d="M415 172l-174 174l-173 -173l-30 29l173 173l-173 173l31 31l173 -173l172 172l29 -29l-172 -172l175 -175z" />
    <glyph glyph-name="Oslash" unicode="&#xd8;" horiz-adv-x="792" 
d="M645 605q43 -48 66.5 -112t23.5 -141q0 -79 -25.5 -145t-70.5 -114t-107 -74.5t-136 -26.5q-69 0 -127.5 23t-103.5 65l-73 -80h-36l90 99q-42 48 -66 112t-24 141q0 79 25.5 145t70.5 113.5t107.5 74t136.5 26.5q69 0 127 -22.5t103 -64.5l74 81h36zM103 352
q0 -69 19 -124t54 -96l421 460q-39 38 -90.5 58t-110.5 20q-62 0 -115.5 -22t-93 -63t-62 -100t-22.5 -133zM689 352q0 69 -19.5 124t-54.5 97l-420 -461q39 -38 90 -58t111 -20q62 0 115 22t93 63t62.5 100t22.5 133z" />
    <glyph glyph-name="Ugrave" unicode="&#xd9;" horiz-adv-x="640" 
d="M415 774l-12 -22l-144 103l17 26zM121 705v-433q0 -64 15 -109.5t41.5 -73.5t63.5 -41t81 -13q43 0 79 13t62.5 41t41 73.5t14.5 109.5v433h46v-433q0 -73 -18 -126t-50 -87t-77 -50t-98 -16q-54 0 -99 16t-77.5 50t-51 87t-18.5 126v433h45z" />
    <glyph glyph-name="Uacute" unicode="&#xda;" horiz-adv-x="640" 
d="M413 847l-153 -89l-14 20l152 99zM121 705v-433q0 -64 15 -109.5t41.5 -73.5t63.5 -41t81 -13q43 0 79 13t62.5 41t41 73.5t14.5 109.5v433h46v-433q0 -73 -18 -126t-50 -87t-77 -50t-98 -16q-54 0 -99 16t-77.5 50t-51 87t-18.5 126v433h45z" />
    <glyph glyph-name="Ucircumflex" unicode="&#xdb;" horiz-adv-x="640" 
d="M321 830l-112 -70l-14 22l126 80l124 -80l-13 -23zM121 705v-433q0 -64 15 -109.5t41.5 -73.5t63.5 -41t81 -13q43 0 79 13t62.5 41t41 73.5t14.5 109.5v433h46v-433q0 -73 -18 -126t-50 -87t-77 -50t-98 -16q-54 0 -99 16t-77.5 50t-51 87t-18.5 126v433h45z" />
    <glyph glyph-name="Udieresis" unicode="&#xdc;" horiz-adv-x="640" 
d="M211 825q0 15 10.5 26t26.5 11t26.5 -11t10.5 -26t-10.5 -26t-26.5 -11t-26.5 11t-10.5 26zM357 825q0 15 10.5 26t26.5 11q15 0 25.5 -11t10.5 -26t-10.5 -26t-25.5 -11q-16 0 -26.5 11t-10.5 26zM121 705v-433q0 -64 15 -109.5t41.5 -73.5t63.5 -41t81 -13q43 0 79 13
t62.5 41t41 73.5t14.5 109.5v433h46v-433q0 -73 -18 -126t-50 -87t-77 -50t-98 -16q-54 0 -99 16t-77.5 50t-51 87t-18.5 126v433h45z" />
    <glyph glyph-name="Yacute" unicode="&#xdd;" horiz-adv-x="545" 
d="M211 758l-14 20l152 99l15 -30zM518 705l-222 -420v-285h-45v285l-225 420h53l194 -372l193 372h52z" />
    <glyph glyph-name="Thorn" unicode="&#xde;" horiz-adv-x="543" 
d="M126 155v-155h-45v705h45v-154h149q122 0 176.5 -54.5t54.5 -144.5q0 -97 -59 -147t-172 -50h-149zM272 194q52 0 87.5 11.5t58 32t32.5 49.5t10 65q0 76 -42 118.5t-146 42.5h-146v-319h146z" />
    <glyph glyph-name="germandbls" unicode="&#xdf;" horiz-adv-x="611" 
d="M445 353q70 -45 100 -91.5t30 -109.5q0 -35 -13 -65t-37 -51.5t-56.5 -34t-71.5 -12.5q-83 0 -132.5 46.5t-49.5 132.5h40q0 -29 8.5 -54.5t25.5 -44t43 -29.5t62 -11t61.5 11t42.5 29t25 40.5t8 44.5q0 45 -21 83.5t-83 78.5l-161 106v26l41 20q38 19 56.5 46t18.5 68
q0 57 -33.5 92t-88.5 35q-63 0 -98.5 -36t-35.5 -99v-574h-45v568q0 88 49.5 135t132.5 47q35 0 65 -11t52.5 -31t35 -49.5t12.5 -66.5q0 -94 -98 -139l-22 -11z" />
    <glyph glyph-name="agrave" unicode="&#xe0;" 
d="M431 612l-12 -22l-144 103l17 26zM314 550q46 0 84 -12.5t67.5 -35t50.5 -53.5t31 -68v162h45v-543h-45v162q-10 -37 -31 -68t-50.5 -53.5t-67.5 -35t-84 -12.5q-57 0 -104.5 19t-82 55t-53.5 88t-19 117t19 116.5t53.5 87.5t82 55t104.5 19zM324 510q-51 0 -92 -16.5
t-70.5 -47t-45 -74.5t-15.5 -100t15.5 -100.5t45 -75t70.5 -47t92 -16.5q48 0 89 17t71 48t46.5 75.5t16.5 98.5t-16.5 98t-46.5 75t-71 48t-89 17z" />
    <glyph glyph-name="aacute" unicode="&#xe1;" 
d="M429 685l-153 -89l-14 20l152 99zM314 550q46 0 84 -12.5t67.5 -35t50.5 -53.5t31 -68v162h45v-543h-45v162q-10 -37 -31 -68t-50.5 -53.5t-67.5 -35t-84 -12.5q-57 0 -104.5 19t-82 55t-53.5 88t-19 117t19 116.5t53.5 87.5t82 55t104.5 19zM324 510q-51 0 -92 -16.5
t-70.5 -47t-45 -74.5t-15.5 -100t15.5 -100.5t45 -75t70.5 -47t92 -16.5q48 0 89 17t71 48t46.5 75.5t16.5 98.5t-16.5 98t-46.5 75t-71 48t-89 17z" />
    <glyph glyph-name="acircumflex" unicode="&#xe2;" 
d="M337 668l-112 -70l-14 22l126 80l124 -80l-13 -23zM314 550q46 0 84 -12.5t67.5 -35t50.5 -53.5t31 -68v162h45v-543h-45v162q-10 -37 -31 -68t-50.5 -53.5t-67.5 -35t-84 -12.5q-57 0 -104.5 19t-82 55t-53.5 88t-19 117t19 116.5t53.5 87.5t82 55t104.5 19zM324 510
q-51 0 -92 -16.5t-70.5 -47t-45 -74.5t-15.5 -100t15.5 -100.5t45 -75t70.5 -47t92 -16.5q48 0 89 17t71 48t46.5 75.5t16.5 98.5t-16.5 98t-46.5 75t-71 48t-89 17z" />
    <glyph glyph-name="atilde" unicode="&#xe3;" 
d="M282 681q19 0 32 -7.5t24.5 -17t24 -17t29.5 -7.5q15 0 27.5 11.5t15.5 34.5h27q-3 -33 -22.5 -53.5t-48.5 -20.5q-20 0 -34 7.5t-25.5 16.5t-23.5 16.5t-27 7.5q-35 0 -41 -47h-27q5 36 22.5 56t46.5 20zM314 550q46 0 84 -12.5t67.5 -35t50.5 -53.5t31 -68v162h45v-543
h-45v162q-10 -37 -31 -68t-50.5 -53.5t-67.5 -35t-84 -12.5q-57 0 -104.5 19t-82 55t-53.5 88t-19 117t19 116.5t53.5 87.5t82 55t104.5 19zM324 510q-51 0 -92 -16.5t-70.5 -47t-45 -74.5t-15.5 -100t15.5 -100.5t45 -75t70.5 -47t92 -16.5q48 0 89 17t71 48t46.5 75.5
t16.5 98.5t-16.5 98t-46.5 75t-71 48t-89 17z" />
    <glyph glyph-name="adieresis" unicode="&#xe4;" 
d="M214 663q0 15 10.5 26t26.5 11t26.5 -11t10.5 -26t-10.5 -26t-26.5 -11t-26.5 11t-10.5 26zM360 663q0 15 10.5 26t26.5 11q15 0 25.5 -11t10.5 -26t-10.5 -26t-25.5 -11q-16 0 -26.5 11t-10.5 26zM314 550q46 0 84 -12.5t67.5 -35t50.5 -53.5t31 -68v162h45v-543h-45
v162q-10 -37 -31 -68t-50.5 -53.5t-67.5 -35t-84 -12.5q-57 0 -104.5 19t-82 55t-53.5 88t-19 117t19 116.5t53.5 87.5t82 55t104.5 19zM324 510q-51 0 -92 -16.5t-70.5 -47t-45 -74.5t-15.5 -100t15.5 -100.5t45 -75t70.5 -47t92 -16.5q48 0 89 17t71 48t46.5 75.5
t16.5 98.5t-16.5 98t-46.5 75t-71 48t-89 17z" />
    <glyph glyph-name="aring" unicode="&#xe5;" 
d="M324 803q39 0 67 -25t28 -70t-28 -70.5t-67 -25.5t-67.5 25.5t-28.5 70.5t28.5 70t67.5 25zM324 776q-29 0 -48 -18t-19 -50t19 -50.5t48 -18.5t48 18.5t19 50.5t-19 50t-48 18zM314 550q46 0 84 -12.5t67.5 -35t50.5 -53.5t31 -68v162h45v-543h-45v162q-10 -37 -31 -68
t-50.5 -53.5t-67.5 -35t-84 -12.5q-57 0 -104.5 19t-82 55t-53.5 88t-19 117t19 116.5t53.5 87.5t82 55t104.5 19zM324 510q-51 0 -92 -16.5t-70.5 -47t-45 -74.5t-15.5 -100t15.5 -100.5t45 -75t70.5 -47t92 -16.5q48 0 89 17t71 48t46.5 75.5t16.5 98.5t-16.5 98t-46.5 75
t-71 48t-89 17z" />
    <glyph glyph-name="ae" unicode="&#xe6;" horiz-adv-x="1125" 
d="M813 31q83 0 139.5 41t69.5 114h46q-7 -42 -26.5 -77.5t-51 -61t-74 -40t-93.5 -14.5q-41 0 -78 10.5t-67.5 32t-52.5 53.5t-33 74v-163h-45v162q-10 -37 -31 -68t-50.5 -53.5t-67.5 -35t-84 -12.5q-57 0 -104.5 19t-82 55t-53.5 88t-19 117t19 116.5t53.5 87.5t82 55
t104.5 19q46 0 84 -12.5t67.5 -35t50.5 -53.5t31 -68v162h45v-163q10 42 32 74t52.5 53t68 32t78.5 11q61 0 107 -20t77 -53.5t47 -76.5t16 -88q0 -19 -1 -29.5t-3 -23.5h-473q2 -59 20.5 -102t49 -71t69.5 -41.5t81 -13.5zM814 513q-42 0 -81 -13t-70 -41t-50 -71t-20 -102
h433q3 59 -14 102t-47 71t-69.5 41t-81.5 13zM324 33q48 0 89 17t71 48t46.5 75.5t16.5 98.5t-16.5 98t-46.5 75t-71 48t-89 17q-51 0 -92 -16.5t-70.5 -47t-45 -74.5t-15.5 -100t15.5 -100.5t45 -75t70.5 -47t92 -16.5z" />
    <glyph glyph-name="ccedilla" unicode="&#xe7;" horiz-adv-x="626" 
d="M318 33q81 0 137.5 41.5t68.5 114.5h47q-7 -43 -27 -78.5t-51.5 -61.5t-74 -40.5t-93.5 -15.5v-74q60 3 93.5 -18.5t33.5 -66.5q0 -42 -29.5 -66t-82.5 -24h-77v31h72q45 0 63 17t18 43q0 23 -18 39t-63 16h-43v104q-52 4 -95.5 25t-75 56.5t-49 85t-17.5 111.5
q0 65 19.5 116.5t55 87.5t84 55t105.5 19q53 0 96 -14.5t75.5 -40t53 -61.5t27.5 -79h-47q-12 73 -68.5 114.5t-137.5 41.5q-42 0 -81.5 -14t-69.5 -43.5t-48 -74.5t-18 -107t18 -107t48 -74.5t69.5 -43.5t81.5 -14z" />
    <glyph glyph-name="egrave" unicode="&#xe8;" horiz-adv-x="627" 
d="M395 590l-144 103l17 26l139 -107zM317 31q82 0 138 41.5t68 113.5h47q-7 -42 -27.5 -77.5t-52.5 -61t-75 -40t-96 -14.5q-57 0 -105.5 19t-84 55t-55 87.5t-19.5 117.5q0 65 19.5 116.5t55 87.5t84 55t105.5 19q62 0 109 -20t79 -53.5t48.5 -76.5t16.5 -88
q0 -19 -1.5 -29.5t-3.5 -23.5h-467q1 -60 19.5 -103t48.5 -70.5t69 -41t80 -13.5zM319 513q-42 0 -81.5 -13.5t-69.5 -41t-48.5 -70.5t-19.5 -102h428q3 59 -14 102t-46.5 71t-68.5 41t-80 13z" />
    <glyph glyph-name="eacute" unicode="&#xe9;" horiz-adv-x="627" 
d="M252 596l-14 20l152 99l15 -30zM317 31q82 0 138 41.5t68 113.5h47q-7 -42 -27.5 -77.5t-52.5 -61t-75 -40t-96 -14.5q-57 0 -105.5 19t-84 55t-55 87.5t-19.5 117.5q0 65 19.5 116.5t55 87.5t84 55t105.5 19q62 0 109 -20t79 -53.5t48.5 -76.5t16.5 -88
q0 -19 -1.5 -29.5t-3.5 -23.5h-467q1 -60 19.5 -103t48.5 -70.5t69 -41t80 -13.5zM319 513q-42 0 -81.5 -13.5t-69.5 -41t-48.5 -70.5t-19.5 -102h428q3 59 -14 102t-46.5 71t-68.5 41t-80 13z" />
    <glyph glyph-name="ecircumflex" unicode="&#xea;" horiz-adv-x="627" 
d="M201 598l-14 22l126 80l124 -80l-13 -23l-111 71zM317 31q82 0 138 41.5t68 113.5h47q-7 -42 -27.5 -77.5t-52.5 -61t-75 -40t-96 -14.5q-57 0 -105.5 19t-84 55t-55 87.5t-19.5 117.5q0 65 19.5 116.5t55 87.5t84 55t105.5 19q62 0 109 -20t79 -53.5t48.5 -76.5
t16.5 -88q0 -19 -1.5 -29.5t-3.5 -23.5h-467q1 -60 19.5 -103t48.5 -70.5t69 -41t80 -13.5zM319 513q-42 0 -81.5 -13.5t-69.5 -41t-48.5 -70.5t-19.5 -102h428q3 59 -14 102t-46.5 71t-68.5 41t-80 13z" />
    <glyph glyph-name="edieresis" unicode="&#xeb;" horiz-adv-x="627" 
d="M241 626q-16 0 -26.5 11t-10.5 26t10.5 26t26.5 11t26.5 -11t10.5 -26t-10.5 -26t-26.5 -11zM387 626q-16 0 -26.5 11t-10.5 26t10.5 26t26.5 11q15 0 25.5 -11t10.5 -26t-10.5 -26t-25.5 -11zM317 31q82 0 138 41.5t68 113.5h47q-7 -42 -27.5 -77.5t-52.5 -61t-75 -40
t-96 -14.5q-57 0 -105.5 19t-84 55t-55 87.5t-19.5 117.5q0 65 19.5 116.5t55 87.5t84 55t105.5 19q62 0 109 -20t79 -53.5t48.5 -76.5t16.5 -88q0 -19 -1.5 -29.5t-3.5 -23.5h-467q1 -60 19.5 -103t48.5 -70.5t69 -41t80 -13.5zM319 513q-42 0 -81.5 -13.5t-69.5 -41
t-48.5 -70.5t-19.5 -102h428q3 59 -14 102t-46.5 71t-68.5 41t-80 13z" />
    <glyph glyph-name="igrave" unicode="&#xec;" horiz-adv-x="213" 
d="M200 612l-12 -22l-144 103l17 26zM129 543v-543h-45v543h45z" />
    <glyph glyph-name="iacute" unicode="&#xed;" horiz-adv-x="213" 
d="M198 685l-153 -89l-14 20l152 99zM129 543v-543h-45v543h45z" />
    <glyph glyph-name="icircumflex" unicode="&#xee;" horiz-adv-x="213" 
d="M106 668l-112 -70l-14 22l126 80l124 -80l-13 -23zM129 543v-543h-45v543h45z" />
    <glyph glyph-name="idieresis" unicode="&#xef;" horiz-adv-x="213" 
d="M-3 663q0 15 10.5 26t26.5 11t26.5 -11t10.5 -26t-10.5 -26t-26.5 -11t-26.5 11t-10.5 26zM143 663q0 15 10.5 26t26.5 11q15 0 25.5 -11t10.5 -26t-10.5 -26t-25.5 -11q-16 0 -26.5 11t-10.5 26zM129 543v-543h-45v543h45z" />
    <glyph glyph-name="eth" unicode="&#xf0;" horiz-adv-x="645" 
d="M433 673q81 -81 119 -169.5t38 -195.5q0 -79 -20 -138t-55 -98.5t-84 -59t-107 -19.5q-62 0 -111.5 21.5t-84.5 60t-54 92.5t-19 119q0 60 19 109.5t53.5 85t83.5 54.5t109 19q38 0 73 -10.5t65 -32t53 -55t36 -79.5q-13 83 -45.5 150.5t-99.5 134.5l-148 -53v25l129 46
q-16 14 -33 29t-37 31h43q16 -12 30 -24.5t28 -24.5l140 49v-24zM324 33q46 0 86 16t70 46.5t47 75t17 101.5q0 59 -17.5 104t-48 76t-70.5 46.5t-85 15.5q-47 0 -87.5 -15t-70.5 -43.5t-47 -71t-17 -98.5q0 -61 16.5 -108t46.5 -79t71 -49t89 -17z" />
    <glyph glyph-name="ntilde" unicode="&#xf1;" horiz-adv-x="624" 
d="M256 652q-35 0 -41 -47h-27q5 36 22.5 56t46.5 20q19 0 32 -7.5t24.5 -17t24 -17t29.5 -7.5q15 0 27.5 11.5t15.5 34.5h27q-3 -33 -22.5 -53.5t-48.5 -20.5q-20 0 -34 7.5t-25.5 16.5t-23.5 16.5t-27 7.5zM333 554q45 0 84.5 -14t68.5 -43t46 -73.5t17 -106.5v-317h-45
v315q0 100 -50 150.5t-133 50.5q-42 0 -78 -14t-62 -42t-40.5 -70.5t-14.5 -100.5v-289h-45v543h45v-143q11 40 31.5 69t48 48t60 28t67.5 9z" />
    <glyph glyph-name="ograve" unicode="&#xf2;" horiz-adv-x="646" 
d="M417 612l-12 -22l-144 103l17 26zM323 550q57 0 106 -19t85 -55t56.5 -87.5t20.5 -116.5q0 -66 -20.5 -117.5t-56.5 -87.5t-85 -55t-106 -19t-106 19t-85 55t-56.5 87.5t-20.5 117.5q0 65 20.5 116.5t56.5 87.5t85 55t106 19zM323 510q-42 0 -82 -14t-71 -43t-50 -74
t-19 -107t19 -107t50 -74.5t71 -43.5t82 -14q43 0 83 14t71 43.5t49.5 74.5t18.5 107t-18.5 107t-49.5 74t-71 43t-83 14z" />
    <glyph glyph-name="oacute" unicode="&#xf3;" horiz-adv-x="646" 
d="M415 685l-153 -89l-14 20l152 99zM323 550q57 0 106 -19t85 -55t56.5 -87.5t20.5 -116.5q0 -66 -20.5 -117.5t-56.5 -87.5t-85 -55t-106 -19t-106 19t-85 55t-56.5 87.5t-20.5 117.5q0 65 20.5 116.5t56.5 87.5t85 55t106 19zM323 510q-42 0 -82 -14t-71 -43t-50 -74
t-19 -107t19 -107t50 -74.5t71 -43.5t82 -14q43 0 83 14t71 43.5t49.5 74.5t18.5 107t-18.5 107t-49.5 74t-71 43t-83 14z" />
    <glyph glyph-name="ocircumflex" unicode="&#xf4;" horiz-adv-x="646" 
d="M323 668l-112 -70l-14 22l126 80l124 -80l-13 -23zM323 550q57 0 106 -19t85 -55t56.5 -87.5t20.5 -116.5q0 -66 -20.5 -117.5t-56.5 -87.5t-85 -55t-106 -19t-106 19t-85 55t-56.5 87.5t-20.5 117.5q0 65 20.5 116.5t56.5 87.5t85 55t106 19zM323 510q-42 0 -82 -14
t-71 -43t-50 -74t-19 -107t19 -107t50 -74.5t71 -43.5t82 -14q43 0 83 14t71 43.5t49.5 74.5t18.5 107t-18.5 107t-49.5 74t-71 43t-83 14z" />
    <glyph glyph-name="otilde" unicode="&#xf5;" horiz-adv-x="646" 
d="M268 681q19 0 32 -7.5t24.5 -17t24 -17t29.5 -7.5q15 0 27.5 11.5t15.5 34.5h27q-3 -33 -22.5 -53.5t-48.5 -20.5q-20 0 -34 7.5t-25.5 16.5t-23.5 16.5t-27 7.5q-35 0 -41 -47h-27q5 36 22.5 56t46.5 20zM323 550q57 0 106 -19t85 -55t56.5 -87.5t20.5 -116.5
q0 -66 -20.5 -117.5t-56.5 -87.5t-85 -55t-106 -19t-106 19t-85 55t-56.5 87.5t-20.5 117.5q0 65 20.5 116.5t56.5 87.5t85 55t106 19zM323 510q-42 0 -82 -14t-71 -43t-50 -74t-19 -107t19 -107t50 -74.5t71 -43.5t82 -14q43 0 83 14t71 43.5t49.5 74.5t18.5 107t-18.5 107
t-49.5 74t-71 43t-83 14z" />
    <glyph glyph-name="odieresis" unicode="&#xf6;" horiz-adv-x="646" 
d="M213 663q0 15 10.5 26t26.5 11t26.5 -11t10.5 -26t-10.5 -26t-26.5 -11t-26.5 11t-10.5 26zM359 663q0 15 10.5 26t26.5 11q15 0 25.5 -11t10.5 -26t-10.5 -26t-25.5 -11q-16 0 -26.5 11t-10.5 26zM323 550q57 0 106 -19t85 -55t56.5 -87.5t20.5 -116.5
q0 -66 -20.5 -117.5t-56.5 -87.5t-85 -55t-106 -19t-106 19t-85 55t-56.5 87.5t-20.5 117.5q0 65 20.5 116.5t56.5 87.5t85 55t106 19zM323 510q-42 0 -82 -14t-71 -43t-50 -74t-19 -107t19 -107t50 -74.5t71 -43.5t82 -14q43 0 83 14t71 43.5t49.5 74.5t18.5 107t-18.5 107
t-49.5 74t-71 43t-83 14z" />
    <glyph glyph-name="divide" unicode="&#xf7;" horiz-adv-x="584" 
d="M328 626v-69h-71v69h71zM547 396v-41h-509v41h509zM328 196v-69h-71v69h71z" />
    <glyph glyph-name="oslash" unicode="&#xf8;" horiz-adv-x="644" 
d="M520 470q33 -36 51.5 -85.5t18.5 -112.5q0 -66 -20.5 -117.5t-56.5 -87.5t-85 -55t-106 -19q-53 0 -98.5 16t-80.5 46l-50 -55h-33l66 72q-34 36 -53 86.5t-19 113.5q0 65 20.5 116.5t56.5 87.5t85 55t106 19q54 0 100 -16t81 -48l51 57h32zM100 272q0 -55 14.5 -96.5
t40.5 -70.5l319 350q-31 28 -70.5 41.5t-81.5 13.5t-82 -14t-71 -43t-50 -74t-19 -107zM322 33q43 0 83 14t71 43.5t49.5 74.5t18.5 107q0 54 -14.5 95.5t-39.5 70.5l-318 -351q31 -28 69.5 -41t80.5 -13z" />
    <glyph glyph-name="ugrave" unicode="&#xf9;" horiz-adv-x="611" 
d="M388 590l-144 103l17 26l139 -107zM531 543v-543h-46v142q-10 -39 -31 -68t-48.5 -48t-60 -28t-67.5 -9q-45 0 -84 14t-68 43t-46 74t-17 107v316h44v-315q0 -100 50 -150t133 -50q43 0 78.5 13.5t61.5 41.5t40.5 71t14.5 101v288h46z" />
    <glyph glyph-name="uacute" unicode="&#xfa;" horiz-adv-x="611" 
d="M245 596l-14 20l152 99l15 -30zM531 543v-543h-46v142q-10 -39 -31 -68t-48.5 -48t-60 -28t-67.5 -9q-45 0 -84 14t-68 43t-46 74t-17 107v316h44v-315q0 -100 50 -150t133 -50q43 0 78.5 13.5t61.5 41.5t40.5 71t14.5 101v288h46z" />
    <glyph glyph-name="ucircumflex" unicode="&#xfb;" horiz-adv-x="611" 
d="M194 598l-14 22l126 80l124 -80l-13 -23l-111 71zM531 543v-543h-46v142q-10 -39 -31 -68t-48.5 -48t-60 -28t-67.5 -9q-45 0 -84 14t-68 43t-46 74t-17 107v316h44v-315q0 -100 50 -150t133 -50q43 0 78.5 13.5t61.5 41.5t40.5 71t14.5 101v288h46z" />
    <glyph glyph-name="udieresis" unicode="&#xfc;" horiz-adv-x="611" 
d="M224 626q-16 0 -26.5 11t-10.5 26t10.5 26t26.5 11t26.5 -11t10.5 -26t-10.5 -26t-26.5 -11zM370 626q-16 0 -26.5 11t-10.5 26t10.5 26t26.5 11q15 0 25.5 -11t10.5 -26t-10.5 -26t-25.5 -11zM531 543v-543h-46v142q-10 -39 -31 -68t-48.5 -48t-60 -28t-67.5 -9
q-45 0 -84 14t-68 43t-46 74t-17 107v316h44v-315q0 -100 50 -150t133 -50q43 0 78.5 13.5t61.5 41.5t40.5 71t14.5 101v288h46z" />
    <glyph glyph-name="yacute" unicode="&#xfd;" horiz-adv-x="525" 
d="M355 685l-153 -89l-14 20l152 99zM66 543l204 -483l189 483h50l-315 -799h-52l104 259l-230 540h50z" />
    <glyph glyph-name="thorn" unicode="&#xfe;" 
d="M356 550q57 0 105 -19.5t82.5 -55.5t54 -87.5t19.5 -116.5q0 -64 -19.5 -115.5t-54 -87.5t-82.5 -55.5t-105 -19.5q-90 0 -149.5 46.5t-81.5 120.5v-416h-44v996h44v-355q11 36 31.5 66.5t50 52t67 34t82.5 12.5zM349 510q-48 0 -89 -17t-71 -48t-47 -75t-17 -98
q0 -55 17 -99t47 -75t71 -48t89 -17q50 0 91 16t70.5 46.5t45.5 75t16 100.5t-16 100.5t-45.5 75.5t-70.5 47t-91 16z" />
    <glyph glyph-name="ydieresis" unicode="&#xff;" horiz-adv-x="525" 
d="M153 663q0 15 10.5 26t26.5 11t26.5 -11t10.5 -26t-10.5 -26t-26.5 -11t-26.5 11t-10.5 26zM299 663q0 15 10.5 26t26.5 11q15 0 25.5 -11t10.5 -26t-10.5 -26t-25.5 -11q-16 0 -26.5 11t-10.5 26zM66 543l204 -483l189 483h50l-315 -799h-52l104 259l-230 540h50z" />
    <glyph glyph-name="Amacron" unicode="&#x100;" horiz-adv-x="623" 
d="M474 816h-325v35h325v-35zM479 183h-334l-69 -183h-50l261 686h50l259 -686h-49zM465 220l-153 411l-154 -411h307z" />
    <glyph glyph-name="amacron" unicode="&#x101;" 
d="M486 689v-35h-325v35h325zM314 550q46 0 84 -12.5t67.5 -35t50.5 -53.5t31 -68v162h45v-543h-45v162q-10 -37 -31 -68t-50.5 -53.5t-67.5 -35t-84 -12.5q-57 0 -104.5 19t-82 55t-53.5 88t-19 117t19 116.5t53.5 87.5t82 55t104.5 19zM324 510q-51 0 -92 -16.5t-70.5 -47
t-45 -74.5t-15.5 -100t15.5 -100.5t45 -75t70.5 -47t92 -16.5q48 0 89 17t71 48t46.5 75.5t16.5 98.5t-16.5 98t-46.5 75t-71 48t-89 17z" />
    <glyph glyph-name="Abreve" unicode="&#x102;" horiz-adv-x="623" 
d="M312 776q-32 0 -55 9.5t-38 25.5t-22.5 36t-7.5 41v5h29q0 -41 24 -63t70 -22t70.5 22t24.5 63h28v-5q0 -21 -7.5 -41t-22.5 -36t-38 -25.5t-55 -9.5zM479 183h-334l-69 -183h-50l261 686h50l259 -686h-49zM465 220l-153 411l-154 -411h307z" />
    <glyph glyph-name="abreve" unicode="&#x103;" 
d="M337 614q-32 0 -55 9.5t-38 25.5t-22.5 36t-7.5 41v5h29q0 -41 24 -63t70 -22t70.5 22t24.5 63h28v-5q0 -21 -7.5 -41t-22.5 -36t-38 -25.5t-55 -9.5zM314 550q46 0 84 -12.5t67.5 -35t50.5 -53.5t31 -68v162h45v-543h-45v162q-10 -37 -31 -68t-50.5 -53.5t-67.5 -35
t-84 -12.5q-57 0 -104.5 19t-82 55t-53.5 88t-19 117t19 116.5t53.5 87.5t82 55t104.5 19zM324 510q-51 0 -92 -16.5t-70.5 -47t-45 -74.5t-15.5 -100t15.5 -100.5t45 -75t70.5 -47t92 -16.5q48 0 89 17t71 48t46.5 75.5t16.5 98.5t-16.5 98t-46.5 75t-71 48t-89 17z" />
    <glyph glyph-name="Aogonek" unicode="&#x104;" horiz-adv-x="623" 
d="M636 -162v-32h-80q-57 0 -88.5 27t-31.5 72q0 38 26 64.5t85 31.5l-68 182h-334l-69 -183h-50l261 686h50l259 -684v-29h-37q-41 0 -64 -17.5t-23 -49.5t23 -50t64 -18h77zM465 220l-153 408l-153 -408h306z" />
    <glyph glyph-name="aogonek" unicode="&#x105;" 
d="M632 -161v-31h-81q-57 0 -88 27t-31 71q0 43 30.5 70.5t84.5 28.5v157q-10 -37 -31 -68t-50.5 -53.5t-67.5 -35t-84 -12.5q-57 0 -104.5 19t-82 55t-53.5 88t-19 117t19 116.5t53.5 87.5t82 55t104.5 19q46 0 84 -12.5t67.5 -35t50.5 -53.5t31 -68v162h45v-543h-1v-25
h-37q-40 0 -63 -18t-23 -50t23 -50t63 -18h78zM324 33q48 0 89 17t71 48t46.5 75.5t16.5 98.5t-16.5 98t-46.5 75t-71 48t-89 17q-51 0 -92 -16.5t-70.5 -47t-45 -74.5t-15.5 -100t15.5 -100.5t45 -75t70.5 -47t92 -16.5z" />
    <glyph glyph-name="Cacute" unicode="&#x106;" horiz-adv-x="767" 
d="M476 847l-153 -89l-14 20l152 99zM387 712q128 0 209 -61t115 -162h-47q-14 39 -38.5 72t-59.5 57.5t-79.5 38t-99.5 13.5q-60 0 -111.5 -22t-90 -63t-60.5 -100t-22 -133t22 -132.5t60.5 -99.5t90 -63t111.5 -22q55 0 99.5 13.5t79.5 37.5t59.5 57t38.5 72h47
q-34 -100 -115 -161t-209 -61q-73 0 -133.5 26.5t-104.5 74t-68.5 113.5t-24.5 145t24.5 145t68.5 114t104.5 74.5t133.5 26.5z" />
    <glyph glyph-name="cacute" unicode="&#x107;" horiz-adv-x="626" 
d="M405 685l-153 -89l-14 20l152 99zM319 550q53 0 96 -14.5t75.5 -40t53 -61.5t27.5 -79h-47q-12 73 -68.5 114.5t-137.5 41.5q-42 0 -81.5 -14t-69.5 -43.5t-48 -74.5t-18 -107t18 -107t48 -74.5t69.5 -43.5t81.5 -14q81 0 137.5 41.5t68.5 114.5h47q-7 -43 -27.5 -79.5
t-53 -62t-75.5 -40t-96 -14.5q-57 0 -105.5 19t-84 55t-55 87.5t-19.5 117.5q0 65 19.5 116.5t55 87.5t84 55t105.5 19z" />
    <glyph glyph-name="Cdotaccent" unicode="&#x10a;" horiz-adv-x="767" 
d="M346 825q0 15 11 26t26 11q16 0 26.5 -11t10.5 -26t-10.5 -26t-26.5 -11q-15 0 -26 11t-11 26zM387 712q128 0 209 -61t115 -162h-47q-14 39 -38.5 72t-59.5 57.5t-79.5 38t-99.5 13.5q-60 0 -111.5 -22t-90 -63t-60.5 -100t-22 -133t22 -132.5t60.5 -99.5t90 -63
t111.5 -22q55 0 99.5 13.5t79.5 37.5t59.5 57t38.5 72h47q-34 -100 -115 -161t-209 -61q-73 0 -133.5 26.5t-104.5 74t-68.5 113.5t-24.5 145t24.5 145t68.5 114t104.5 74.5t133.5 26.5z" />
    <glyph glyph-name="cdotaccent" unicode="&#x10b;" horiz-adv-x="626" 
d="M275 663q0 15 11 26t26 11q16 0 26.5 -11t10.5 -26t-10.5 -26t-26.5 -11q-15 0 -26 11t-11 26zM319 550q53 0 96 -14.5t75.5 -40t53 -61.5t27.5 -79h-47q-12 73 -68.5 114.5t-137.5 41.5q-42 0 -81.5 -14t-69.5 -43.5t-48 -74.5t-18 -107t18 -107t48 -74.5t69.5 -43.5
t81.5 -14q81 0 137.5 41.5t68.5 114.5h47q-7 -43 -27.5 -79.5t-53 -62t-75.5 -40t-96 -14.5q-57 0 -105.5 19t-84 55t-55 87.5t-19.5 117.5q0 65 19.5 116.5t55 87.5t84 55t105.5 19z" />
    <glyph glyph-name="Ccaron" unicode="&#x10c;" horiz-adv-x="767" 
d="M513 857l-128 -81l-130 81v36l130 -82l128 82v-36zM387 712q128 0 209 -61t115 -162h-47q-14 39 -38.5 72t-59.5 57.5t-79.5 38t-99.5 13.5q-60 0 -111.5 -22t-90 -63t-60.5 -100t-22 -133t22 -132.5t60.5 -99.5t90 -63t111.5 -22q55 0 99.5 13.5t79.5 37.5t59.5 57
t38.5 72h47q-34 -100 -115 -161t-209 -61q-73 0 -133.5 26.5t-104.5 74t-68.5 113.5t-24.5 145t24.5 145t68.5 114t104.5 74.5t133.5 26.5z" />
    <glyph glyph-name="ccaron" unicode="&#x10d;" horiz-adv-x="626" 
d="M442 695l-128 -81l-130 81v36l130 -82l128 82v-36zM319 550q53 0 96 -14.5t75.5 -40t53 -61.5t27.5 -79h-47q-12 73 -68.5 114.5t-137.5 41.5q-42 0 -81.5 -14t-69.5 -43.5t-48 -74.5t-18 -107t18 -107t48 -74.5t69.5 -43.5t81.5 -14q81 0 137.5 41.5t68.5 114.5h47
q-7 -43 -27.5 -79.5t-53 -62t-75.5 -40t-96 -14.5q-57 0 -105.5 19t-84 55t-55 87.5t-19.5 117.5q0 65 19.5 116.5t55 87.5t84 55t105.5 19z" />
    <glyph glyph-name="Dcaron" unicode="&#x10e;" horiz-adv-x="707" 
d="M495 857l-128 -81l-130 81v36l130 -82l128 82v-36zM651 353q0 -82 -24 -147.5t-71 -111.5t-116.5 -70t-160.5 -24h-198v705h198q91 0 160.5 -24t116.5 -69.5t71 -111t24 -147.5zM277 41q164 0 246 83.5t82 228.5t-82 228.5t-246 83.5h-151v-624h151z" />
    <glyph glyph-name="dcaron" unicode="&#x10f;" horiz-adv-x="697" 
d="M314 550q46 0 84 -12.5t67.5 -35t50.5 -53.5t31 -68v359h45v-740h-45v162q-10 -37 -31 -68t-50.5 -53.5t-67.5 -35t-84 -12.5q-57 0 -104.5 19t-82 55t-53.5 88t-19 117t19 116.5t53.5 87.5t82 55t104.5 19zM717 740q6 -46 6 -77q0 -51 -21 -70.5t-58 -19.5v27
q26 0 36 12.5t10 36.5v26h-42v65h69zM324 510q-51 0 -92 -16.5t-70.5 -47t-45 -74.5t-15.5 -100t15.5 -100.5t45 -75t70.5 -47t92 -16.5q48 0 89 17t71 48t46.5 75.5t16.5 98.5t-16.5 98t-46.5 75t-71 48t-89 17z" />
    <glyph glyph-name="Dcroat" unicode="&#x110;" horiz-adv-x="742" 
d="M314 705q91 0 160.5 -24t116.5 -69.5t71 -111t24 -147.5t-24 -147.5t-71 -111.5t-116.5 -70t-160.5 -24h-198v334h-107v37h107v334h198zM312 41q164 0 246 83.5t82 228.5t-82 228.5t-246 83.5h-151v-294h220v-37h-220v-293h151z" />
    <glyph glyph-name="dcroat" unicode="&#x111;" horiz-adv-x="669" 
d="M655 608h-63v-608h-45v162q-10 -37 -31 -68t-50.5 -53.5t-67.5 -35t-84 -12.5q-57 0 -104.5 19t-82 55t-53.5 88t-19 117t19 116.5t53.5 87.5t82 55t104.5 19q46 0 84 -12.5t67.5 -35t50.5 -53.5t31 -68v227h-190v28h190v104h45v-104h63v-28zM324 33q48 0 89 17t71 48
t46.5 75.5t16.5 98.5t-16.5 98t-46.5 75t-71 48t-89 17q-51 0 -92 -16.5t-70.5 -47t-45 -74.5t-15.5 -100t15.5 -100.5t45 -75t70.5 -47t92 -16.5z" />
    <glyph glyph-name="Emacron" unicode="&#x112;" horiz-adv-x="489" 
d="M424 851v-35h-325v35h325zM126 667v-296h285v-36h-285v-297h315v-38h-360v705h360v-38h-315z" />
    <glyph glyph-name="emacron" unicode="&#x113;" horiz-adv-x="627" 
d="M476 654h-325v35h325v-35zM317 31q82 0 138 41.5t68 113.5h47q-7 -42 -27.5 -77.5t-52.5 -61t-75 -40t-96 -14.5q-57 0 -105.5 19t-84 55t-55 87.5t-19.5 117.5q0 65 19.5 116.5t55 87.5t84 55t105.5 19q62 0 109 -20t79 -53.5t48.5 -76.5t16.5 -88q0 -19 -1.5 -29.5
t-3.5 -23.5h-467q1 -60 19.5 -103t48.5 -70.5t69 -41t80 -13.5zM319 513q-42 0 -81.5 -13.5t-69.5 -41t-48.5 -70.5t-19.5 -102h428q3 59 -14 102t-46.5 71t-68.5 41t-80 13z" />
    <glyph glyph-name="Ebreve" unicode="&#x114;" horiz-adv-x="489" 
d="M245 776q-32 0 -55 9.5t-38 25.5t-22.5 36t-7.5 41v5h29q0 -41 24 -63t70 -22t70.5 22t24.5 63h28v-5q0 -21 -7.5 -41t-22.5 -36t-38 -25.5t-55 -9.5zM126 667v-296h285v-36h-285v-297h315v-38h-360v705h360v-38h-315z" />
    <glyph glyph-name="ebreve" unicode="&#x115;" horiz-adv-x="627" 
d="M313 614q-32 0 -55 9.5t-38 25.5t-22.5 36t-7.5 41v5h29q0 -41 24 -63t70 -22t70.5 22t24.5 63h28v-5q0 -21 -7.5 -41t-22.5 -36t-38 -25.5t-55 -9.5zM317 31q82 0 138 41.5t68 113.5h47q-7 -42 -27.5 -77.5t-52.5 -61t-75 -40t-96 -14.5q-57 0 -105.5 19t-84 55
t-55 87.5t-19.5 117.5q0 65 19.5 116.5t55 87.5t84 55t105.5 19q62 0 109 -20t79 -53.5t48.5 -76.5t16.5 -88q0 -19 -1.5 -29.5t-3.5 -23.5h-467q1 -60 19.5 -103t48.5 -70.5t69 -41t80 -13.5zM319 513q-42 0 -81.5 -13.5t-69.5 -41t-48.5 -70.5t-19.5 -102h428
q3 59 -14 102t-46.5 71t-68.5 41t-80 13z" />
    <glyph glyph-name="Edotaccent" unicode="&#x116;" horiz-adv-x="489" 
d="M223 825q0 15 11 26t26 11q16 0 26.5 -11t10.5 -26t-10.5 -26t-26.5 -11q-15 0 -26 11t-11 26zM126 667v-296h285v-36h-285v-297h315v-38h-360v705h360v-38h-315z" />
    <glyph glyph-name="edotaccent" unicode="&#x117;" horiz-adv-x="627" 
d="M313 626q-15 0 -26 11t-11 26t11 26t26 11q16 0 26.5 -11t10.5 -26t-10.5 -26t-26.5 -11zM317 31q82 0 138 41.5t68 113.5h47q-7 -42 -27.5 -77.5t-52.5 -61t-75 -40t-96 -14.5q-57 0 -105.5 19t-84 55t-55 87.5t-19.5 117.5q0 65 19.5 116.5t55 87.5t84 55t105.5 19
q62 0 109 -20t79 -53.5t48.5 -76.5t16.5 -88q0 -19 -1.5 -29.5t-3.5 -23.5h-467q1 -60 19.5 -103t48.5 -70.5t69 -41t80 -13.5zM319 513q-42 0 -81.5 -13.5t-69.5 -41t-48.5 -70.5t-19.5 -102h428q3 59 -14 102t-46.5 71t-68.5 41t-80 13z" />
    <glyph glyph-name="Eogonek" unicode="&#x118;" horiz-adv-x="489" 
d="M476 -151v-31h-81q-57 0 -88 27t-31 71q0 57 50 84h-245v705h360v-38h-315v-296h285v-36h-285v-297h315v-38h-6v-15h-37q-40 0 -63 -18t-23 -50t23 -50t63 -18h78z" />
    <glyph glyph-name="eogonek" unicode="&#x119;" horiz-adv-x="627" 
d="M317 31q82 0 138 41.5t68 113.5h47q-12 -76 -67 -127.5t-143 -62.5q-14 -2 -19 -8.5t-5 -17.5q0 -26 23 -42.5t65 -16.5h75v-32h-79q-57 0 -88 27t-31 71v17q-54 3 -99 23t-77.5 56t-51 86t-18.5 113q0 65 19.5 116.5t55 87.5t84 55t105.5 19q62 0 109 -20t79 -53.5
t48.5 -76.5t16.5 -88q0 -19 -1.5 -29.5t-3.5 -23.5h-467q1 -60 20 -103t49 -70.5t68.5 -41t79.5 -13.5zM319 513q-42 0 -81.5 -13.5t-69.5 -41t-48.5 -70.5t-19.5 -102h428q3 59 -14 102t-46.5 71t-68.5 41t-80 13z" />
    <glyph glyph-name="Ecaron" unicode="&#x11a;" horiz-adv-x="489" 
d="M390 857l-128 -81l-130 81v36l130 -82l128 82v-36zM126 667v-296h285v-36h-285v-297h315v-38h-360v705h360v-38h-315z" />
    <glyph glyph-name="ecaron" unicode="&#x11b;" horiz-adv-x="627" 
d="M315 614l-130 81v36l130 -82l128 82v-36zM317 31q82 0 138 41.5t68 113.5h47q-7 -42 -27.5 -77.5t-52.5 -61t-75 -40t-96 -14.5q-57 0 -105.5 19t-84 55t-55 87.5t-19.5 117.5q0 65 19.5 116.5t55 87.5t84 55t105.5 19q62 0 109 -20t79 -53.5t48.5 -76.5t16.5 -88
q0 -19 -1.5 -29.5t-3.5 -23.5h-467q1 -60 19.5 -103t48.5 -70.5t69 -41t80 -13.5zM319 513q-42 0 -81.5 -13.5t-69.5 -41t-48.5 -70.5t-19.5 -102h428q3 59 -14 102t-46.5 71t-68.5 41t-80 13z" />
    <glyph glyph-name="Gbreve" unicode="&#x11e;" horiz-adv-x="787" 
d="M394 776q-32 0 -55 9.5t-38 25.5t-22.5 36t-7.5 41v5h29q0 -41 24 -63t70 -22t70.5 22t24.5 63h28v-5q0 -21 -7.5 -41t-22.5 -36t-38 -25.5t-55 -9.5zM395 711q60 0 110.5 -16t90.5 -44.5t69 -69t45 -90.5h-47q-14 39 -39 71.5t-59 56t-77 37t-93 13.5q-61 0 -114.5 -22
t-93 -63t-62 -99.5t-22.5 -132.5q0 -75 23 -134t62.5 -100.5t93.5 -63t116 -21.5q59 0 111 20.5t91.5 58.5t63.5 93t27 125h-312v35h352v-34q-2 -73 -27.5 -135.5t-69.5 -107.5t-105 -70.5t-134 -25.5q-75 0 -137 26.5t-107 74.5t-70 114t-25 145t25 145t70 113.5t107 74
t137 26.5z" />
    <glyph glyph-name="gbreve" unicode="&#x11f;" 
d="M337 614q-32 0 -55 9.5t-38 25.5t-22.5 36t-7.5 41v5h29q0 -41 24 -63t70 -22t70.5 22t24.5 63h28v-5q0 -21 -7.5 -41t-22.5 -36t-38 -25.5t-55 -9.5zM314 550q46 0 84 -12.5t67.5 -35t50.5 -53.5t31 -68v162h45v-559q0 -58 -19.5 -104.5t-52.5 -78.5t-78 -49.5
t-96 -17.5q-105 0 -170 51t-87 133h44q20 -64 72.5 -104t138.5 -40q43 0 80 14t64.5 41t43 66t15.5 89v178q-10 -37 -31 -68t-50.5 -53.5t-67.5 -35t-84 -12.5q-57 0 -104.5 19t-82 55t-53.5 88t-19 117t19 116.5t53.5 87.5t82 55t104.5 19zM324 510q-51 0 -92 -16.5
t-70.5 -47t-45 -74.5t-15.5 -100t15.5 -100.5t45 -75t70.5 -47t92 -16.5q48 0 89 17t71 48t46.5 75.5t16.5 98.5t-16.5 98t-46.5 75t-71 48t-89 17z" />
    <glyph glyph-name="Gdotaccent" unicode="&#x120;" horiz-adv-x="787" 
d="M356 825q0 15 11 26t26 11q16 0 26.5 -11t10.5 -26t-10.5 -26t-26.5 -11q-15 0 -26 11t-11 26zM395 711q60 0 110.5 -16t90.5 -44.5t69 -69t45 -90.5h-47q-14 39 -39 71.5t-59 56t-77 37t-93 13.5q-61 0 -114.5 -22t-93 -63t-62 -99.5t-22.5 -132.5q0 -75 23 -134
t62.5 -100.5t93.5 -63t116 -21.5q59 0 111 20.5t91.5 58.5t63.5 93t27 125h-312v35h352v-34q-2 -73 -27.5 -135.5t-69.5 -107.5t-105 -70.5t-134 -25.5q-75 0 -137 26.5t-107 74.5t-70 114t-25 145t25 145t70 113.5t107 74t137 26.5z" />
    <glyph glyph-name="gdotaccent" unicode="&#x121;" 
d="M286 663q0 15 11 26t26 11q16 0 26.5 -11t10.5 -26t-10.5 -26t-26.5 -11q-15 0 -26 11t-11 26zM314 550q46 0 84 -12.5t67.5 -35t50.5 -53.5t31 -68v162h45v-559q0 -58 -19.5 -104.5t-52.5 -78.5t-78 -49.5t-96 -17.5q-105 0 -170 51t-87 133h44q20 -64 72.5 -104
t138.5 -40q43 0 80 14t64.5 41t43 66t15.5 89v178q-10 -37 -31 -68t-50.5 -53.5t-67.5 -35t-84 -12.5q-57 0 -104.5 19t-82 55t-53.5 88t-19 117t19 116.5t53.5 87.5t82 55t104.5 19zM324 510q-51 0 -92 -16.5t-70.5 -47t-45 -74.5t-15.5 -100t15.5 -100.5t45 -75t70.5 -47
t92 -16.5q48 0 89 17t71 48t46.5 75.5t16.5 98.5t-16.5 98t-46.5 75t-71 48t-89 17z" />
    <glyph glyph-name="Gcommaaccent" unicode="&#x122;" horiz-adv-x="788" 
d="M395 711q60 0 110.5 -16t90.5 -44.5t69 -69t45 -90.5h-47q-14 39 -39 71.5t-59 56t-77 37t-93 13.5q-61 0 -114.5 -22t-93 -63t-62 -99.5t-22.5 -132.5q0 -75 23 -134t62.5 -100.5t93.5 -63t116 -21.5q59 0 111 20.5t91.5 58.5t63.5 93t27 125h-312v35h352v-34
q-2 -73 -27.5 -135.5t-69.5 -107.5t-105 -70.5t-134 -25.5q-75 0 -137 26.5t-107 74.5t-70 114t-25 145t25 145t70 113.5t107 74t137 26.5zM431 -56q5 -23 5 -44q0 -56 -21 -76.5t-56 -20.5v25q24 0 34 15t10 42v7h-36v52h64z" />
    <glyph glyph-name="gcommaaccent" unicode="&#x123;" 
d="M293 594q-4 23 -5.5 42t-1.5 35q0 51 21 70.5t58 19.5v-27q-26 0 -36 -12.5t-10 -36.5v-26h42v-65h-68zM314 550q46 0 84 -12.5t67.5 -35t50.5 -53.5t31 -68v162h45v-559q0 -58 -19.5 -104.5t-52.5 -78.5t-78 -49.5t-96 -17.5q-105 0 -170 51t-87 133h44
q20 -64 72.5 -104t138.5 -40q43 0 80 14t64.5 41t43 66t15.5 89v178q-10 -37 -31 -68t-50.5 -53.5t-67.5 -35t-84 -12.5q-57 0 -104.5 19t-82 55t-53.5 88t-19 117t19 116.5t53.5 87.5t82 55t104.5 19zM324 510q-51 0 -92 -16.5t-70.5 -47t-45 -74.5t-15.5 -100t15.5 -100.5
t45 -75t70.5 -47t92 -16.5q48 0 89 17t71 48t46.5 75.5t16.5 98.5t-16.5 98t-46.5 75t-71 48t-89 17z" />
    <glyph glyph-name="Itilde" unicode="&#x128;" horiz-adv-x="207" 
d="M48 843q19 0 32 -7.5t24.5 -17t24 -17t29.5 -7.5q15 0 27.5 11.5t15.5 34.5h27q-3 -33 -22.5 -53.5t-48.5 -20.5q-20 0 -34 7.5t-25.5 16.5t-23.5 16.5t-27 7.5q-35 0 -41 -47h-27q5 36 22.5 56t46.5 20zM126 705v-705h-45v705h45z" />
    <glyph glyph-name="itilde" unicode="&#x129;" horiz-adv-x="213" 
d="M51 681q19 0 32 -7.5t24.5 -17t24 -17t29.5 -7.5q15 0 27.5 11.5t15.5 34.5h27q-3 -33 -22.5 -53.5t-48.5 -20.5q-20 0 -34 7.5t-25.5 16.5t-23.5 16.5t-27 7.5q-35 0 -41 -47h-27q5 36 22.5 56t46.5 20zM129 543v-543h-45v543h45z" />
    <glyph glyph-name="Imacron" unicode="&#x12a;" horiz-adv-x="207" 
d="M266 851v-35h-325v35h325zM126 705v-705h-45v705h45z" />
    <glyph glyph-name="imacron" unicode="&#x12b;" horiz-adv-x="213" 
d="M269 689v-35h-325v35h325zM129 543v-543h-45v543h45z" />
    <glyph glyph-name="Ibreve" unicode="&#x12c;" horiz-adv-x="207" 
d="M103 776q-32 0 -55 9.5t-38 25.5t-22.5 36t-7.5 41v5h29q0 -41 24 -63t70 -22t70.5 22t24.5 63h28v-5q0 -21 -7.5 -41t-22.5 -36t-38 -25.5t-55 -9.5zM126 705v-705h-45v705h45z" />
    <glyph glyph-name="ibreve" unicode="&#x12d;" horiz-adv-x="213" 
d="M106 614q-32 0 -55 9.5t-38 25.5t-22.5 36t-7.5 41v5h29q0 -41 24 -63t70 -22t70.5 22t24.5 63h28v-5q0 -21 -7.5 -41t-22.5 -36t-38 -25.5t-55 -9.5zM129 543v-543h-45v543h45z" />
    <glyph glyph-name="Iogonek" unicode="&#x12e;" horiz-adv-x="207" 
d="M167 -161v-31h-81q-57 0 -88 27t-31 71q0 43 30 70.5t84 28.5v700h45v-730h-37q-40 0 -63 -18t-23 -50t23 -50t63 -18h78z" />
    <glyph glyph-name="iogonek" unicode="&#x12f;" horiz-adv-x="207" 
d="M103 669q-17 0 -27.5 10.5t-10.5 27.5t10.5 27t27.5 10t28 -10t11 -27t-11 -27.5t-28 -10.5zM167 -161v-31h-81q-57 0 -88 27t-31 71q0 43 30 70.5t84 28.5v538h45v-568h-37q-40 0 -63 -18t-23 -50t23 -50t63 -18h78z" />
    <glyph glyph-name="Idotaccent" unicode="&#x130;" horiz-adv-x="207" 
d="M66 825q0 15 11 26t26 11q16 0 26.5 -11t10.5 -26t-10.5 -26t-26.5 -11q-15 0 -26 11t-11 26zM126 705v-705h-45v705h45z" />
    <glyph glyph-name="dotlessi" unicode="&#x131;" horiz-adv-x="213" 
d="M129 543v-543h-45v543h45z" />
    <glyph glyph-name="Kcommaaccent" unicode="&#x136;" horiz-adv-x="532" 
d="M163 353l345 -353h-57l-325 334v-334h-45v705h45v-334l325 334h57zM294 -56q5 -23 5 -44q0 -56 -21.5 -76.5t-56.5 -20.5v25q25 0 35 15t10 42v7h-36v52h64z" />
    <glyph glyph-name="kcommaaccent" unicode="&#x137;" horiz-adv-x="430" 
d="M421 0h-60l-235 250v-250h-45v740h45v-441l230 244h59l-258 -269zM252 -56q5 -23 5 -44q0 -56 -21.5 -76.5t-56.5 -20.5v25q25 0 35 15t10 42v7h-36v52h64z" />
    <glyph glyph-name="Lacute" unicode="&#x139;" horiz-adv-x="409" 
d="M297 847l-153 -89l-14 20l152 99zM126 37h263v-37h-308v705h45v-668z" />
    <glyph glyph-name="lacute" unicode="&#x13a;" horiz-adv-x="207" 
d="M126 645v-645h-45v619l-39 -23l-14 20l53 35v89h45v-60l54 35l15 -30z" />
    <glyph glyph-name="Lcommaaccent" unicode="&#x13b;" horiz-adv-x="410" 
d="M126 37h263v-37h-308v705h45v-668zM272 -56q5 -23 5 -44q0 -56 -21.5 -76.5t-56.5 -20.5v25q24 0 34.5 15t10.5 42v7h-37v52h65z" />
    <glyph glyph-name="lcommaaccent" unicode="&#x13c;" horiz-adv-x="207" 
d="M126 740v-740h-45v740h45zM134 -56q5 -23 5 -44q0 -56 -21.5 -76.5t-56.5 -20.5v25q24 0 34.5 15t10.5 42v7h-36v52h64z" />
    <glyph glyph-name="Lcaron" unicode="&#x13d;" horiz-adv-x="418" 
d="M126 37h263v-37h-308v705h45v-668zM318 705q4 -24 5 -43t1 -35q0 -51 -21 -70.5t-58 -19.5v27q26 0 36 12.5t10 36.5v27h-42v65h69z" />
    <glyph glyph-name="lcaron" unicode="&#x13e;" horiz-adv-x="231" 
d="M126 740v-740h-45v740h45zM251 740q4 -23 5.5 -42t1.5 -35q0 -51 -21 -70.5t-59 -19.5v27q26 0 36.5 12.5t10.5 36.5v26h-43v65h69z" />
    <glyph glyph-name="Ldot" unicode="&#x13f;" horiz-adv-x="409" 
d="M126 37h263v-37h-308v705h45v-668zM315 352q0 15 11 26t26 11q16 0 26.5 -11t10.5 -26t-10.5 -26t-26.5 -11q-15 0 -26 11t-11 26z" />
    <glyph glyph-name="ldot" unicode="&#x140;" horiz-adv-x="216" 
d="M126 740v-740h-45v740h45zM174 370q0 15 11 26t26 11q16 0 26.5 -11t10.5 -26t-10.5 -26t-26.5 -11q-15 0 -26 11t-11 26z" />
    <glyph glyph-name="Lslash" unicode="&#x141;" horiz-adv-x="428" 
d="M408 37v-37h-308v341l-90 -40v46l90 40v318h45v-299l151 67v-46l-151 -67v-323h263z" />
    <glyph glyph-name="lslash" unicode="&#x142;" horiz-adv-x="230" 
d="M220 504l-82 -42v-462h-45v439l-83 -42v44l83 42v257h45v-234l82 42v-44z" />
    <glyph glyph-name="Nacute" unicode="&#x143;" horiz-adv-x="664" 
d="M424 847l-153 -89l-14 20l152 99zM583 0h-45l-412 628v-628h-45v704h45l412 -628v628h45v-704z" />
    <glyph glyph-name="nacute" unicode="&#x144;" horiz-adv-x="624" 
d="M251 596l-14 20l152 99l15 -30zM333 554q45 0 84.5 -14t68.5 -43t46 -73.5t17 -106.5v-317h-45v315q0 100 -50 150.5t-133 50.5q-42 0 -78 -14t-62 -42t-40.5 -70.5t-14.5 -100.5v-289h-45v543h45v-143q11 40 31.5 69t48 48t60 28t67.5 9z" />
    <glyph glyph-name="Ncommaaccent" unicode="&#x145;" horiz-adv-x="670" 
d="M583 0h-45l-412 628v-628h-45v704h45l412 -628v628h45v-704zM366 -56q5 -23 5 -44q0 -56 -21.5 -76.5t-56.5 -20.5v25q25 0 35 15t10 42v7h-36v52h64z" />
    <glyph glyph-name="ncommaaccent" unicode="&#x146;" horiz-adv-x="624" 
d="M333 554q45 0 84.5 -14t68.5 -43t46 -73.5t17 -106.5v-317h-45v315q0 100 -50 150.5t-133 50.5q-42 0 -78 -14t-62 -42t-40.5 -70.5t-14.5 -100.5v-289h-45v543h45v-143q11 40 31.5 69t48 48t60 28t67.5 9zM352 -56q5 -23 5 -44q0 -56 -21.5 -76.5t-56.5 -20.5v25
q25 0 35 15t10 42v7h-36v52h64z" />
    <glyph glyph-name="Ncaron" unicode="&#x147;" horiz-adv-x="664" 
d="M461 857l-128 -81l-130 81v36l130 -82l128 82v-36zM583 0h-45l-412 628v-628h-45v704h45l412 -628v628h45v-704z" />
    <glyph glyph-name="ncaron" unicode="&#x148;" horiz-adv-x="624" 
d="M316 614l-130 81v36l130 -82l128 82v-36zM333 554q45 0 84.5 -14t68.5 -43t46 -73.5t17 -106.5v-317h-45v315q0 100 -50 150.5t-133 50.5q-42 0 -78 -14t-62 -42t-40.5 -70.5t-14.5 -100.5v-289h-45v543h45v-143q11 40 31.5 69t48 48t60 28t67.5 9z" />
    <glyph glyph-name="Omacron" unicode="&#x14c;" horiz-adv-x="792" 
d="M559 851v-35h-325v35h325zM396 711q74 0 136 -26.5t107 -74t70.5 -113.5t25.5 -145t-25.5 -145t-70.5 -114t-107 -74.5t-136 -26.5t-136.5 26.5t-107.5 74.5t-70.5 114t-25.5 145t25.5 145t70.5 113.5t107.5 74t136.5 26.5zM396 670q-62 0 -115.5 -22t-93 -63t-62 -100
t-22.5 -133t22.5 -133t62 -100t93 -63t115.5 -22t115 22t93 63t62.5 100t22.5 133t-22.5 133t-62.5 100t-93 63t-115 22z" />
    <glyph glyph-name="omacron" unicode="&#x14d;" horiz-adv-x="646" 
d="M486 689v-35h-325v35h325zM323 550q57 0 106 -19t85 -55t56.5 -87.5t20.5 -116.5q0 -66 -20.5 -117.5t-56.5 -87.5t-85 -55t-106 -19t-106 19t-85 55t-56.5 87.5t-20.5 117.5q0 65 20.5 116.5t56.5 87.5t85 55t106 19zM323 510q-42 0 -82 -14t-71 -43t-50 -74t-19 -107
t19 -107t50 -74.5t71 -43.5t82 -14q43 0 83 14t71 43.5t49.5 74.5t18.5 107t-18.5 107t-49.5 74t-71 43t-83 14z" />
    <glyph glyph-name="Obreve" unicode="&#x14e;" horiz-adv-x="792" 
d="M396 776q-32 0 -55 9.5t-38 25.5t-22.5 36t-7.5 41v5h29q0 -41 24 -63t70 -22t70.5 22t24.5 63h28v-5q0 -21 -7.5 -41t-22.5 -36t-38 -25.5t-55 -9.5zM396 711q74 0 136 -26.5t107 -74t70.5 -113.5t25.5 -145t-25.5 -145t-70.5 -114t-107 -74.5t-136 -26.5t-136.5 26.5
t-107.5 74.5t-70.5 114t-25.5 145t25.5 145t70.5 113.5t107.5 74t136.5 26.5zM396 670q-62 0 -115.5 -22t-93 -63t-62 -100t-22.5 -133t22.5 -133t62 -100t93 -63t115.5 -22t115 22t93 63t62.5 100t22.5 133t-22.5 133t-62.5 100t-93 63t-115 22z" />
    <glyph glyph-name="obreve" unicode="&#x14f;" horiz-adv-x="646" 
d="M323 614q-32 0 -55 9.5t-38 25.5t-22.5 36t-7.5 41v5h29q0 -41 24 -63t70 -22t70.5 22t24.5 63h28v-5q0 -21 -7.5 -41t-22.5 -36t-38 -25.5t-55 -9.5zM323 550q57 0 106 -19t85 -55t56.5 -87.5t20.5 -116.5q0 -66 -20.5 -117.5t-56.5 -87.5t-85 -55t-106 -19t-106 19
t-85 55t-56.5 87.5t-20.5 117.5q0 65 20.5 116.5t56.5 87.5t85 55t106 19zM323 510q-42 0 -82 -14t-71 -43t-50 -74t-19 -107t19 -107t50 -74.5t71 -43.5t82 -14q43 0 83 14t71 43.5t49.5 74.5t18.5 107t-18.5 107t-49.5 74t-71 43t-83 14z" />
    <glyph glyph-name="Ohungarumlaut" unicode="&#x150;" horiz-adv-x="792" 
d="M345 763h-34l63 122h41zM471 763h-34l70 122h41zM396 711q74 0 136 -26.5t107 -74t70.5 -113.5t25.5 -145t-25.5 -145t-70.5 -114t-107 -74.5t-136 -26.5t-136.5 26.5t-107.5 74.5t-70.5 114t-25.5 145t25.5 145t70.5 113.5t107.5 74t136.5 26.5zM396 670
q-62 0 -115.5 -22t-93 -63t-62 -100t-22.5 -133t22.5 -133t62 -100t93 -63t115.5 -22t115 22t93 63t62.5 100t22.5 133t-22.5 133t-62.5 100t-93 63t-115 22z" />
    <glyph glyph-name="ohungarumlaut" unicode="&#x151;" horiz-adv-x="646" 
d="M273 601h-34l63 122h41zM399 601h-34l70 122h41zM323 550q57 0 106 -19t85 -55t56.5 -87.5t20.5 -116.5q0 -66 -20.5 -117.5t-56.5 -87.5t-85 -55t-106 -19t-106 19t-85 55t-56.5 87.5t-20.5 117.5q0 65 20.5 116.5t56.5 87.5t85 55t106 19zM323 510q-42 0 -82 -14
t-71 -43t-50 -74t-19 -107t19 -107t50 -74.5t71 -43.5t82 -14q43 0 83 14t71 43.5t49.5 74.5t18.5 107t-18.5 107t-49.5 74t-71 43t-83 14z" />
    <glyph glyph-name="OE" unicode="&#x152;" horiz-adv-x="1099" 
d="M736 371h285v-36h-285v-297h315v-38h-360v215q-13 -51 -41 -92t-67 -70.5t-87 -45.5t-102 -16q-74 0 -136 26.5t-107 74.5t-70 114t-25 145q0 80 25 146t70 113.5t107 74t136 26.5q54 0 102 -15.5t87 -45t67 -70.5t41 -92v217h360v-38h-315v-296zM396 33q62 0 115 22
t93 63t62.5 100t22.5 133t-22.5 133.5t-62.5 100.5t-93 63t-115 22t-115.5 -22t-93 -63t-62 -100.5t-22.5 -133.5t22.5 -133t62 -100t93 -63t115.5 -22z" />
    <glyph glyph-name="oe" unicode="&#x153;" horiz-adv-x="1121" 
d="M808 31q82 0 138 41.5t68 113.5h47q-7 -42 -27.5 -77.5t-52.5 -61t-75 -40t-96 -14.5q-89 0 -153.5 45.5t-88.5 129.5q-25 -84 -90.5 -129.5t-154.5 -45.5q-57 0 -106 19t-85 55t-56.5 87.5t-20.5 117.5q0 65 20.5 116.5t56.5 87.5t85 55t106 19q89 0 154.5 -45.5
t90.5 -129.5q24 84 88.5 129.5t153.5 45.5q62 0 109 -20t79 -53.5t48.5 -76.5t16.5 -88q0 -19 -1 -29.5t-3 -23.5h-468q1 -60 20 -103t49 -70.5t68.5 -41t79.5 -13.5zM810 513q-42 0 -81.5 -13.5t-69.5 -41t-48.5 -70.5t-19.5 -102h428q3 59 -13.5 102t-46.5 71t-69 41
t-80 13zM323 33q43 0 83 14t71 43.5t49.5 74.5t18.5 107t-18.5 107t-49.5 74t-71 43t-83 14q-42 0 -82 -14t-71 -43t-50 -74t-19 -107t19 -107t50 -74.5t71 -43.5t82 -14z" />
    <glyph glyph-name="Racute" unicode="&#x154;" horiz-adv-x="552" 
d="M215 758l-14 20l152 99l15 -30zM462 0l-204 300h-132v-300h-45v705h197q61 0 104.5 -15t71.5 -42t41 -64.5t13 -82.5q0 -91 -51 -142t-150 -58l207 -301h-52zM126 337h149q52 0 87.5 12t58 33.5t32.5 51.5t10 66q0 38 -10 68t-32.5 51.5t-58 33t-87.5 11.5h-149v-327z
" />
    <glyph glyph-name="racute" unicode="&#x155;" horiz-adv-x="354" 
d="M116 596l-14 20l152 99l15 -30zM126 423q21 63 73.5 97t135.5 34v-49h-15q-36 0 -70.5 -9.5t-62 -32t-44.5 -60t-17 -93.5v-310h-45v543h45v-120z" />
    <glyph glyph-name="Rcommaaccent" unicode="&#x156;" horiz-adv-x="556" 
d="M514 0h-52l-204 300h-132v-300h-45v705h197q61 0 104.5 -15t71.5 -42t41 -64.5t13 -82.5q0 -91 -51 -142t-150 -58zM126 337h149q52 0 87.5 12t58 33.5t32.5 51.5t10 66q0 38 -10 68t-32.5 51.5t-58 33t-87.5 11.5h-149v-327zM305 -56q5 -23 5 -44q0 -56 -21 -76.5
t-56 -20.5v25q24 0 34 15t10 42v7h-36v52h64z" />
    <glyph glyph-name="rcommaaccent" unicode="&#x157;" horiz-adv-x="354" 
d="M126 423q21 63 73.5 97t135.5 34v-49h-15q-36 0 -70.5 -9.5t-62 -32t-44.5 -60t-17 -93.5v-310h-45v543h45v-120zM133 -56q5 -23 5 -44q0 -56 -21.5 -76.5t-56.5 -20.5v25q25 0 35 15t10 42v7h-36v52h64z" />
    <glyph glyph-name="Rcaron" unicode="&#x158;" horiz-adv-x="552" 
d="M299 776l-130 81v36l130 -82l128 82v-36zM462 0l-204 300h-132v-300h-45v705h197q61 0 104.5 -15t71.5 -42t41 -64.5t13 -82.5q0 -91 -51 -142t-150 -58l207 -301h-52zM126 337h149q52 0 87.5 12t58 33.5t32.5 51.5t10 66q0 38 -10 68t-32.5 51.5t-58 33t-87.5 11.5h-149
v-327z" />
    <glyph glyph-name="rcaron" unicode="&#x159;" horiz-adv-x="354" 
d="M337 731v-36l-128 -81l-130 81v36l130 -82zM126 423q21 63 73.5 97t135.5 34v-49h-15q-36 0 -70.5 -9.5t-62 -32t-44.5 -60t-17 -93.5v-310h-45v543h45v-120z" />
    <glyph glyph-name="Sacute" unicode="&#x15a;" horiz-adv-x="547" 
d="M366 847l-153 -89l-14 20l152 99zM491 174q0 -32 -11 -64.5t-35 -58.5t-62 -42t-92 -16q-51 0 -92 15t-71 40t-47.5 58.5t-21.5 69.5h47q3 -21 14.5 -46.5t34 -47.5t56 -37t79.5 -15q39 0 68 11.5t48 31t28.5 45.5t9.5 55q0 58 -28.5 90t-72 50.5t-93.5 31.5t-93.5 34.5
t-72 57.5t-28.5 101q0 37 13 68.5t38.5 55t62.5 37t86 13.5q51 0 89.5 -14t65.5 -37t42.5 -52t21.5 -58h-48q-4 18 -15.5 40t-32 40.5t-51 31t-72.5 12.5q-68 0 -110 -35t-42 -101q0 -56 28.5 -86t71.5 -48.5t93.5 -31.5t93.5 -34.5t71.5 -59.5t28.5 -105z" />
    <glyph glyph-name="sacute" unicode="&#x15b;" horiz-adv-x="495" 
d="M340 685l-153 -89l-14 20l152 99zM235 550q87 0 138 -46t61 -124h-43q-3 27 -14 51t-30.5 43t-47 30t-64.5 11q-63 0 -96.5 -30.5t-33.5 -79.5q0 -42 24.5 -63.5t62 -33.5t80.5 -20.5t80.5 -24.5t62 -45t24.5 -81q0 -63 -45.5 -103.5t-121.5 -40.5q-91 0 -148 45.5
t-68 124.5h45q3 -27 15 -51.5t33.5 -43t52.5 -29.5t71 -11q60 0 91.5 31t31.5 79q0 44 -24.5 66.5t-62 35t-80.5 21t-80.5 23.5t-62 42.5t-24.5 78.5q0 66 47 105.5t126 39.5z" />
    <glyph glyph-name="Scedilla" unicode="&#x15e;" horiz-adv-x="547" 
d="M491 174q0 -32 -11 -64.5t-35 -58.5t-61.5 -42t-91.5 -16v-74q60 3 93.5 -18.5t33.5 -66.5q0 -42 -29.5 -66t-82.5 -24h-77v31h72q45 0 63 17t18 43q0 23 -18 39t-63 16h-43v105q-44 4 -79.5 20.5t-61 41t-41 55.5t-18.5 64h47q3 -21 14.5 -46.5t34 -47.5t56 -37
t79.5 -15q39 0 68 11.5t48 31t28.5 45.5t9.5 55q0 58 -28.5 90t-72 50.5t-93.5 31.5t-93.5 34.5t-72 57.5t-28.5 101q0 37 13 68.5t38.5 55t62.5 37t86 13.5q51 0 89.5 -14t65.5 -37t42.5 -52t21.5 -58h-48q-4 18 -15.5 40t-32 40.5t-51 31t-72.5 12.5q-68 0 -110 -35
t-42 -101q0 -56 28.5 -86t71.5 -48.5t93.5 -31.5t93.5 -34.5t71.5 -59.5t28.5 -105z" />
    <glyph glyph-name="scedilla" unicode="&#x15f;" horiz-adv-x="495" 
d="M264 -7v-74q60 3 93.5 -18.5t33.5 -66.5q0 -42 -29.5 -66t-82.5 -24h-77v31h72q45 0 63 17t18 43q0 23 -18 39t-63 16h-43v106q-73 10 -119.5 53.5t-55.5 113.5h45q3 -27 15 -51.5t33.5 -43t52.5 -29.5t71 -11q60 0 91.5 31t31.5 79q0 44 -24.5 66.5t-62 35t-80.5 21
t-80.5 23.5t-62 42.5t-24.5 78.5q0 66 47 105.5t126 39.5q87 0 138 -46t61 -124h-43q-3 27 -14 51t-30.5 43t-47 30t-64.5 11q-63 0 -96.5 -30.5t-33.5 -79.5q0 -42 24.5 -63.5t62 -33.5t80.5 -20.5t80.5 -24.5t62 -45t24.5 -81q0 -63 -45.5 -103.5t-121.5 -40.5h-8z" />
    <glyph glyph-name="Scaron" unicode="&#x160;" horiz-adv-x="547" 
d="M403 857l-128 -81l-130 81v36l130 -82l128 82v-36zM491 174q0 -32 -11 -64.5t-35 -58.5t-62 -42t-92 -16q-51 0 -92 15t-71 40t-47.5 58.5t-21.5 69.5h47q3 -21 14.5 -46.5t34 -47.5t56 -37t79.5 -15q39 0 68 11.5t48 31t28.5 45.5t9.5 55q0 58 -28.5 90t-72 50.5
t-93.5 31.5t-93.5 34.5t-72 57.5t-28.5 101q0 37 13 68.5t38.5 55t62.5 37t86 13.5q51 0 89.5 -14t65.5 -37t42.5 -52t21.5 -58h-48q-4 18 -15.5 40t-32 40.5t-51 31t-72.5 12.5q-68 0 -110 -35t-42 -101q0 -56 28.5 -86t71.5 -48.5t93.5 -31.5t93.5 -34.5t71.5 -59.5
t28.5 -105z" />
    <glyph glyph-name="scaron" unicode="&#x161;" horiz-adv-x="495" 
d="M377 695l-128 -81l-130 81v36l130 -82l128 82v-36zM235 550q87 0 138 -46t61 -124h-43q-3 27 -14 51t-30.5 43t-47 30t-64.5 11q-63 0 -96.5 -30.5t-33.5 -79.5q0 -42 24.5 -63.5t62 -33.5t80.5 -20.5t80.5 -24.5t62 -45t24.5 -81q0 -63 -45.5 -103.5t-121.5 -40.5
q-91 0 -148 45.5t-68 124.5h45q3 -27 15 -51.5t33.5 -43t52.5 -29.5t71 -11q60 0 91.5 31t31.5 79q0 44 -24.5 66.5t-62 35t-80.5 21t-80.5 23.5t-62 42.5t-24.5 78.5q0 66 47 105.5t126 39.5z" />
    <glyph glyph-name="uni0162" unicode="&#x162;" horiz-adv-x="488" 
d="M267 667v-666q63 -2 89.5 -23.5t26.5 -58.5q0 -42 -29.5 -66.5t-81.5 -24.5h-76v32h71q46 0 63 16.5t17 43.5q0 23 -17 39t-63 16h-46v692h-202v38h451v-38h-203z" />
    <glyph glyph-name="uni0163" unicode="&#x163;" horiz-adv-x="350" 
d="M234 -81q60 3 93.5 -18.5t33.5 -66.5q0 -42 -29.5 -66t-82.5 -24h-77v31h72q45 0 63 17t18 43q0 23 -18 39t-63 16h-43v114q-49 10 -72.5 44.5t-23.5 104.5v349h-86v41h86v138h45v-138h161v-41h-161v-349q0 -66 24 -89t80 -23h57v-41h-62h-15v-81z" />
    <glyph glyph-name="Tcaron" unicode="&#x164;" horiz-adv-x="488" 
d="M374 857l-128 -81l-130 81v36l130 -82l128 82v-36zM470 705v-38h-203v-667h-46v667h-202v38h451z" />
    <glyph glyph-name="tcaron" unicode="&#x165;" horiz-adv-x="350" 
d="M294 683q0 -50 -21 -69t-58 -19v27q26 0 36 11.5t10 33.5v27h-42v65h69q6 -46 6 -76zM150 502v-349q0 -66 24 -89t80 -23h57v-41h-62q-73 0 -108.5 34t-35.5 119v349h-86v41h86v138h45v-138h161v-41h-161z" />
    <glyph glyph-name="Utilde" unicode="&#x168;" horiz-adv-x="640" 
d="M266 843q19 0 32 -7.5t24.5 -17t24 -17t29.5 -7.5q15 0 27.5 11.5t15.5 34.5h27q-3 -33 -22.5 -53.5t-48.5 -20.5q-20 0 -34 7.5t-25.5 16.5t-23.5 16.5t-27 7.5q-35 0 -41 -47h-27q5 36 22.5 56t46.5 20zM121 705v-433q0 -64 15 -109.5t41.5 -73.5t63.5 -41t81 -13
q43 0 79 13t62.5 41t41 73.5t14.5 109.5v433h46v-433q0 -73 -18 -126t-50 -87t-77 -50t-98 -16q-54 0 -99 16t-77.5 50t-51 87t-18.5 126v433h45z" />
    <glyph glyph-name="utilde" unicode="&#x169;" horiz-adv-x="611" 
d="M250 652q-35 0 -41 -47h-27q5 36 22.5 56t46.5 20q19 0 32 -7.5t24.5 -17t24 -17t29.5 -7.5q15 0 27.5 11.5t15.5 34.5h27q-3 -33 -22.5 -53.5t-48.5 -20.5q-20 0 -34 7.5t-25.5 16.5t-23.5 16.5t-27 7.5zM531 543v-543h-46v142q-10 -39 -31 -68t-48.5 -48t-60 -28
t-67.5 -9q-45 0 -84 14t-68 43t-46 74t-17 107v316h44v-315q0 -100 50 -150t133 -50q43 0 78.5 13.5t61.5 41.5t40.5 71t14.5 101v288h46z" />
    <glyph glyph-name="Umacron" unicode="&#x16a;" horiz-adv-x="640" 
d="M483 851v-35h-325v35h325zM121 705v-433q0 -64 15 -109.5t41.5 -73.5t63.5 -41t81 -13q43 0 79 13t62.5 41t41 73.5t14.5 109.5v433h46v-433q0 -73 -18 -126t-50 -87t-77 -50t-98 -16q-54 0 -99 16t-77.5 50t-51 87t-18.5 126v433h45z" />
    <glyph glyph-name="umacron" unicode="&#x16b;" horiz-adv-x="611" 
d="M459 654h-325v35h325v-35zM531 543v-543h-46v142q-10 -39 -31 -68t-48.5 -48t-60 -28t-67.5 -9q-45 0 -84 14t-68 43t-46 74t-17 107v316h44v-315q0 -100 50 -150t133 -50q43 0 78.5 13.5t61.5 41.5t40.5 71t14.5 101v288h46z" />
    <glyph glyph-name="Ubreve" unicode="&#x16c;" horiz-adv-x="640" 
d="M321 776q-32 0 -55 9.5t-38 25.5t-22.5 36t-7.5 41v5h29q0 -41 24 -63t70 -22t70.5 22t24.5 63h28v-5q0 -21 -7.5 -41t-22.5 -36t-38 -25.5t-55 -9.5zM121 705v-433q0 -64 15 -109.5t41.5 -73.5t63.5 -41t81 -13q43 0 79 13t62.5 41t41 73.5t14.5 109.5v433h46v-433
q0 -73 -18 -126t-50 -87t-77 -50t-98 -16q-54 0 -99 16t-77.5 50t-51 87t-18.5 126v433h45z" />
    <glyph glyph-name="ubreve" unicode="&#x16d;" horiz-adv-x="611" 
d="M306 614q-32 0 -55 9.5t-38 25.5t-22.5 36t-7.5 41v5h29q0 -41 24 -63t70 -22t70.5 22t24.5 63h28v-5q0 -21 -7.5 -41t-22.5 -36t-38 -25.5t-55 -9.5zM531 543v-543h-46v142q-10 -39 -31 -68t-48.5 -48t-60 -28t-67.5 -9q-45 0 -84 14t-68 43t-46 74t-17 107v316h44v-315
q0 -100 50 -150t133 -50q43 0 78.5 13.5t61.5 41.5t40.5 71t14.5 101v288h46z" />
    <glyph glyph-name="Uring" unicode="&#x16e;" horiz-adv-x="640" 
d="M320 965q39 0 67 -25t28 -70t-28 -70.5t-67 -25.5t-67.5 25.5t-28.5 70.5t28.5 70t67.5 25zM320 938q-29 0 -48 -18t-19 -50t19 -50.5t48 -18.5t48 18.5t19 50.5t-19 50t-48 18zM121 705v-433q0 -64 15 -109.5t41.5 -73.5t63.5 -41t81 -13q43 0 79 13t62.5 41t41 73.5
t14.5 109.5v433h46v-433q0 -73 -18 -126t-50 -87t-77 -50t-98 -16q-54 0 -99 16t-77.5 50t-51 87t-18.5 126v433h45z" />
    <glyph glyph-name="uring" unicode="&#x16f;" horiz-adv-x="611" 
d="M297 612q-39 0 -67.5 25.5t-28.5 70.5t28.5 70t67.5 25t67 -25t28 -70t-28 -70.5t-67 -25.5zM297 776q-29 0 -48 -18t-19 -50t19 -50.5t48 -18.5t48 18.5t19 50.5t-19 50t-48 18zM531 543v-543h-46v142q-10 -39 -31 -68t-48.5 -48t-60 -28t-67.5 -9q-45 0 -84 14t-68 43
t-46 74t-17 107v316h44v-315q0 -100 50 -150t133 -50q43 0 78.5 13.5t61.5 41.5t40.5 71t14.5 101v288h46z" />
    <glyph glyph-name="Uhungarumlaut" unicode="&#x170;" horiz-adv-x="640" 
d="M261 763h-34l63 122h41zM387 763h-34l70 122h41zM121 705v-433q0 -64 15 -109.5t41.5 -73.5t63.5 -41t81 -13q43 0 79 13t62.5 41t41 73.5t14.5 109.5v433h46v-433q0 -73 -18 -126t-50 -87t-77 -50t-98 -16q-54 0 -99 16t-77.5 50t-51 87t-18.5 126v433h45z" />
    <glyph glyph-name="uhungarumlaut" unicode="&#x171;" horiz-adv-x="611" 
d="M238 601h-34l63 122h41zM364 601h-34l70 122h41zM531 543v-543h-46v142q-10 -39 -31 -68t-48.5 -48t-60 -28t-67.5 -9q-45 0 -84 14t-68 43t-46 74t-17 107v316h44v-315q0 -100 50 -150t133 -50q43 0 78.5 13.5t61.5 41.5t40.5 71t14.5 101v288h46z" />
    <glyph glyph-name="Uogonek" unicode="&#x172;" horiz-adv-x="646" 
d="M359 -173q-57 0 -87 28t-30 72q0 23 12.5 42.5t33.5 26.5q-44 6 -82 25.5t-66.5 53.5t-44.5 83t-16 114v433h45v-433q0 -64 15 -109.5t41.5 -73.5t63.5 -41t81 -13q39 0 75 10.5t63 37.5t43.5 73t16.5 116v433h45v-433q0 -69 -16 -119t-44.5 -84t-68.5 -52t-87 -22
q-35 -3 -54.5 -21.5t-19.5 -47.5q0 -32 22.5 -49.5t63.5 -17.5h76v-32h-81z" />
    <glyph glyph-name="uogonek" unicode="&#x173;" horiz-adv-x="611" 
d="M571 -161v-31h-81q-57 0 -88 27t-31 71q0 43 30 70.5t84 28.5v137q-10 -39 -31 -68t-48.5 -48t-60 -28t-67.5 -9q-45 0 -84 14t-68 43t-46 74t-17 107v316h44v-315q0 -100 50 -150t133 -50q43 0 78.5 13.5t61.5 41.5t40.5 71t14.5 101v288h46v-543h-1v-25h-37
q-40 0 -63 -18t-23 -50t23 -50t63 -18h78z" />
    <glyph glyph-name="Wcircumflex" unicode="&#x174;" horiz-adv-x="929" 
d="M352 760l-14 22l126 80l124 -80l-13 -23l-111 71zM894 705l-185 -705h-52l-193 636l-192 -636h-52l-186 705h51l161 -640l193 640h51l192 -640l161 640h51z" />
    <glyph glyph-name="wcircumflex" unicode="&#x175;" horiz-adv-x="816" 
d="M296 598l-14 22l126 80l124 -80l-13 -23l-111 71zM798 543l-165 -543h-44l-181 483l-181 -483h-44l-166 543h47l143 -487l179 487h45l180 -487l143 487h44z" />
    <glyph glyph-name="Ycircumflex" unicode="&#x176;" horiz-adv-x="545" 
d="M160 760l-14 22l126 80l124 -80l-13 -23l-111 71zM518 705l-222 -420v-285h-45v285l-225 420h53l194 -372l193 372h52z" />
    <glyph glyph-name="ycircumflex" unicode="&#x177;" horiz-adv-x="525" 
d="M263 668l-112 -70l-14 22l126 80l124 -80l-13 -23zM66 543l204 -483l189 483h50l-315 -799h-52l104 259l-230 540h50z" />
    <glyph glyph-name="Ydieresis" unicode="&#x178;" horiz-adv-x="545" 
d="M200 788q-16 0 -26.5 11t-10.5 26t10.5 26t26.5 11t26.5 -11t10.5 -26t-10.5 -26t-26.5 -11zM346 788q-16 0 -26.5 11t-10.5 26t10.5 26t26.5 11q15 0 25.5 -11t10.5 -26t-10.5 -26t-25.5 -11zM518 705l-222 -420v-285h-45v285l-225 420h53l194 -372l193 372h52z" />
    <glyph glyph-name="Zacute" unicode="&#x179;" horiz-adv-x="505" 
d="M345 847l-153 -89l-14 20l152 99zM87 39h381v-39h-431v38l373 627h-362v40h411v-39z" />
    <glyph glyph-name="zacute" unicode="&#x17a;" horiz-adv-x="421" 
d="M303 685l-153 -89l-14 20l152 99zM78 39h314v-39h-363v38l302 466h-293v39h344v-37z" />
    <glyph glyph-name="Zdotaccent" unicode="&#x17b;" horiz-adv-x="505" 
d="M215 825q0 15 11 26t26 11q16 0 26.5 -11t10.5 -26t-10.5 -26t-26.5 -11q-15 0 -26 11t-11 26zM87 39h381v-39h-431v38l373 627h-362v40h411v-39z" />
    <glyph glyph-name="zdotaccent" unicode="&#x17c;" horiz-adv-x="421" 
d="M173 663q0 15 11 26t26 11q16 0 26.5 -11t10.5 -26t-10.5 -26t-26.5 -11q-15 0 -26 11t-11 26zM78 39h314v-39h-363v38l302 466h-293v39h344v-37z" />
    <glyph glyph-name="Zcaron" unicode="&#x17d;" horiz-adv-x="505" 
d="M382 857l-128 -81l-130 81v36l130 -82l128 82v-36zM87 39h381v-39h-431v38l373 627h-362v40h411v-39z" />
    <glyph glyph-name="zcaron" unicode="&#x17e;" horiz-adv-x="421" 
d="M340 695l-128 -81l-130 81v36l130 -82l128 82v-36zM78 39h314v-39h-363v38l302 466h-293v39h344v-37z" />
    <glyph glyph-name="florin" unicode="&#x192;" horiz-adv-x="332" 
d="M342 719q-68 0 -105 -27.5t-43 -87.5l-6 -61h143l-3 -39h-145l-57 -546q-6 -57 -33.5 -86.5t-92.5 -29.5h-31l3 40h29q37 0 55.5 14t24.5 62l58 546h-81l3 39h82l7 61q8 82 58 118t138 36z" />
    <glyph glyph-name="Ohorn" unicode="&#x1a0;" horiz-adv-x="792" 
d="M532 684q46 -19 83.5 -51t64 -75t41 -95t14.5 -111q0 -79 -25.5 -145t-70.5 -114t-107 -74.5t-136 -26.5t-136.5 26.5t-107.5 74.5t-70.5 114t-25.5 145t25.5 145t70.5 113.5t107.5 74t136.5 26.5q36 0 67 -6q47 0 77.5 26.5t30.5 91.5h36q0 -55 -21 -89t-54 -50zM396 34
q62 0 115 22t93 63t62.5 100t22.5 133t-22.5 133t-62.5 100t-93 63t-115 22t-115.5 -22t-93 -63t-62 -100t-22.5 -133t22.5 -133t62 -100t93 -63t115.5 -22z" />
    <glyph glyph-name="ohorn" unicode="&#x1a1;" horiz-adv-x="646" 
d="M453 520q63 -32 100.5 -94.5t37.5 -153.5q0 -66 -20.5 -117.5t-56.5 -87.5t-85 -55t-106 -19t-106 19t-85 55t-56.5 87.5t-20.5 117.5q0 65 20.5 116.5t56.5 87.5t85 55t106 19q37 0 66 -7q47 0 77 27t30 91h36q0 -57 -22 -91.5t-57 -49.5zM323 33q43 0 83 14t71 43.5
t49.5 74.5t18.5 107t-18.5 107t-49.5 74t-71 43t-83 14q-42 0 -82 -14t-71 -43t-50 -74t-19 -107t19 -107t50 -74.5t71 -43.5t82 -14z" />
    <glyph glyph-name="Uhorn" unicode="&#x1af;" horiz-adv-x="640" 
d="M685 823q0 -73 -35 -109t-85 -43v-399q0 -73 -18 -126t-50 -87t-77 -50t-98 -16q-54 0 -99 16t-77.5 50t-51 87t-18.5 126v433h45v-433q0 -64 15 -109.5t41.5 -73.5t63.5 -41t81 -13q43 0 79 13t62.5 41t41 73.5t14.5 109.5v433h22q47 0 77.5 26.5t30.5 91.5h36z" />
    <glyph glyph-name="uhorn" unicode="&#x1b0;" horiz-adv-x="611" 
d="M649 661q0 -72 -34 -108t-84 -43v-510h-46v142q-10 -39 -31 -68t-48.5 -48t-60 -28t-67.5 -9q-45 0 -84 14t-68 43t-46 74t-17 107v316h44v-315q0 -100 50 -150t133 -50q43 0 78.5 13.5t61.5 41.5t40.5 71t14.5 101v288h20q47 0 77.5 26.5t30.5 91.5h36z" />
    <glyph glyph-name="AEacute" unicode="&#x1fc;" horiz-adv-x="856" 
d="M456 758l-14 20l152 99l15 -30zM494 667v-295h284v-37h-284v-297h314v-38h-359v182h-281l-109 -182h-50l421 705h378v-38h-314zM449 219v432l-259 -432h259z" />
    <glyph glyph-name="aeacute" unicode="&#x1fd;" horiz-adv-x="1125" 
d="M557 596l-14 20l152 99l15 -30zM813 31q83 0 139.5 41t69.5 114h46q-7 -42 -26.5 -77.5t-51 -61t-74 -40t-93.5 -14.5q-41 0 -78 10.5t-67.5 32t-52.5 53.5t-33 74v-163h-45v162q-10 -37 -31 -68t-50.5 -53.5t-67.5 -35t-84 -12.5q-57 0 -104.5 19t-82 55t-53.5 88
t-19 117t19 116.5t53.5 87.5t82 55t104.5 19q46 0 84 -12.5t67.5 -35t50.5 -53.5t31 -68v162h45v-163q10 42 32 74t52.5 53t68 32t78.5 11q61 0 107 -20t77 -53.5t47 -76.5t16 -88q0 -19 -1 -29.5t-3 -23.5h-473q2 -59 20.5 -102t49 -71t69.5 -41.5t81 -13.5zM814 513
q-42 0 -81 -13t-70 -41t-50 -71t-20 -102h433q3 59 -14 102t-47 71t-69.5 41t-81.5 13zM324 33q48 0 89 17t71 48t46.5 75.5t16.5 98.5t-16.5 98t-46.5 75t-71 48t-89 17q-51 0 -92 -16.5t-70.5 -47t-45 -74.5t-15.5 -100t15.5 -100.5t45 -75t70.5 -47t92 -16.5z" />
    <glyph glyph-name="Scommaaccent" unicode="&#x218;" horiz-adv-x="555" 
d="M491 174q0 -32 -11 -64.5t-35 -58.5t-62 -42t-92 -16q-51 0 -92 15t-71 40t-47.5 58.5t-21.5 69.5h47q3 -21 14.5 -46.5t34 -47.5t56 -37t79.5 -15q39 0 68 11.5t48 31t28.5 45.5t9.5 55q0 58 -28.5 90t-72 50.5t-93.5 31.5t-93.5 34.5t-72 57.5t-28.5 101q0 37 13 68.5
t38.5 55t62.5 37t86 13.5q51 0 89.5 -14t65.5 -37t42.5 -52t21.5 -58h-48q-4 18 -15.5 40t-32 40.5t-51 31t-72.5 12.5q-68 0 -110 -35t-42 -101q0 -56 28.5 -86t71.5 -48.5t93.5 -31.5t93.5 -34.5t71.5 -59.5t28.5 -105zM331 -56q5 -23 5 -44q0 -56 -21.5 -76.5
t-56.5 -20.5v25q25 0 35 15t10 42v7h-36v52h64z" />
    <glyph glyph-name="scommaaccent" unicode="&#x219;" horiz-adv-x="495" 
d="M235 550q87 0 138 -46t61 -124h-43q-3 27 -14 51t-30.5 43t-47 30t-64.5 11q-63 0 -96.5 -30.5t-33.5 -79.5q0 -42 24.5 -63.5t62 -33.5t80.5 -20.5t80.5 -24.5t62 -45t24.5 -81q0 -63 -45.5 -103.5t-121.5 -40.5q-91 0 -148 45.5t-68 124.5h45q3 -27 15 -51.5t33.5 -43
t52.5 -29.5t71 -11q60 0 91.5 31t31.5 79q0 44 -24.5 66.5t-62 35t-80.5 21t-80.5 23.5t-62 42.5t-24.5 78.5q0 66 47 105.5t126 39.5zM298 -56q2 -11 3 -22.5t1 -21.5q0 -56 -21 -76.5t-56 -20.5v25q24 0 34.5 15t10.5 42v7h-37v52h65z" />
    <glyph glyph-name="uni021A" unicode="&#x21a;" horiz-adv-x="488" 
d="M470 705v-38h-203v-667h-46v667h-202v38h451zM274 -56q5 -23 5 -44q0 -56 -21.5 -76.5t-56.5 -20.5v25q25 0 35 15t10 42v7h-36v52h64z" />
    <glyph glyph-name="uni021B" unicode="&#x21b;" horiz-adv-x="350" 
d="M150 502v-349q0 -66 24 -89t80 -23h57v-41h-62q-73 0 -108.5 34t-35.5 119v349h-86v41h86v138h45v-138h161v-41h-161zM237 -56q3 -11 4 -22.5t1 -21.5q0 -56 -21 -76.5t-56 -20.5v25q24 0 34 15t10 42v7h-36v52h64z" />
    <glyph glyph-name="circumflex" unicode="&#x2c6;" horiz-adv-x="330" 
d="M166 697l-112 -70l-14 22l126 80l124 -80l-13 -23z" />
    <glyph glyph-name="caron" unicode="&#x2c7;" horiz-adv-x="330" 
d="M294 695l-128 -81l-130 81v36l130 -82l128 82v-36z" />
    <glyph glyph-name="breve" unicode="&#x2d8;" horiz-adv-x="326" 
d="M163 614q-32 0 -55 9.5t-38 25.5t-22.5 36t-7.5 41v5h29q0 -41 24 -63t70 -22t70.5 22t24.5 63h28v-5q0 -21 -7.5 -41t-22.5 -36t-38 -25.5t-55 -9.5z" />
    <glyph glyph-name="dotaccent" unicode="&#x2d9;" horiz-adv-x="159" 
d="M42 663q0 15 11 26t26 11q16 0 26.5 -11t10.5 -26t-10.5 -26t-26.5 -11q-15 0 -26 11t-11 26z" />
    <glyph glyph-name="ring" unicode="&#x2da;" horiz-adv-x="263" 
d="M132 803q39 0 67 -25t28 -70t-28 -70.5t-67 -25.5t-67.5 25.5t-28.5 70.5t28.5 70t67.5 25zM132 776q-29 0 -48 -18t-19 -50t19 -50.5t48 -18.5t48 18.5t19 50.5t-19 50t-48 18z" />
    <glyph glyph-name="ogonek" unicode="&#x2db;" horiz-adv-x="270" 
d="M194 -28v-30h-37q-40 0 -63 -18t-23 -50t23 -50t63 -18h78v-31h-81q-57 0 -88 27t-31 71t31 71.5t86 27.5h42z" />
    <glyph glyph-name="tilde" unicode="&#x2dc;" horiz-adv-x="329" 
d="M109 681q19 0 32 -7.5t24.5 -17t24 -17t29.5 -7.5q15 0 27.5 11.5t15.5 34.5h27q-3 -33 -22.5 -53.5t-48.5 -20.5q-20 0 -34 7.5t-25.5 16.5t-23.5 16.5t-27 7.5q-35 0 -41 -47h-27q5 36 22.5 56t46.5 20z" />
    <glyph glyph-name="hungarumlaut" unicode="&#x2dd;" horiz-adv-x="309" 
d="M70 601h-34l63 122h41zM196 601h-34l70 122h41z" />
    <glyph glyph-name="gravecomb" unicode="&#x300;" horiz-adv-x="0" 
d="M-41 612l-12 -22l-144 103l17 26z" />
    <glyph glyph-name="acutecomb" unicode="&#x301;" horiz-adv-x="0" 
d="M-66 685l-153 -89l-14 20l152 99z" />
    <glyph glyph-name="uni0302" unicode="&#x302;" horiz-adv-x="0" 
d="M-164 697l-112 -70l-14 22l126 80l124 -80l-13 -23z" />
    <glyph glyph-name="tildecomb" unicode="&#x303;" horiz-adv-x="0" 
d="M-220 681q19 0 32 -7.5t24.5 -17t24 -17t29.5 -7.5q15 0 27.5 11.5t15.5 34.5h27q-3 -33 -22.5 -53.5t-48.5 -20.5q-20 0 -34 7.5t-25.5 16.5t-23.5 16.5t-27 7.5q-35 0 -41 -47h-27q5 36 22.5 56t46.5 20z" />
    <glyph glyph-name="uni0306" unicode="&#x306;" horiz-adv-x="0" 
d="M-163 614q-32 0 -55 9.5t-38 25.5t-22.5 36t-7.5 41v5h29q0 -41 24 -63t70 -22t70.5 22t24.5 63h28v-5q0 -21 -7.5 -41t-22.5 -36t-38 -25.5t-55 -9.5z" />
    <glyph glyph-name="hookabovecomb" unicode="&#x309;" horiz-adv-x="0" 
d="M-171 735q38 0 56.5 -18.5t18.5 -53.5q0 -27 -18 -47t-49 -50l-19 18q23 22 40 40.5t17 38.5q0 26 -11 35.5t-36 9.5q-26 0 -34.5 -13.5t-12.5 -36.5l-28 1q1 12 4.5 25.5t11.5 24.5t22 18.5t38 7.5z" />
    <glyph glyph-name="uni031B" unicode="&#x31b;" horiz-adv-x="0" 
d="M-163 543q47 0 77.5 26.5t30.5 91.5h36q0 -40 -11.5 -69t-31 -48t-46 -27.5t-55.5 -8.5v35z" />
    <glyph glyph-name="dotbelowcomb" unicode="&#x323;" horiz-adv-x="0" 
d="M-117 -117q0 15 11 26t26 11q16 0 26.5 -11t10.5 -26t-10.5 -26t-26.5 -11q-15 0 -26 11t-11 26z" />
    <glyph glyph-name="pi" unicode="&#x3c0;" horiz-adv-x="719" 
d="M662 543v-36h-84v-507h-46v507h-344v-507h-46v507h-84v36h604z" />
    <glyph glyph-name="Wgrave" unicode="&#x1e80;" horiz-adv-x="929" 
d="M546 752l-144 103l17 26l139 -107zM894 705l-185 -705h-52l-193 636l-192 -636h-52l-186 705h51l161 -640l193 640h51l192 -640l161 640h51z" />
    <glyph glyph-name="wgrave" unicode="&#x1e81;" horiz-adv-x="816" 
d="M490 590l-144 103l17 26l139 -107zM798 543l-165 -543h-44l-181 483l-181 -483h-44l-166 543h47l143 -487l179 487h45l180 -487l143 487h44z" />
    <glyph glyph-name="Wacute" unicode="&#x1e82;" horiz-adv-x="929" 
d="M403 758l-14 20l152 99l15 -30zM894 705l-185 -705h-52l-193 636l-192 -636h-52l-186 705h51l161 -640l193 640h51l192 -640l161 640h51z" />
    <glyph glyph-name="wacute" unicode="&#x1e83;" horiz-adv-x="816" 
d="M347 596l-14 20l152 99l15 -30zM798 543l-165 -543h-44l-181 483l-181 -483h-44l-166 543h47l143 -487l179 487h45l180 -487l143 487h44z" />
    <glyph glyph-name="Wdieresis" unicode="&#x1e84;" horiz-adv-x="929" 
d="M392 788q-16 0 -26.5 11t-10.5 26t10.5 26t26.5 11t26.5 -11t10.5 -26t-10.5 -26t-26.5 -11zM538 788q-16 0 -26.5 11t-10.5 26t10.5 26t26.5 11q15 0 25.5 -11t10.5 -26t-10.5 -26t-25.5 -11zM894 705l-185 -705h-52l-193 636l-192 -636h-52l-186 705h51l161 -640
l193 640h51l192 -640l161 640h51z" />
    <glyph glyph-name="wdieresis" unicode="&#x1e85;" horiz-adv-x="816" 
d="M335 626q-16 0 -26.5 11t-10.5 26t10.5 26t26.5 11t26.5 -11t10.5 -26t-10.5 -26t-26.5 -11zM481 626q-16 0 -26.5 11t-10.5 26t10.5 26t26.5 11q15 0 25.5 -11t10.5 -26t-10.5 -26t-25.5 -11zM798 543l-165 -543h-44l-181 483l-181 -483h-44l-166 543h47l143 -487
l179 487h45l180 -487l143 487h44z" />
    <glyph glyph-name="uni1EA0" unicode="&#x1ea0;" horiz-adv-x="623" 
d="M547 0l-68 183h-334l-69 -183h-50l261 686h50l259 -686h-49zM465 220l-153 411l-154 -411h307zM312 -80q16 0 26.5 -11t10.5 -26t-10.5 -26t-26.5 -11q-15 0 -26 11t-11 26t11 26t26 11z" />
    <glyph glyph-name="uni1EA1" unicode="&#x1ea1;" 
d="M314 550q46 0 84 -12.5t67.5 -35t50.5 -53.5t31 -68v162h45v-543h-45v162q-10 -37 -31 -68t-50.5 -53.5t-67.5 -35t-84 -12.5q-57 0 -104.5 19t-82 55t-53.5 88t-19 117t19 116.5t53.5 87.5t82 55t104.5 19zM324 510q-51 0 -92 -16.5t-70.5 -47t-45 -74.5t-15.5 -100
t15.5 -100.5t45 -75t70.5 -47t92 -16.5q48 0 89 17t71 48t46.5 75.5t16.5 98.5t-16.5 98t-46.5 75t-71 48t-89 17zM300 -117q0 15 11 26t26 11q16 0 26.5 -11t10.5 -26t-10.5 -26t-26.5 -11q-15 0 -26 11t-11 26z" />
    <glyph glyph-name="uni1EA2" unicode="&#x1ea2;" horiz-adv-x="623" 
d="M310 913q-26 0 -34.5 -13.5t-12.5 -36.5l-28 1q2 12 5 25.5t11 24.5t22 18.5t38 7.5q38 0 56.5 -18.5t18.5 -53.5q0 -27 -18 -47t-49 -50l-19 18q23 22 40 40.5t17 38.5q0 26 -11 35.5t-36 9.5zM479 183h-334l-69 -183h-50l261 686h50l259 -686h-49zM465 220l-153 411
l-154 -411h307z" />
    <glyph glyph-name="uni1EA3" unicode="&#x1ea3;" 
d="M336 778q38 0 56.5 -18.5t18.5 -53.5q0 -27 -18 -47t-49 -50l-19 18q23 22 40 40.5t17 38.5q0 26 -11 35.5t-36 9.5q-26 0 -34.5 -13.5t-12.5 -36.5l-28 1q2 12 5 25.5t11 24.5t22 18.5t38 7.5zM314 550q46 0 84 -12.5t67.5 -35t50.5 -53.5t31 -68v162h45v-543h-45v162
q-10 -37 -31 -68t-50.5 -53.5t-67.5 -35t-84 -12.5q-57 0 -104.5 19t-82 55t-53.5 88t-19 117t19 116.5t53.5 87.5t82 55t104.5 19zM324 510q-51 0 -92 -16.5t-70.5 -47t-45 -74.5t-15.5 -100t15.5 -100.5t45 -75t70.5 -47t92 -16.5q48 0 89 17t71 48t46.5 75.5t16.5 98.5
t-16.5 98t-46.5 75t-71 48t-89 17z" />
    <glyph glyph-name="uni1EA4" unicode="&#x1ea4;" horiz-adv-x="623" 
d="M250 865l-13 20l150 98l15 -30zM201 760l-13 22l124 79l123 -79l-13 -23l-110 70zM479 183h-334l-69 -183h-50l261 686h50l259 -686h-49zM465 220l-153 411l-154 -411h307z" />
    <glyph glyph-name="uni1EA5" unicode="&#x1ea5;" 
d="M427 791l-152 -88l-13 20l150 98zM337 667l-111 -69l-13 22l124 79l123 -79l-13 -23zM314 550q46 0 84 -12.5t67.5 -35t50.5 -53.5t31 -68v162h45v-543h-45v162q-10 -37 -31 -68t-50.5 -53.5t-67.5 -35t-84 -12.5q-57 0 -104.5 19t-82 55t-53.5 88t-19 117t19 116.5
t53.5 87.5t82 55t104.5 19zM324 510q-51 0 -92 -16.5t-70.5 -47t-45 -74.5t-15.5 -100t15.5 -100.5t45 -75t70.5 -47t92 -16.5q48 0 89 17t71 48t46.5 75.5t16.5 98.5t-16.5 98t-46.5 75t-71 48t-89 17z" />
    <glyph glyph-name="uni1EA6" unicode="&#x1ea6;" horiz-adv-x="623" 
d="M435 843l-142 102l17 26l137 -106zM201 760l-13 22l124 79l123 -79l-13 -23l-110 70zM479 183h-334l-69 -183h-50l261 686h50l259 -686h-49zM465 220l-153 411l-154 -411h307z" />
    <glyph glyph-name="uni1EA7" unicode="&#x1ea7;" 
d="M472 703l-12 -22l-142 102l17 26zM337 667l-111 -69l-13 22l124 79l123 -79l-13 -23zM314 550q46 0 84 -12.5t67.5 -35t50.5 -53.5t31 -68v162h45v-543h-45v162q-10 -37 -31 -68t-50.5 -53.5t-67.5 -35t-84 -12.5q-57 0 -104.5 19t-82 55t-53.5 88t-19 117t19 116.5
t53.5 87.5t82 55t104.5 19zM324 510q-51 0 -92 -16.5t-70.5 -47t-45 -74.5t-15.5 -100t15.5 -100.5t45 -75t70.5 -47t92 -16.5q48 0 89 17t71 48t46.5 75.5t16.5 98.5t-16.5 98t-46.5 75t-71 48t-89 17z" />
    <glyph glyph-name="uni1EA8" unicode="&#x1ea8;" horiz-adv-x="623" 
d="M455 949q-26 0 -34 -13.5t-12 -35.5l-28 1q2 12 5 25t11 24t22 18.5t37 7.5q38 0 56 -18.5t18 -53.5q0 -26 -17.5 -46t-48.5 -49l-19 17q23 22 40 40t17 38q0 26 -11 35.5t-36 9.5zM201 760l-13 22l124 79l123 -79l-13 -23l-110 70zM479 183h-334l-69 -183h-50l261 686
h50l259 -686h-49zM465 220l-153 411l-154 -411h307z" />
    <glyph glyph-name="uni1EA9" unicode="&#x1ea9;" 
d="M481 814q38 0 56 -18.5t18 -53.5q0 -26 -17.5 -46t-48.5 -49l-19 17q23 22 40 40t17 38q0 26 -11 35.5t-36 9.5q-26 0 -34 -13.5t-12 -35.5l-28 1q2 12 5 25t11 24t22 18.5t37 7.5zM337 667l-111 -69l-13 22l124 79l123 -79l-13 -23zM314 550q46 0 84 -12.5t67.5 -35
t50.5 -53.5t31 -68v162h45v-543h-45v162q-10 -37 -31 -68t-50.5 -53.5t-67.5 -35t-84 -12.5q-57 0 -104.5 19t-82 55t-53.5 88t-19 117t19 116.5t53.5 87.5t82 55t104.5 19zM324 510q-51 0 -92 -16.5t-70.5 -47t-45 -74.5t-15.5 -100t15.5 -100.5t45 -75t70.5 -47t92 -16.5
q48 0 89 17t71 48t46.5 75.5t16.5 98.5t-16.5 98t-46.5 75t-71 48t-89 17z" />
    <glyph glyph-name="uni1EAA" unicode="&#x1eaa;" horiz-adv-x="623" 
d="M273 919q-34 0 -40 -46h-26q5 35 22 54.5t45 19.5q18 0 31 -7.5t24 -16.5t23 -16.5t28 -7.5q15 0 27 11.5t15 33.5h26q-3 -32 -22 -52t-47 -20q-19 0 -32.5 7.5t-25 16t-22.5 16t-26 7.5zM201 760l-13 22l124 79l123 -79l-13 -23l-110 70zM479 183h-334l-69 -183h-50
l261 686h50l259 -686h-49zM465 220l-153 411l-154 -411h307z" />
    <glyph glyph-name="uni1EAB" unicode="&#x1eab;" 
d="M299 785q18 0 31 -7.5t24 -16.5t23 -16.5t28 -7.5q15 0 27 11.5t15 33.5h26q-3 -32 -22 -52t-47 -20q-19 0 -32.5 7.5t-25 16t-22.5 16t-26 7.5q-34 0 -40 -46h-26q5 35 22 54.5t45 19.5zM337 667l-111 -69l-13 22l124 79l123 -79l-13 -23zM314 550q46 0 84 -12.5
t67.5 -35t50.5 -53.5t31 -68v162h45v-543h-45v162q-10 -37 -31 -68t-50.5 -53.5t-67.5 -35t-84 -12.5q-57 0 -104.5 19t-82 55t-53.5 88t-19 117t19 116.5t53.5 87.5t82 55t104.5 19zM324 510q-51 0 -92 -16.5t-70.5 -47t-45 -74.5t-15.5 -100t15.5 -100.5t45 -75t70.5 -47
t92 -16.5q48 0 89 17t71 48t46.5 75.5t16.5 98.5t-16.5 98t-46.5 75t-71 48t-89 17z" />
    <glyph glyph-name="uni1EAC" unicode="&#x1eac;" horiz-adv-x="623" 
d="M200 760l-14 22l126 80l124 -80l-13 -23l-111 71zM547 0l-68 183h-334l-69 -183h-50l261 686h50l259 -686h-49zM465 220l-153 411l-154 -411h307zM312 -80q16 0 26.5 -11t10.5 -26t-10.5 -26t-26.5 -11q-15 0 -26 11t-11 26t11 26t26 11z" />
    <glyph glyph-name="uni1EAD" unicode="&#x1ead;" 
d="M337 668l-112 -70l-14 22l126 80l124 -80l-13 -23zM314 550q46 0 84 -12.5t67.5 -35t50.5 -53.5t31 -68v162h45v-543h-45v162q-10 -37 -31 -68t-50.5 -53.5t-67.5 -35t-84 -12.5q-57 0 -104.5 19t-82 55t-53.5 88t-19 117t19 116.5t53.5 87.5t82 55t104.5 19zM324 510
q-51 0 -92 -16.5t-70.5 -47t-45 -74.5t-15.5 -100t15.5 -100.5t45 -75t70.5 -47t92 -16.5q48 0 89 17t71 48t46.5 75.5t16.5 98.5t-16.5 98t-46.5 75t-71 48t-89 17zM300 -117q0 15 11 26t26 11q16 0 26.5 -11t10.5 -26t-10.5 -26t-26.5 -11q-15 0 -26 11t-11 26z" />
    <glyph glyph-name="uni1EAE" unicode="&#x1eae;" horiz-adv-x="623" 
d="M304 913l-13 20l150 98l15 -30zM312 775q-31 0 -54 9.5t-38 25t-22 35.5t-7 41v5h28q0 -41 24 -62.5t69 -21.5t69.5 21.5t24.5 62.5h28v-5q0 -21 -7 -41t-22 -35.5t-38 -25t-55 -9.5zM479 183h-334l-69 -183h-50l261 686h50l259 -686h-49zM465 220l-153 411l-154 -411
h307z" />
    <glyph glyph-name="uni1EAF" unicode="&#x1eaf;" 
d="M481 839l-152 -88l-13 20l150 98zM337 613q-31 0 -54 9.5t-38 25t-22 35.5t-7 41v5h28q0 -41 24 -62.5t69 -21.5t69.5 21.5t24.5 62.5h28v-5q0 -21 -7 -41t-22 -35.5t-38 -25t-55 -9.5zM314 550q46 0 84 -12.5t67.5 -35t50.5 -53.5t31 -68v162h45v-543h-45v162
q-10 -37 -31 -68t-50.5 -53.5t-67.5 -35t-84 -12.5q-57 0 -104.5 19t-82 55t-53.5 88t-19 117t19 116.5t53.5 87.5t82 55t104.5 19zM324 510q-51 0 -92 -16.5t-70.5 -47t-45 -74.5t-15.5 -100t15.5 -100.5t45 -75t70.5 -47t92 -16.5q48 0 89 17t71 48t46.5 75.5t16.5 98.5
t-16.5 98t-46.5 75t-71 48t-89 17z" />
    <glyph glyph-name="uni1EB0" unicode="&#x1eb0;" horiz-adv-x="623" 
d="M326 899l-142 102l17 26l137 -106zM219 891q0 -41 24 -62.5t69 -21.5t69.5 21.5t24.5 62.5h28v-5q0 -21 -7 -41t-22 -35.5t-38 -25t-55 -9.5q-31 0 -54 9.5t-38 25t-22 35.5t-7 41v5h28zM479 183h-334l-69 -183h-50l261 686h50l259 -686h-49zM465 220l-153 411l-154 -411
h307z" />
    <glyph glyph-name="uni1EB1" unicode="&#x1eb1;" 
d="M363 759l-12 -22l-142 102l17 26zM337 613q-31 0 -54 9.5t-38 25t-22 35.5t-7 41v5h28q0 -41 24 -62.5t69 -21.5t69.5 21.5t24.5 62.5h28v-5q0 -21 -7 -41t-22 -35.5t-38 -25t-55 -9.5zM314 550q46 0 84 -12.5t67.5 -35t50.5 -53.5t31 -68v162h45v-543h-45v162
q-10 -37 -31 -68t-50.5 -53.5t-67.5 -35t-84 -12.5q-57 0 -104.5 19t-82 55t-53.5 88t-19 117t19 116.5t53.5 87.5t82 55t104.5 19zM324 510q-51 0 -92 -16.5t-70.5 -47t-45 -74.5t-15.5 -100t15.5 -100.5t45 -75t70.5 -47t92 -16.5q48 0 89 17t71 48t46.5 75.5t16.5 98.5
t-16.5 98t-46.5 75t-71 48t-89 17z" />
    <glyph glyph-name="uni1EB2" unicode="&#x1eb2;" horiz-adv-x="623" 
d="M303 1029q-26 0 -34 -13.5t-12 -35.5l-28 1q2 12 5 25t11 24t22 18.5t37 7.5q38 0 56 -18.5t18 -53.5q0 -26 -17.5 -46t-48.5 -49l-19 17q23 22 40 40t17 38q0 26 -11 35.5t-36 9.5zM312 775q-31 0 -54 9.5t-38 25t-22 35.5t-7 41v5h28q0 -41 24 -62.5t69 -21.5
t69.5 21.5t24.5 62.5h28v-5q0 -21 -7 -41t-22 -35.5t-38 -25t-55 -9.5zM479 183h-334l-69 -183h-50l261 686h50l259 -686h-49zM465 220l-153 411l-154 -411h307z" />
    <glyph glyph-name="uni1EB3" unicode="&#x1eb3;" 
d="M329 894q38 0 56 -18.5t18 -53.5q0 -26 -17.5 -46t-48.5 -49l-19 17q23 22 40 40t17 38q0 26 -11 35.5t-36 9.5q-26 0 -34 -13.5t-12 -35.5l-28 1q2 12 5 25t11 24t22 18.5t37 7.5zM337 613q-31 0 -54 9.5t-38 25t-22 35.5t-7 41v5h28q0 -41 24 -62.5t69 -21.5t69.5 21.5
t24.5 62.5h28v-5q0 -21 -7 -41t-22 -35.5t-38 -25t-55 -9.5zM314 550q46 0 84 -12.5t67.5 -35t50.5 -53.5t31 -68v162h45v-543h-45v162q-10 -37 -31 -68t-50.5 -53.5t-67.5 -35t-84 -12.5q-57 0 -104.5 19t-82 55t-53.5 88t-19 117t19 116.5t53.5 87.5t82 55t104.5 19z
M324 510q-51 0 -92 -16.5t-70.5 -47t-45 -74.5t-15.5 -100t15.5 -100.5t45 -75t70.5 -47t92 -16.5q48 0 89 17t71 48t46.5 75.5t16.5 98.5t-16.5 98t-46.5 75t-71 48t-89 17z" />
    <glyph glyph-name="uni1EB4" unicode="&#x1eb4;" horiz-adv-x="623" 
d="M259 973q-35 0 -41 -47h-26q5 36 22 55.5t46 19.5q19 0 32 -7.5t24 -16.5t23.5 -16.5t29.5 -7.5q14 0 26.5 11.5t15.5 33.5h27q-3 -32 -22.5 -52.5t-47.5 -20.5q-20 0 -34 7.5t-25.5 16.5t-23 16.5t-26.5 7.5zM312 775q-31 0 -54 9.5t-38 25t-22 35.5t-7 41v5h28
q0 -41 24 -62.5t69 -21.5t69.5 21.5t24.5 62.5h28v-5q0 -21 -7 -41t-22 -35.5t-38 -25t-55 -9.5zM479 183h-334l-69 -183h-50l261 686h50l259 -686h-49zM465 220l-153 411l-154 -411h307z" />
    <glyph glyph-name="uni1EB5" unicode="&#x1eb5;" 
d="M285 839q19 0 32 -7.5t24 -16.5t23.5 -16.5t29.5 -7.5q14 0 26.5 11.5t15.5 33.5h27q-3 -32 -22.5 -52.5t-47.5 -20.5q-20 0 -34 7.5t-25.5 16.5t-23 16.5t-26.5 7.5q-35 0 -41 -47h-26q5 36 22 55.5t46 19.5zM337 613q-31 0 -54 9.5t-38 25t-22 35.5t-7 41v5h28
q0 -41 24 -62.5t69 -21.5t69.5 21.5t24.5 62.5h28v-5q0 -21 -7 -41t-22 -35.5t-38 -25t-55 -9.5zM314 550q46 0 84 -12.5t67.5 -35t50.5 -53.5t31 -68v162h45v-543h-45v162q-10 -37 -31 -68t-50.5 -53.5t-67.5 -35t-84 -12.5q-57 0 -104.5 19t-82 55t-53.5 88t-19 117
t19 116.5t53.5 87.5t82 55t104.5 19zM324 510q-51 0 -92 -16.5t-70.5 -47t-45 -74.5t-15.5 -100t15.5 -100.5t45 -75t70.5 -47t92 -16.5q48 0 89 17t71 48t46.5 75.5t16.5 98.5t-16.5 98t-46.5 75t-71 48t-89 17z" />
    <glyph glyph-name="uni1EB6" unicode="&#x1eb6;" horiz-adv-x="623" 
d="M312 776q-32 0 -55 9.5t-38 25.5t-22.5 36t-7.5 41v5h29q0 -41 24 -63t70 -22t70.5 22t24.5 63h28v-5q0 -21 -7.5 -41t-22.5 -36t-38 -25.5t-55 -9.5zM547 0l-68 183h-334l-69 -183h-50l261 686h50l259 -686h-49zM465 220l-153 411l-154 -411h307zM312 -80q16 0 26.5 -11
t10.5 -26t-10.5 -26t-26.5 -11q-15 0 -26 11t-11 26t11 26t26 11z" />
    <glyph glyph-name="uni1EB7" unicode="&#x1eb7;" 
d="M337 614q-32 0 -55 9.5t-38 25.5t-22.5 36t-7.5 41v5h29q0 -41 24 -63t70 -22t70.5 22t24.5 63h28v-5q0 -21 -7.5 -41t-22.5 -36t-38 -25.5t-55 -9.5zM314 550q46 0 84 -12.5t67.5 -35t50.5 -53.5t31 -68v162h45v-543h-45v162q-10 -37 -31 -68t-50.5 -53.5t-67.5 -35
t-84 -12.5q-57 0 -104.5 19t-82 55t-53.5 88t-19 117t19 116.5t53.5 87.5t82 55t104.5 19zM324 510q-51 0 -92 -16.5t-70.5 -47t-45 -74.5t-15.5 -100t15.5 -100.5t45 -75t70.5 -47t92 -16.5q48 0 89 17t71 48t46.5 75.5t16.5 98.5t-16.5 98t-46.5 75t-71 48t-89 17z
M300 -117q0 15 11 26t26 11q16 0 26.5 -11t10.5 -26t-10.5 -26t-26.5 -11q-15 0 -26 11t-11 26z" />
    <glyph glyph-name="uni1EB8" unicode="&#x1eb8;" horiz-adv-x="489" 
d="M126 667v-296h285v-36h-285v-297h315v-38h-360v705h360v-38h-315zM208 -117q0 15 11 26t26 11q16 0 26.5 -11t10.5 -26t-10.5 -26t-26.5 -11q-15 0 -26 11t-11 26z" />
    <glyph glyph-name="uni1EB9" unicode="&#x1eb9;" horiz-adv-x="627" 
d="M317 31q82 0 138 41.5t68 113.5h47q-7 -42 -27.5 -77.5t-52.5 -61t-75 -40t-96 -14.5q-57 0 -105.5 19t-84 55t-55 87.5t-19.5 117.5q0 65 19.5 116.5t55 87.5t84 55t105.5 19q62 0 109 -20t79 -53.5t48.5 -76.5t16.5 -88q0 -19 -1.5 -29.5t-3.5 -23.5h-467
q1 -60 19.5 -103t48.5 -70.5t69 -41t80 -13.5zM319 513q-42 0 -81.5 -13.5t-69.5 -41t-48.5 -70.5t-19.5 -102h428q3 59 -14 102t-46.5 71t-68.5 41t-80 13zM313 -80q16 0 26.5 -11t10.5 -26t-10.5 -26t-26.5 -11q-15 0 -26 11t-11 26t11 26t26 11z" />
    <glyph glyph-name="uni1EBA" unicode="&#x1eba;" horiz-adv-x="489" 
d="M244 940q38 0 56.5 -18.5t18.5 -53.5q0 -27 -18 -47t-49 -50l-19 18q23 22 40 40.5t17 38.5q0 26 -11 35.5t-36 9.5q-26 0 -34.5 -13.5t-12.5 -36.5l-28 1q2 12 5 25.5t11 24.5t22 18.5t38 7.5zM126 667v-296h285v-36h-285v-297h315v-38h-360v705h360v-38h-315z" />
    <glyph glyph-name="uni1EBB" unicode="&#x1ebb;" horiz-adv-x="627" 
d="M311 751q-26 0 -34.5 -13.5t-12.5 -36.5l-28 1q2 12 5 25.5t11 24.5t22 18.5t38 7.5q38 0 56.5 -18.5t18.5 -53.5q0 -27 -18 -47t-49 -50l-19 18q23 22 40 40.5t17 38.5q0 26 -11 35.5t-36 9.5zM317 31q82 0 138 41.5t68 113.5h47q-7 -42 -27.5 -77.5t-52.5 -61t-75 -40
t-96 -14.5q-57 0 -105.5 19t-84 55t-55 87.5t-19.5 117.5q0 65 19.5 116.5t55 87.5t84 55t105.5 19q62 0 109 -20t79 -53.5t48.5 -76.5t16.5 -88q0 -19 -1.5 -29.5t-3.5 -23.5h-467q1 -60 19.5 -103t48.5 -70.5t69 -41t80 -13.5zM319 513q-42 0 -81.5 -13.5t-69.5 -41
t-48.5 -70.5t-19.5 -102h428q3 59 -14 102t-46.5 71t-68.5 41t-80 13z" />
    <glyph glyph-name="uni1EBC" unicode="&#x1ebc;" horiz-adv-x="489" 
d="M190 843q19 0 32 -7.5t24.5 -17t24 -17t29.5 -7.5q15 0 27.5 11.5t15.5 34.5h27q-3 -33 -22.5 -53.5t-48.5 -20.5q-20 0 -34 7.5t-25.5 16.5t-23.5 16.5t-27 7.5q-35 0 -41 -47h-27q5 36 22.5 56t46.5 20zM126 667v-296h285v-36h-285v-297h315v-38h-360v705h360v-38h-315
z" />
    <glyph glyph-name="uni1EBD" unicode="&#x1ebd;" horiz-adv-x="627" 
d="M257 652q-35 0 -41 -47h-27q5 36 22.5 56t46.5 20q19 0 32 -7.5t24.5 -17t24 -17t29.5 -7.5q15 0 27.5 11.5t15.5 34.5h27q-3 -33 -22.5 -53.5t-48.5 -20.5q-20 0 -34 7.5t-25.5 16.5t-23.5 16.5t-27 7.5zM317 31q82 0 138 41.5t68 113.5h47q-7 -42 -27.5 -77.5
t-52.5 -61t-75 -40t-96 -14.5q-57 0 -105.5 19t-84 55t-55 87.5t-19.5 117.5q0 65 19.5 116.5t55 87.5t84 55t105.5 19q62 0 109 -20t79 -53.5t48.5 -76.5t16.5 -88q0 -19 -1.5 -29.5t-3.5 -23.5h-467q1 -60 19.5 -103t48.5 -70.5t69 -41t80 -13.5zM319 513
q-42 0 -81.5 -13.5t-69.5 -41t-48.5 -70.5t-19.5 -102h428q3 59 -14 102t-46.5 71t-68.5 41t-80 13z" />
    <glyph glyph-name="uni1EBE" unicode="&#x1ebe;" horiz-adv-x="489" 
d="M335 953l-152 -88l-13 20l150 98zM245 829l-111 -69l-13 22l124 79l123 -79l-13 -23zM126 667v-296h285v-36h-285v-297h315v-38h-360v705h360v-38h-315z" />
    <glyph glyph-name="uni1EBF" unicode="&#x1ebf;" horiz-adv-x="627" 
d="M251 703l-13 20l150 98l15 -30zM202 598l-13 22l124 79l123 -79l-13 -23l-110 70zM317 31q82 0 138 41.5t68 113.5h47q-7 -42 -27.5 -77.5t-52.5 -61t-75 -40t-96 -14.5q-57 0 -105.5 19t-84 55t-55 87.5t-19.5 117.5q0 65 19.5 116.5t55 87.5t84 55t105.5 19
q62 0 109 -20t79 -53.5t48.5 -76.5t16.5 -88q0 -19 -1.5 -29.5t-3.5 -23.5h-467q1 -60 19.5 -103t48.5 -70.5t69 -41t80 -13.5zM319 513q-42 0 -81.5 -13.5t-69.5 -41t-48.5 -70.5t-19.5 -102h428q3 59 -14 102t-46.5 71t-68.5 41t-80 13z" />
    <glyph glyph-name="uni1EC0" unicode="&#x1ec0;" horiz-adv-x="489" 
d="M380 865l-12 -22l-142 102l17 26zM245 829l-111 -69l-13 22l124 79l123 -79l-13 -23zM126 667v-296h285v-36h-285v-297h315v-38h-360v705h360v-38h-315z" />
    <glyph glyph-name="uni1EC1" unicode="&#x1ec1;" horiz-adv-x="627" 
d="M436 681l-142 102l17 26l137 -106zM202 598l-13 22l124 79l123 -79l-13 -23l-110 70zM317 31q82 0 138 41.5t68 113.5h47q-7 -42 -27.5 -77.5t-52.5 -61t-75 -40t-96 -14.5q-57 0 -105.5 19t-84 55t-55 87.5t-19.5 117.5q0 65 19.5 116.5t55 87.5t84 55t105.5 19
q62 0 109 -20t79 -53.5t48.5 -76.5t16.5 -88q0 -19 -1.5 -29.5t-3.5 -23.5h-467q1 -60 19.5 -103t48.5 -70.5t69 -41t80 -13.5zM319 513q-42 0 -81.5 -13.5t-69.5 -41t-48.5 -70.5t-19.5 -102h428q3 59 -14 102t-46.5 71t-68.5 41t-80 13z" />
    <glyph glyph-name="uni1EC2" unicode="&#x1ec2;" horiz-adv-x="489" 
d="M389 976q38 0 56 -18.5t18 -53.5q0 -26 -17.5 -46t-48.5 -49l-19 17q23 22 40 40t17 38q0 26 -11 35.5t-36 9.5q-26 0 -34 -13.5t-12 -35.5l-28 1q2 12 5 25t11 24t22 18.5t37 7.5zM245 829l-111 -69l-13 22l124 79l123 -79l-13 -23zM126 667v-296h285v-36h-285v-297h315
v-38h-360v705h360v-38h-315z" />
    <glyph glyph-name="uni1EC3" unicode="&#x1ec3;" horiz-adv-x="627" 
d="M456 787q-26 0 -34 -13.5t-12 -35.5l-28 1q2 12 5 25t11 24t22 18.5t37 7.5q38 0 56 -18.5t18 -53.5q0 -26 -17.5 -46t-48.5 -49l-19 17q23 22 40 40t17 38q0 26 -11 35.5t-36 9.5zM202 598l-13 22l124 79l123 -79l-13 -23l-110 70zM317 31q82 0 138 41.5t68 113.5h47
q-7 -42 -27.5 -77.5t-52.5 -61t-75 -40t-96 -14.5q-57 0 -105.5 19t-84 55t-55 87.5t-19.5 117.5q0 65 19.5 116.5t55 87.5t84 55t105.5 19q62 0 109 -20t79 -53.5t48.5 -76.5t16.5 -88q0 -19 -1.5 -29.5t-3.5 -23.5h-467q1 -60 19.5 -103t48.5 -70.5t69 -41t80 -13.5z
M319 513q-42 0 -81.5 -13.5t-69.5 -41t-48.5 -70.5t-19.5 -102h428q3 59 -14 102t-46.5 71t-68.5 41t-80 13z" />
    <glyph glyph-name="uni1EC4" unicode="&#x1ec4;" horiz-adv-x="489" 
d="M207 947q18 0 31 -7.5t24 -16.5t23 -16.5t28 -7.5q15 0 27 11.5t15 33.5h26q-3 -32 -22 -52t-47 -20q-19 0 -32.5 7.5t-25 16t-22.5 16t-26 7.5q-34 0 -40 -46h-26q5 35 22 54.5t45 19.5zM245 829l-111 -69l-13 22l124 79l123 -79l-13 -23zM126 667v-296h285v-36h-285
v-297h315v-38h-360v705h360v-38h-315z" />
    <glyph glyph-name="uni1EC5" unicode="&#x1ec5;" horiz-adv-x="627" 
d="M274 757q-34 0 -40 -46h-26q5 35 22 54.5t45 19.5q18 0 31 -7.5t24 -16.5t23 -16.5t28 -7.5q15 0 27 11.5t15 33.5h26q-3 -32 -22 -52t-47 -20q-19 0 -32.5 7.5t-25 16t-22.5 16t-26 7.5zM202 598l-13 22l124 79l123 -79l-13 -23l-110 70zM317 31q82 0 138 41.5t68 113.5
h47q-7 -42 -27.5 -77.5t-52.5 -61t-75 -40t-96 -14.5q-57 0 -105.5 19t-84 55t-55 87.5t-19.5 117.5q0 65 19.5 116.5t55 87.5t84 55t105.5 19q62 0 109 -20t79 -53.5t48.5 -76.5t16.5 -88q0 -19 -1.5 -29.5t-3.5 -23.5h-467q1 -60 19.5 -103t48.5 -70.5t69 -41t80 -13.5z
M319 513q-42 0 -81.5 -13.5t-69.5 -41t-48.5 -70.5t-19.5 -102h428q3 59 -14 102t-46.5 71t-68.5 41t-80 13z" />
    <glyph glyph-name="uni1EC6" unicode="&#x1ec6;" horiz-adv-x="489" 
d="M245 830l-112 -70l-14 22l126 80l124 -80l-13 -23zM126 667v-296h285v-36h-285v-297h315v-38h-360v705h360v-38h-315zM208 -117q0 15 11 26t26 11q16 0 26.5 -11t10.5 -26t-10.5 -26t-26.5 -11q-15 0 -26 11t-11 26z" />
    <glyph glyph-name="uni1EC7" unicode="&#x1ec7;" horiz-adv-x="627" 
d="M201 598l-14 22l126 80l124 -80l-13 -23l-111 71zM317 31q82 0 138 41.5t68 113.5h47q-7 -42 -27.5 -77.5t-52.5 -61t-75 -40t-96 -14.5q-57 0 -105.5 19t-84 55t-55 87.5t-19.5 117.5q0 65 19.5 116.5t55 87.5t84 55t105.5 19q62 0 109 -20t79 -53.5t48.5 -76.5
t16.5 -88q0 -19 -1.5 -29.5t-3.5 -23.5h-467q1 -60 19.5 -103t48.5 -70.5t69 -41t80 -13.5zM319 513q-42 0 -81.5 -13.5t-69.5 -41t-48.5 -70.5t-19.5 -102h428q3 59 -14 102t-46.5 71t-68.5 41t-80 13zM313 -80q16 0 26.5 -11t10.5 -26t-10.5 -26t-26.5 -11q-15 0 -26 11
t-11 26t11 26t26 11z" />
    <glyph glyph-name="uni1EC8" unicode="&#x1ec8;" horiz-adv-x="207" 
d="M102 940q38 0 56.5 -18.5t18.5 -53.5q0 -27 -18 -47t-49 -50l-19 18q23 22 40 40.5t17 38.5q0 26 -11 35.5t-36 9.5q-26 0 -34.5 -13.5t-12.5 -36.5l-28 1q2 12 5 25.5t11 24.5t22 18.5t38 7.5zM126 705v-705h-45v705h45z" />
    <glyph glyph-name="uni1EC9" unicode="&#x1ec9;" horiz-adv-x="213" 
d="M105 778q38 0 56.5 -18.5t18.5 -53.5q0 -27 -18 -47t-49 -50l-19 18q23 22 40 40.5t17 38.5q0 26 -11 35.5t-36 9.5q-26 0 -34.5 -13.5t-12.5 -36.5l-28 1q2 12 5 25.5t11 24.5t22 18.5t38 7.5zM129 543v-543h-45v543h45z" />
    <glyph glyph-name="uni1ECA" unicode="&#x1eca;" horiz-adv-x="207" 
d="M126 705v-705h-45v705h45zM66 -117q0 15 11 26t26 11q16 0 26.5 -11t10.5 -26t-10.5 -26t-26.5 -11q-15 0 -26 11t-11 26z" />
    <glyph glyph-name="uni1ECB" unicode="&#x1ecb;" horiz-adv-x="207" 
d="M65 707q0 17 10.5 27t27.5 10t28 -10t11 -27t-11 -27.5t-28 -10.5t-27.5 10.5t-10.5 27.5zM126 543v-543h-45v543h45zM66 -117q0 15 11 26t26 11q16 0 26.5 -11t10.5 -26t-10.5 -26t-26.5 -11q-15 0 -26 11t-11 26z" />
    <glyph glyph-name="uni1ECC" unicode="&#x1ecc;" horiz-adv-x="792" 
d="M396 711q74 0 136 -26.5t107 -74t70.5 -113.5t25.5 -145t-25.5 -145t-70.5 -114t-107 -74.5t-136 -26.5t-136.5 26.5t-107.5 74.5t-70.5 114t-25.5 145t25.5 145t70.5 113.5t107.5 74t136.5 26.5zM396 670q-62 0 -115.5 -22t-93 -63t-62 -100t-22.5 -133t22.5 -133
t62 -100t93 -63t115.5 -22t115 22t93 63t62.5 100t22.5 133t-22.5 133t-62.5 100t-93 63t-115 22zM359 -117q0 15 11 26t26 11q16 0 26.5 -11t10.5 -26t-10.5 -26t-26.5 -11q-15 0 -26 11t-11 26z" />
    <glyph glyph-name="uni1ECD" unicode="&#x1ecd;" horiz-adv-x="646" 
d="M323 550q57 0 106 -19t85 -55t56.5 -87.5t20.5 -116.5q0 -66 -20.5 -117.5t-56.5 -87.5t-85 -55t-106 -19t-106 19t-85 55t-56.5 87.5t-20.5 117.5q0 65 20.5 116.5t56.5 87.5t85 55t106 19zM323 510q-42 0 -82 -14t-71 -43t-50 -74t-19 -107t19 -107t50 -74.5t71 -43.5
t82 -14q43 0 83 14t71 43.5t49.5 74.5t18.5 107t-18.5 107t-49.5 74t-71 43t-83 14zM286 -117q0 15 11 26t26 11q16 0 26.5 -11t10.5 -26t-10.5 -26t-26.5 -11q-15 0 -26 11t-11 26z" />
    <glyph glyph-name="uni1ECE" unicode="&#x1ece;" horiz-adv-x="792" 
d="M395 940q38 0 56.5 -18.5t18.5 -53.5q0 -27 -18 -47t-49 -50l-19 18q23 22 40 40.5t17 38.5q0 26 -11 35.5t-36 9.5q-26 0 -34.5 -13.5t-12.5 -36.5l-28 1q2 12 5 25.5t11 24.5t22 18.5t38 7.5zM396 711q74 0 136 -26.5t107 -74t70.5 -113.5t25.5 -145t-25.5 -145
t-70.5 -114t-107 -74.5t-136 -26.5t-136.5 26.5t-107.5 74.5t-70.5 114t-25.5 145t25.5 145t70.5 113.5t107.5 74t136.5 26.5zM396 670q-62 0 -115.5 -22t-93 -63t-62 -100t-22.5 -133t22.5 -133t62 -100t93 -63t115.5 -22t115 22t93 63t62.5 100t22.5 133t-22.5 133
t-62.5 100t-93 63t-115 22z" />
    <glyph glyph-name="uni1ECF" unicode="&#x1ecf;" horiz-adv-x="646" 
d="M322 778q38 0 56.5 -18.5t18.5 -53.5q0 -27 -18 -47t-49 -50l-19 18q23 22 40 40.5t17 38.5q0 26 -11 35.5t-36 9.5q-26 0 -34.5 -13.5t-12.5 -36.5l-28 1q2 12 5 25.5t11 24.5t22 18.5t38 7.5zM323 550q57 0 106 -19t85 -55t56.5 -87.5t20.5 -116.5q0 -66 -20.5 -117.5
t-56.5 -87.5t-85 -55t-106 -19t-106 19t-85 55t-56.5 87.5t-20.5 117.5q0 65 20.5 116.5t56.5 87.5t85 55t106 19zM323 510q-42 0 -82 -14t-71 -43t-50 -74t-19 -107t19 -107t50 -74.5t71 -43.5t82 -14q43 0 83 14t71 43.5t49.5 74.5t18.5 107t-18.5 107t-49.5 74t-71 43
t-83 14z" />
    <glyph glyph-name="uni1ED0" unicode="&#x1ed0;" horiz-adv-x="792" 
d="M486 953l-152 -88l-13 20l150 98zM396 829l-111 -69l-13 22l124 79l123 -79l-13 -23zM396 711q74 0 136 -26.5t107 -74t70.5 -113.5t25.5 -145t-25.5 -145t-70.5 -114t-107 -74.5t-136 -26.5t-136.5 26.5t-107.5 74.5t-70.5 114t-25.5 145t25.5 145t70.5 113.5t107.5 74
t136.5 26.5zM396 670q-62 0 -115.5 -22t-93 -63t-62 -100t-22.5 -133t22.5 -133t62 -100t93 -63t115.5 -22t115 22t93 63t62.5 100t22.5 133t-22.5 133t-62.5 100t-93 63t-115 22z" />
    <glyph glyph-name="uni1ED1" unicode="&#x1ed1;" horiz-adv-x="646" 
d="M413 791l-152 -88l-13 20l150 98zM323 667l-111 -69l-13 22l124 79l123 -79l-13 -23zM323 550q57 0 106 -19t85 -55t56.5 -87.5t20.5 -116.5q0 -66 -20.5 -117.5t-56.5 -87.5t-85 -55t-106 -19t-106 19t-85 55t-56.5 87.5t-20.5 117.5q0 65 20.5 116.5t56.5 87.5t85 55
t106 19zM323 510q-42 0 -82 -14t-71 -43t-50 -74t-19 -107t19 -107t50 -74.5t71 -43.5t82 -14q43 0 83 14t71 43.5t49.5 74.5t18.5 107t-18.5 107t-49.5 74t-71 43t-83 14z" />
    <glyph glyph-name="uni1ED2" unicode="&#x1ed2;" horiz-adv-x="792" 
d="M531 865l-12 -22l-142 102l17 26zM396 829l-111 -69l-13 22l124 79l123 -79l-13 -23zM396 711q74 0 136 -26.5t107 -74t70.5 -113.5t25.5 -145t-25.5 -145t-70.5 -114t-107 -74.5t-136 -26.5t-136.5 26.5t-107.5 74.5t-70.5 114t-25.5 145t25.5 145t70.5 113.5t107.5 74
t136.5 26.5zM396 670q-62 0 -115.5 -22t-93 -63t-62 -100t-22.5 -133t22.5 -133t62 -100t93 -63t115.5 -22t115 22t93 63t62.5 100t22.5 133t-22.5 133t-62.5 100t-93 63t-115 22z" />
    <glyph glyph-name="uni1ED3" unicode="&#x1ed3;" horiz-adv-x="646" 
d="M458 703l-12 -22l-142 102l17 26zM323 667l-111 -69l-13 22l124 79l123 -79l-13 -23zM323 550q57 0 106 -19t85 -55t56.5 -87.5t20.5 -116.5q0 -66 -20.5 -117.5t-56.5 -87.5t-85 -55t-106 -19t-106 19t-85 55t-56.5 87.5t-20.5 117.5q0 65 20.5 116.5t56.5 87.5t85 55
t106 19zM323 510q-42 0 -82 -14t-71 -43t-50 -74t-19 -107t19 -107t50 -74.5t71 -43.5t82 -14q43 0 83 14t71 43.5t49.5 74.5t18.5 107t-18.5 107t-49.5 74t-71 43t-83 14z" />
    <glyph glyph-name="uni1ED4" unicode="&#x1ed4;" horiz-adv-x="792" 
d="M540 976q38 0 56 -18.5t18 -53.5q0 -26 -17.5 -46t-48.5 -49l-19 17q23 22 40 40t17 38q0 26 -11 35.5t-36 9.5q-26 0 -34 -13.5t-12 -35.5l-28 1q2 12 5 25t11 24t22 18.5t37 7.5zM396 829l-111 -69l-13 22l124 79l123 -79l-13 -23zM396 711q74 0 136 -26.5t107 -74
t70.5 -113.5t25.5 -145t-25.5 -145t-70.5 -114t-107 -74.5t-136 -26.5t-136.5 26.5t-107.5 74.5t-70.5 114t-25.5 145t25.5 145t70.5 113.5t107.5 74t136.5 26.5zM396 670q-62 0 -115.5 -22t-93 -63t-62 -100t-22.5 -133t22.5 -133t62 -100t93 -63t115.5 -22t115 22t93 63
t62.5 100t22.5 133t-22.5 133t-62.5 100t-93 63t-115 22z" />
    <glyph glyph-name="uni1ED5" unicode="&#x1ed5;" horiz-adv-x="646" 
d="M467 814q38 0 56 -18.5t18 -53.5q0 -26 -17.5 -46t-48.5 -49l-19 17q23 22 40 40t17 38q0 26 -11 35.5t-36 9.5q-26 0 -34 -13.5t-12 -35.5l-28 1q2 12 5 25t11 24t22 18.5t37 7.5zM323 667l-111 -69l-13 22l124 79l123 -79l-13 -23zM323 550q57 0 106 -19t85 -55
t56.5 -87.5t20.5 -116.5q0 -66 -20.5 -117.5t-56.5 -87.5t-85 -55t-106 -19t-106 19t-85 55t-56.5 87.5t-20.5 117.5q0 65 20.5 116.5t56.5 87.5t85 55t106 19zM323 510q-42 0 -82 -14t-71 -43t-50 -74t-19 -107t19 -107t50 -74.5t71 -43.5t82 -14q43 0 83 14t71 43.5
t49.5 74.5t18.5 107t-18.5 107t-49.5 74t-71 43t-83 14z" />
    <glyph glyph-name="uni1ED6" unicode="&#x1ed6;" horiz-adv-x="792" 
d="M358 947q18 0 31 -7.5t24 -16.5t23 -16.5t28 -7.5q15 0 27 11.5t15 33.5h26q-3 -32 -22 -52t-47 -20q-19 0 -32.5 7.5t-25 16t-22.5 16t-26 7.5q-34 0 -40 -46h-26q5 35 22 54.5t45 19.5zM396 829l-111 -69l-13 22l124 79l123 -79l-13 -23zM396 711q74 0 136 -26.5
t107 -74t70.5 -113.5t25.5 -145t-25.5 -145t-70.5 -114t-107 -74.5t-136 -26.5t-136.5 26.5t-107.5 74.5t-70.5 114t-25.5 145t25.5 145t70.5 113.5t107.5 74t136.5 26.5zM396 670q-62 0 -115.5 -22t-93 -63t-62 -100t-22.5 -133t22.5 -133t62 -100t93 -63t115.5 -22t115 22
t93 63t62.5 100t22.5 133t-22.5 133t-62.5 100t-93 63t-115 22z" />
    <glyph glyph-name="uni1ED7" unicode="&#x1ed7;" horiz-adv-x="646" 
d="M285 785q18 0 31 -7.5t24 -16.5t23 -16.5t28 -7.5q15 0 27 11.5t15 33.5h26q-3 -32 -22 -52t-47 -20q-19 0 -32.5 7.5t-25 16t-22.5 16t-26 7.5q-34 0 -40 -46h-26q5 35 22 54.5t45 19.5zM323 667l-111 -69l-13 22l124 79l123 -79l-13 -23zM323 550q57 0 106 -19t85 -55
t56.5 -87.5t20.5 -116.5q0 -66 -20.5 -117.5t-56.5 -87.5t-85 -55t-106 -19t-106 19t-85 55t-56.5 87.5t-20.5 117.5q0 65 20.5 116.5t56.5 87.5t85 55t106 19zM323 510q-42 0 -82 -14t-71 -43t-50 -74t-19 -107t19 -107t50 -74.5t71 -43.5t82 -14q43 0 83 14t71 43.5
t49.5 74.5t18.5 107t-18.5 107t-49.5 74t-71 43t-83 14z" />
    <glyph glyph-name="uni1ED8" unicode="&#x1ed8;" horiz-adv-x="792" 
d="M396 830l-112 -70l-14 22l126 80l124 -80l-13 -23zM396 711q74 0 136 -26.5t107 -74t70.5 -113.5t25.5 -145t-25.5 -145t-70.5 -114t-107 -74.5t-136 -26.5t-136.5 26.5t-107.5 74.5t-70.5 114t-25.5 145t25.5 145t70.5 113.5t107.5 74t136.5 26.5zM396 670
q-62 0 -115.5 -22t-93 -63t-62 -100t-22.5 -133t22.5 -133t62 -100t93 -63t115.5 -22t115 22t93 63t62.5 100t22.5 133t-22.5 133t-62.5 100t-93 63t-115 22zM359 -117q0 15 11 26t26 11q16 0 26.5 -11t10.5 -26t-10.5 -26t-26.5 -11q-15 0 -26 11t-11 26z" />
    <glyph glyph-name="uni1ED9" unicode="&#x1ed9;" horiz-adv-x="646" 
d="M323 668l-112 -70l-14 22l126 80l124 -80l-13 -23zM323 550q57 0 106 -19t85 -55t56.5 -87.5t20.5 -116.5q0 -66 -20.5 -117.5t-56.5 -87.5t-85 -55t-106 -19t-106 19t-85 55t-56.5 87.5t-20.5 117.5q0 65 20.5 116.5t56.5 87.5t85 55t106 19zM323 510q-42 0 -82 -14
t-71 -43t-50 -74t-19 -107t19 -107t50 -74.5t71 -43.5t82 -14q43 0 83 14t71 43.5t49.5 74.5t18.5 107t-18.5 107t-49.5 74t-71 43t-83 14zM286 -117q0 15 11 26t26 11q16 0 26.5 -11t10.5 -26t-10.5 -26t-26.5 -11q-15 0 -26 11t-11 26z" />
    <glyph glyph-name="uni1EDA" unicode="&#x1eda;" horiz-adv-x="792" 
d="M335 758l-14 20l152 99l15 -30zM532 684q46 -19 83.5 -51t64 -75t41 -95t14.5 -111q0 -79 -25.5 -145t-70.5 -114t-107 -74.5t-136 -26.5t-136.5 26.5t-107.5 74.5t-70.5 114t-25.5 145t25.5 145t70.5 113.5t107.5 74t136.5 26.5q36 0 67 -6q47 0 77.5 26.5t30.5 91.5h36
q0 -55 -21 -89t-54 -50zM396 34q62 0 115 22t93 63t62.5 100t22.5 133t-22.5 133t-62.5 100t-93 63t-115 22t-115.5 -22t-93 -63t-62 -100t-22.5 -133t22.5 -133t62 -100t93 -63t115.5 -22z" />
    <glyph glyph-name="uni1EDB" unicode="&#x1edb;" horiz-adv-x="646" 
d="M262 596l-14 20l152 99l15 -30zM453 520q63 -32 100.5 -94.5t37.5 -153.5q0 -66 -20.5 -117.5t-56.5 -87.5t-85 -55t-106 -19t-106 19t-85 55t-56.5 87.5t-20.5 117.5q0 65 20.5 116.5t56.5 87.5t85 55t106 19q37 0 66 -7q47 0 77 27t30 91h36q0 -57 -22 -91.5t-57 -49.5
zM323 33q43 0 83 14t71 43.5t49.5 74.5t18.5 107t-18.5 107t-49.5 74t-71 43t-83 14q-42 0 -82 -14t-71 -43t-50 -74t-19 -107t19 -107t50 -74.5t71 -43.5t82 -14z" />
    <glyph glyph-name="uni1EDC" unicode="&#x1edc;" horiz-adv-x="792" 
d="M441 772l-144 103l17 26l139 -107zM532 684q46 -19 83.5 -51t64 -75t41 -95t14.5 -111q0 -79 -25.5 -145t-70.5 -114t-107 -74.5t-136 -26.5t-136.5 26.5t-107.5 74.5t-70.5 114t-25.5 145t25.5 145t70.5 113.5t107.5 74t136.5 26.5q36 0 67 -6q47 0 77.5 26.5t30.5 91.5
h36q0 -55 -21 -89t-54 -50zM396 34q62 0 115 22t93 63t62.5 100t22.5 133t-22.5 133t-62.5 100t-93 63t-115 22t-115.5 -22t-93 -63t-62 -100t-22.5 -133t22.5 -133t62 -100t93 -63t115.5 -22z" />
    <glyph glyph-name="uni1EDD" unicode="&#x1edd;" horiz-adv-x="646" 
d="M405 590l-144 103l17 26l139 -107zM453 520q63 -32 100.5 -94.5t37.5 -153.5q0 -66 -20.5 -117.5t-56.5 -87.5t-85 -55t-106 -19t-106 19t-85 55t-56.5 87.5t-20.5 117.5q0 65 20.5 116.5t56.5 87.5t85 55t106 19q37 0 66 -7q47 0 77 27t30 91h36q0 -57 -22 -91.5
t-57 -49.5zM323 33q43 0 83 14t71 43.5t49.5 74.5t18.5 107t-18.5 107t-49.5 74t-71 43t-83 14q-42 0 -82 -14t-71 -43t-50 -74t-19 -107t19 -107t50 -74.5t71 -43.5t82 -14z" />
    <glyph glyph-name="uni1EDE" unicode="&#x1ede;" horiz-adv-x="792" 
d="M394 913q-26 0 -34.5 -13.5t-12.5 -36.5l-28 1q2 12 5 25.5t11 24.5t22 18.5t38 7.5q38 0 56.5 -18.5t18.5 -53.5q0 -27 -18 -47t-49 -50l-19 18q23 22 40 40.5t17 38.5q0 26 -11 35.5t-36 9.5zM532 684q46 -19 83.5 -51t64 -75t41 -95t14.5 -111q0 -79 -25.5 -145
t-70.5 -114t-107 -74.5t-136 -26.5t-136.5 26.5t-107.5 74.5t-70.5 114t-25.5 145t25.5 145t70.5 113.5t107.5 74t136.5 26.5q36 0 67 -6q47 0 77.5 26.5t30.5 91.5h36q0 -55 -21 -89t-54 -50zM396 34q62 0 115 22t93 63t62.5 100t22.5 133t-22.5 133t-62.5 100t-93 63
t-115 22t-115.5 -22t-93 -63t-62 -100t-22.5 -133t22.5 -133t62 -100t93 -63t115.5 -22z" />
    <glyph glyph-name="uni1EDF" unicode="&#x1edf;" horiz-adv-x="646" 
d="M321 751q-26 0 -34.5 -13.5t-12.5 -36.5l-28 1q2 12 5 25.5t11 24.5t22 18.5t38 7.5q38 0 56.5 -18.5t18.5 -53.5q0 -27 -18 -47t-49 -50l-19 18q23 22 40 40.5t17 38.5q0 26 -11 35.5t-36 9.5zM453 520q63 -32 100.5 -94.5t37.5 -153.5q0 -66 -20.5 -117.5t-56.5 -87.5
t-85 -55t-106 -19t-106 19t-85 55t-56.5 87.5t-20.5 117.5q0 65 20.5 116.5t56.5 87.5t85 55t106 19q37 0 66 -7q47 0 77 27t30 91h36q0 -57 -22 -91.5t-57 -49.5zM323 33q43 0 83 14t71 43.5t49.5 74.5t18.5 107t-18.5 107t-49.5 74t-71 43t-83 14q-42 0 -82 -14t-71 -43
t-50 -74t-19 -107t19 -107t50 -74.5t71 -43.5t82 -14z" />
    <glyph glyph-name="uni1EE0" unicode="&#x1ee0;" horiz-adv-x="792" 
d="M340 856q-35 0 -41 -47h-27q5 36 22.5 56t46.5 20q19 0 32 -7.5t24.5 -17t24 -17t29.5 -7.5q15 0 27.5 11.5t15.5 34.5h27q-3 -33 -22.5 -53.5t-48.5 -20.5q-20 0 -34 7.5t-25.5 16.5t-23.5 16.5t-27 7.5zM532 684q46 -19 83.5 -51t64 -75t41 -95t14.5 -111
q0 -79 -25.5 -145t-70.5 -114t-107 -74.5t-136 -26.5t-136.5 26.5t-107.5 74.5t-70.5 114t-25.5 145t25.5 145t70.5 113.5t107.5 74t136.5 26.5q36 0 67 -6q47 0 77.5 26.5t30.5 91.5h36q0 -55 -21 -89t-54 -50zM396 34q62 0 115 22t93 63t62.5 100t22.5 133t-22.5 133
t-62.5 100t-93 63t-115 22t-115.5 -22t-93 -63t-62 -100t-22.5 -133t22.5 -133t62 -100t93 -63t115.5 -22z" />
    <glyph glyph-name="uni1EE1" unicode="&#x1ee1;" horiz-adv-x="646" 
d="M267 688q-35 0 -41 -47h-27q5 36 22.5 56t46.5 20q19 0 32 -7.5t24.5 -17t24 -17t29.5 -7.5q15 0 27.5 11.5t15.5 34.5h27q-3 -33 -22.5 -53.5t-48.5 -20.5q-20 0 -34 7.5t-25.5 16.5t-23.5 16.5t-27 7.5zM453 520q63 -32 100.5 -94.5t37.5 -153.5q0 -66 -20.5 -117.5
t-56.5 -87.5t-85 -55t-106 -19t-106 19t-85 55t-56.5 87.5t-20.5 117.5q0 65 20.5 116.5t56.5 87.5t85 55t106 19q37 0 66 -7q47 0 77 27t30 91h36q0 -57 -22 -91.5t-57 -49.5zM323 33q43 0 83 14t71 43.5t49.5 74.5t18.5 107t-18.5 107t-49.5 74t-71 43t-83 14
q-42 0 -82 -14t-71 -43t-50 -74t-19 -107t19 -107t50 -74.5t71 -43.5t82 -14z" />
    <glyph glyph-name="uni1EE2" unicode="&#x1ee2;" horiz-adv-x="792" 
d="M532 684q46 -19 83.5 -51t64 -75t41 -95t14.5 -111q0 -79 -25.5 -145t-70.5 -114t-107 -74.5t-136 -26.5t-136.5 26.5t-107.5 74.5t-70.5 114t-25.5 145t25.5 145t70.5 113.5t107.5 74t136.5 26.5q36 0 67 -6q47 0 77.5 26.5t30.5 91.5h36q0 -55 -21 -89t-54 -50zM396 34
q62 0 115 22t93 63t62.5 100t22.5 133t-22.5 133t-62.5 100t-93 63t-115 22t-115.5 -22t-93 -63t-62 -100t-22.5 -133t22.5 -133t62 -100t93 -63t115.5 -22zM396 -80q16 0 26.5 -11t10.5 -26t-10.5 -26t-26.5 -11q-15 0 -26 11t-11 26t11 26t26 11z" />
    <glyph glyph-name="uni1EE3" unicode="&#x1ee3;" horiz-adv-x="646" 
d="M453 520q63 -32 100.5 -94.5t37.5 -153.5q0 -66 -20.5 -117.5t-56.5 -87.5t-85 -55t-106 -19t-106 19t-85 55t-56.5 87.5t-20.5 117.5q0 65 20.5 116.5t56.5 87.5t85 55t106 19q37 0 66 -7q47 0 77 27t30 91h36q0 -57 -22 -91.5t-57 -49.5zM323 33q43 0 83 14t71 43.5
t49.5 74.5t18.5 107t-18.5 107t-49.5 74t-71 43t-83 14q-42 0 -82 -14t-71 -43t-50 -74t-19 -107t19 -107t50 -74.5t71 -43.5t82 -14zM323 -80q16 0 26.5 -11t10.5 -26t-10.5 -26t-26.5 -11q-15 0 -26 11t-11 26t11 26t26 11z" />
    <glyph glyph-name="uni1EE4" unicode="&#x1ee4;" horiz-adv-x="640" 
d="M121 705v-433q0 -64 15 -109.5t41.5 -73.5t63.5 -41t81 -13q43 0 79 13t62.5 41t41 73.5t14.5 109.5v433h46v-433q0 -73 -18 -126t-50 -87t-77 -50t-98 -16q-54 0 -99 16t-77.5 50t-51 87t-18.5 126v433h45zM284 -117q0 15 11 26t26 11q16 0 26.5 -11t10.5 -26t-10.5 -26
t-26.5 -11q-15 0 -26 11t-11 26z" />
    <glyph glyph-name="uni1EE5" unicode="&#x1ee5;" horiz-adv-x="611" 
d="M531 543v-543h-46v142q-10 -39 -31 -68t-48.5 -48t-60 -28t-67.5 -9q-45 0 -84 14t-68 43t-46 74t-17 107v316h44v-315q0 -100 50 -150t133 -50q43 0 78.5 13.5t61.5 41.5t40.5 71t14.5 101v288h46zM306 -80q16 0 26.5 -11t10.5 -26t-10.5 -26t-26.5 -11q-15 0 -26 11
t-11 26t11 26t26 11z" />
    <glyph glyph-name="uni1EE6" unicode="&#x1ee6;" horiz-adv-x="640" 
d="M320 940q38 0 56.5 -18.5t18.5 -53.5q0 -27 -18 -47t-49 -50l-19 18q23 22 40 40.5t17 38.5q0 26 -11 35.5t-36 9.5q-26 0 -34.5 -13.5t-12.5 -36.5l-28 1q2 12 5 25.5t11 24.5t22 18.5t38 7.5zM121 705v-433q0 -64 15 -109.5t41.5 -73.5t63.5 -41t81 -13q43 0 79 13
t62.5 41t41 73.5t14.5 109.5v433h46v-433q0 -73 -18 -126t-50 -87t-77 -50t-98 -16q-54 0 -99 16t-77.5 50t-51 87t-18.5 126v433h45z" />
    <glyph glyph-name="uni1EE7" unicode="&#x1ee7;" horiz-adv-x="611" 
d="M304 751q-26 0 -34.5 -13.5t-12.5 -36.5l-28 1q2 12 5 25.5t11 24.5t22 18.5t38 7.5q38 0 56.5 -18.5t18.5 -53.5q0 -27 -18 -47t-49 -50l-19 18q23 22 40 40.5t17 38.5q0 26 -11 35.5t-36 9.5zM531 543v-543h-46v142q-10 -39 -31 -68t-48.5 -48t-60 -28t-67.5 -9
q-45 0 -84 14t-68 43t-46 74t-17 107v316h44v-315q0 -100 50 -150t133 -50q43 0 78.5 13.5t61.5 41.5t40.5 71t14.5 101v288h46z" />
    <glyph glyph-name="uni1EE8" unicode="&#x1ee8;" horiz-adv-x="640" 
d="M260 758l-14 20l152 99l15 -30zM685 823q0 -73 -35 -109t-85 -43v-399q0 -73 -18 -126t-50 -87t-77 -50t-98 -16q-54 0 -99 16t-77.5 50t-51 87t-18.5 126v433h45v-433q0 -64 15 -109.5t41.5 -73.5t63.5 -41t81 -13q43 0 79 13t62.5 41t41 73.5t14.5 109.5v433h22
q47 0 77.5 26.5t30.5 91.5h36z" />
    <glyph glyph-name="uni1EE9" unicode="&#x1ee9;" horiz-adv-x="611" 
d="M245 596l-14 20l152 99l15 -30zM649 661q0 -72 -34 -108t-84 -43v-510h-46v142q-10 -39 -31 -68t-48.5 -48t-60 -28t-67.5 -9q-45 0 -84 14t-68 43t-46 74t-17 107v316h44v-315q0 -100 50 -150t133 -50q43 0 78.5 13.5t61.5 41.5t40.5 71t14.5 101v288h20q47 0 77.5 26.5
t30.5 91.5h36z" />
    <glyph glyph-name="uni1EEA" unicode="&#x1eea;" horiz-adv-x="640" 
d="M403 752l-144 103l17 26l139 -107zM685 823q0 -73 -35 -109t-85 -43v-399q0 -73 -18 -126t-50 -87t-77 -50t-98 -16q-54 0 -99 16t-77.5 50t-51 87t-18.5 126v433h45v-433q0 -64 15 -109.5t41.5 -73.5t63.5 -41t81 -13q43 0 79 13t62.5 41t41 73.5t14.5 109.5v433h22
q47 0 77.5 26.5t30.5 91.5h36z" />
    <glyph glyph-name="uni1EEB" unicode="&#x1eeb;" horiz-adv-x="611" 
d="M388 590l-144 103l17 26l139 -107zM649 661q0 -72 -34 -108t-84 -43v-510h-46v142q-10 -39 -31 -68t-48.5 -48t-60 -28t-67.5 -9q-45 0 -84 14t-68 43t-46 74t-17 107v316h44v-315q0 -100 50 -150t133 -50q43 0 78.5 13.5t61.5 41.5t40.5 71t14.5 101v288h20
q47 0 77.5 26.5t30.5 91.5h36z" />
    <glyph glyph-name="uni1EEC" unicode="&#x1eec;" horiz-adv-x="640" 
d="M319 913q-26 0 -34.5 -13.5t-12.5 -36.5l-28 1q2 12 5 25.5t11 24.5t22 18.5t38 7.5q38 0 56.5 -18.5t18.5 -53.5q0 -27 -18 -47t-49 -50l-19 18q23 22 40 40.5t17 38.5q0 26 -11 35.5t-36 9.5zM685 823q0 -73 -35 -109t-85 -43v-399q0 -73 -18 -126t-50 -87t-77 -50
t-98 -16q-54 0 -99 16t-77.5 50t-51 87t-18.5 126v433h45v-433q0 -64 15 -109.5t41.5 -73.5t63.5 -41t81 -13q43 0 79 13t62.5 41t41 73.5t14.5 109.5v433h22q47 0 77.5 26.5t30.5 91.5h36z" />
    <glyph glyph-name="uni1EED" unicode="&#x1eed;" horiz-adv-x="611" 
d="M304 751q-26 0 -34.5 -13.5t-12.5 -36.5l-28 1q2 12 5 25.5t11 24.5t22 18.5t38 7.5q38 0 56.5 -18.5t18.5 -53.5q0 -27 -18 -47t-49 -50l-19 18q23 22 40 40.5t17 38.5q0 26 -11 35.5t-36 9.5zM649 661q0 -72 -34 -108t-84 -43v-510h-46v142q-10 -39 -31 -68t-48.5 -48
t-60 -28t-67.5 -9q-45 0 -84 14t-68 43t-46 74t-17 107v316h44v-315q0 -100 50 -150t133 -50q43 0 78.5 13.5t61.5 41.5t40.5 71t14.5 101v288h20q47 0 77.5 26.5t30.5 91.5h36z" />
    <glyph glyph-name="uni1EEE" unicode="&#x1eee;" horiz-adv-x="640" 
d="M265 814q-35 0 -41 -47h-27q5 36 22.5 56t46.5 20q19 0 32 -7.5t24.5 -17t24 -17t29.5 -7.5q15 0 27.5 11.5t15.5 34.5h27q-3 -33 -22.5 -53.5t-48.5 -20.5q-20 0 -34 7.5t-25.5 16.5t-23.5 16.5t-27 7.5zM685 823q0 -73 -35 -109t-85 -43v-399q0 -73 -18 -126t-50 -87
t-77 -50t-98 -16q-54 0 -99 16t-77.5 50t-51 87t-18.5 126v433h45v-433q0 -64 15 -109.5t41.5 -73.5t63.5 -41t81 -13q43 0 79 13t62.5 41t41 73.5t14.5 109.5v433h22q47 0 77.5 26.5t30.5 91.5h36z" />
    <glyph glyph-name="uni1EEF" unicode="&#x1eef;" horiz-adv-x="611" 
d="M250 652q-35 0 -41 -47h-27q5 36 22.5 56t46.5 20q19 0 32 -7.5t24.5 -17t24 -17t29.5 -7.5q15 0 27.5 11.5t15.5 34.5h27q-3 -33 -22.5 -53.5t-48.5 -20.5q-20 0 -34 7.5t-25.5 16.5t-23.5 16.5t-27 7.5zM649 661q0 -72 -34 -108t-84 -43v-510h-46v142q-10 -39 -31 -68
t-48.5 -48t-60 -28t-67.5 -9q-45 0 -84 14t-68 43t-46 74t-17 107v316h44v-315q0 -100 50 -150t133 -50q43 0 78.5 13.5t61.5 41.5t40.5 71t14.5 101v288h20q47 0 77.5 26.5t30.5 91.5h36z" />
    <glyph glyph-name="uni1EF0" unicode="&#x1ef0;" horiz-adv-x="640" 
d="M685 823q0 -73 -35 -109t-85 -43v-399q0 -73 -18 -126t-50 -87t-77 -50t-98 -16q-54 0 -99 16t-77.5 50t-51 87t-18.5 126v433h45v-433q0 -64 15 -109.5t41.5 -73.5t63.5 -41t81 -13q43 0 79 13t62.5 41t41 73.5t14.5 109.5v433h22q47 0 77.5 26.5t30.5 91.5h36zM321 -80
q16 0 26.5 -11t10.5 -26t-10.5 -26t-26.5 -11q-15 0 -26 11t-11 26t11 26t26 11z" />
    <glyph glyph-name="uni1EF1" unicode="&#x1ef1;" horiz-adv-x="611" 
d="M649 661q0 -72 -34 -108t-84 -43v-510h-46v142q-10 -39 -31 -68t-48.5 -48t-60 -28t-67.5 -9q-45 0 -84 14t-68 43t-46 74t-17 107v316h44v-315q0 -100 50 -150t133 -50q43 0 78.5 13.5t61.5 41.5t40.5 71t14.5 101v288h20q47 0 77.5 26.5t30.5 91.5h36zM306 -80
q16 0 26.5 -11t10.5 -26t-10.5 -26t-26.5 -11q-15 0 -26 11t-11 26t11 26t26 11z" />
    <glyph glyph-name="Ygrave" unicode="&#x1ef2;" horiz-adv-x="545" 
d="M354 752l-144 103l17 26l139 -107zM518 705l-222 -420v-285h-45v285l-225 420h53l194 -372l193 372h52z" />
    <glyph glyph-name="ygrave" unicode="&#x1ef3;" horiz-adv-x="525" 
d="M357 612l-12 -22l-144 103l17 26zM66 543l204 -483l189 483h50l-315 -799h-52l104 259l-230 540h50z" />
    <glyph glyph-name="uni1EF4" unicode="&#x1ef4;" horiz-adv-x="545" 
d="M251 285l-225 420h53l194 -372l193 372h52l-222 -420v-285h-45v285zM272 -80q16 0 26.5 -11t10.5 -26t-10.5 -26t-26.5 -11q-15 0 -26 11t-11 26t11 26t26 11z" />
    <glyph glyph-name="uni1EF5" unicode="&#x1ef5;" horiz-adv-x="525" 
d="M66 543l204 -483l189 483h50l-315 -799h-52l104 259l-230 540h50zM335 -117q0 15 11 26t26 11q16 0 26.5 -11t10.5 -26t-10.5 -26t-26.5 -11q-15 0 -26 11t-11 26z" />
    <glyph glyph-name="uni1EF6" unicode="&#x1ef6;" horiz-adv-x="545" 
d="M270 913q-26 0 -34.5 -13.5t-12.5 -36.5l-28 1q2 12 5 25.5t11 24.5t22 18.5t38 7.5q38 0 56.5 -18.5t18.5 -53.5q0 -27 -18 -47t-49 -50l-19 18q23 22 40 40.5t17 38.5q0 26 -11 35.5t-36 9.5zM518 705l-222 -420v-285h-45v285l-225 420h53l194 -372l193 372h52z" />
    <glyph glyph-name="uni1EF7" unicode="&#x1ef7;" horiz-adv-x="525" 
d="M262 778q38 0 56.5 -18.5t18.5 -53.5q0 -27 -18 -47t-49 -50l-19 18q23 22 40 40.5t17 38.5q0 26 -11 35.5t-36 9.5q-26 0 -34.5 -13.5t-12.5 -36.5l-28 1q2 12 5 25.5t11 24.5t22 18.5t38 7.5zM66 543l204 -483l189 483h50l-315 -799h-52l104 259l-230 540h50z" />
    <glyph glyph-name="uni1EF8" unicode="&#x1ef8;" horiz-adv-x="545" 
d="M216 814q-35 0 -41 -47h-27q5 36 22.5 56t46.5 20q19 0 32 -7.5t24.5 -17t24 -17t29.5 -7.5q15 0 27.5 11.5t15.5 34.5h27q-3 -33 -22.5 -53.5t-48.5 -20.5q-20 0 -34 7.5t-25.5 16.5t-23.5 16.5t-27 7.5zM518 705l-222 -420v-285h-45v285l-225 420h53l194 -372l193 372
h52z" />
    <glyph glyph-name="uni1EF9" unicode="&#x1ef9;" horiz-adv-x="525" 
d="M208 681q19 0 32 -7.5t24.5 -17t24 -17t29.5 -7.5q15 0 27.5 11.5t15.5 34.5h27q-3 -33 -22.5 -53.5t-48.5 -20.5q-20 0 -34 7.5t-25.5 16.5t-23.5 16.5t-27 7.5q-35 0 -41 -47h-27q5 36 22.5 56t46.5 20zM66 543l204 -483l189 483h50l-315 -799h-52l104 259l-230 540h50
z" />
    <glyph glyph-name="endash" unicode="&#x2013;" horiz-adv-x="594" 
d="M552 395v-39h-510v39h510z" />
    <glyph glyph-name="emdash" unicode="&#x2014;" horiz-adv-x="786" 
d="M744 395v-39h-702v39h702z" />
    <glyph glyph-name="quoteleft" unicode="&#x2018;" horiz-adv-x="142" 
d="M39 590q-4 23 -5 42t-1 35q0 51 21 70.5t58 19.5v-27q-26 0 -36 -12.5t-10 -36.5v-27h42v-64h-69z" />
    <glyph glyph-name="quoteright" unicode="&#x2019;" horiz-adv-x="142" 
d="M103 757q4 -23 5 -42t1 -35q0 -51 -21 -70.5t-58 -19.5v27q26 0 36.5 12.5t10.5 36.5v26h-43v65h69z" />
    <glyph glyph-name="quotesinglbase" unicode="&#x201a;" horiz-adv-x="155" 
d="M102 44q14 -70 -5.5 -108t-67.5 -38v26q24 0 34.5 14t10.5 41v7h-38v58h66z" />
    <glyph glyph-name="quotedblleft" unicode="&#x201c;" horiz-adv-x="245" 
d="M39 590q-4 23 -5 42t-1 35q0 51 21 70.5t58 19.5v-27q-26 0 -36 -12.5t-10 -36.5v-27h42v-64h-69zM143 590q-4 23 -5.5 42t-1.5 35q0 51 21 70.5t58 19.5v-27q-26 0 -36 -12.5t-10 -36.5v-27h42v-64h-68z" />
    <glyph glyph-name="quotedblright" unicode="&#x201d;" horiz-adv-x="245" 
d="M103 757q4 -23 5 -42t1 -35q0 -51 -21 -70.5t-58 -19.5v27q26 0 36.5 12.5t10.5 36.5v26h-43v65h69zM206 757q4 -23 5.5 -42t1.5 -35q0 -51 -21 -70.5t-58 -19.5v27q26 0 36 12.5t10 36.5v26h-42v65h68z" />
    <glyph glyph-name="quotedblbase" unicode="&#x201e;" horiz-adv-x="245" 
d="M103 65q4 -23 5 -42t1 -35q0 -51 -21 -70.5t-58 -19.5v27q26 0 36.5 12.5t10.5 36.5v26h-43v65h69zM206 65q4 -23 5.5 -42t1.5 -35q0 -51 -21 -70.5t-58 -19.5v27q26 0 36 12.5t10 36.5v26h-42v65h68z" />
    <glyph glyph-name="dagger" unicode="&#x2020;" horiz-adv-x="465" 
d="M432 505l-182 4l5 -765h-44l4 765l-182 -4v38l182 -4l-4 238h44l-5 -238l182 4v-38z" />
    <glyph glyph-name="daggerdbl" unicode="&#x2021;" horiz-adv-x="466" 
d="M251 509v-498l182 6v-40l-182 5l4 -238h-44l5 238l-183 -5v40l183 -6v498l-183 -4v38l183 -4l-5 238h44l-4 -238l182 4v-38z" />
    <glyph glyph-name="bullet" unicode="&#x2022;" horiz-adv-x="291" 
d="M39 333q0 23 8.5 42.5t23 34t34 23t41.5 8.5q23 0 42 -8.5t33.5 -23t22.5 -34t8 -42.5q0 -45 -30.5 -75.5t-75.5 -30.5q-22 0 -41.5 8.5t-34 22.5t-23 33.5t-8.5 41.5z" />
    <glyph glyph-name="ellipsis" unicode="&#x2026;" horiz-adv-x="456" 
d="M102 69v-69h-71v69h71zM263 69v-69h-71v69h71zM425 69v-69h-71v69h71z" />
    <glyph glyph-name="perthousand" unicode="&#x2030;" horiz-adv-x="886" 
d="M171 712q58 0 96 -37.5t38 -97.5q0 -30 -10 -55t-28 -43t-42.5 -28t-53.5 -10q-28 0 -52.5 10t-42.5 28t-28 43t-10 55t10 55t28 42.5t42.5 27.5t52.5 10zM519 705l-417 -705h-47l417 705h47zM73 577q0 -45 27 -74.5t71 -29.5t71 29.5t27 74.5t-27 74t-71 29t-71 -29
t-27 -74zM404 263q58 0 95.5 -38t37.5 -98t-37.5 -97.5t-95.5 -37.5t-96 37.5t-38 97.5q0 30 10 55t28 43t42.5 28t53.5 10zM715 263q58 0 95.5 -38t37.5 -98t-37.5 -97.5t-95.5 -37.5t-96 37.5t-38 97.5q0 30 10 55t28 43t42.5 28t53.5 10zM306 127q0 -45 27 -74t71 -29
t71 29t27 74q0 46 -27 75t-71 29t-71 -29t-27 -75zM617 127q0 -45 27 -74t71 -29t71 29t27 74q0 46 -27 75t-71 29t-71 -29t-27 -75z" />
    <glyph glyph-name="guilsinglleft" unicode="&#x2039;" horiz-adv-x="247" 
d="M148 120l-103 175l103 175h49l-105 -175l105 -175h-49z" />
    <glyph glyph-name="guilsinglright" unicode="&#x203a;" horiz-adv-x="247" 
d="M156 295l-106 175h50l102 -175l-102 -175h-50z" />
    <glyph glyph-name="fraction" unicode="&#x2044;" horiz-adv-x="251" 
d="M356 705l-417 -705h-47l416 705h48z" />
    <glyph glyph-name="uni20A8" unicode="&#x20a8;" horiz-adv-x="1020" 
d="M508 501q0 -91 -51 -142t-150 -58l207 -301h-52l-204 300h-132v-300h-45v705h197q61 0 104.5 -15t71.5 -42t41 -64.5t13 -82.5zM126 337h149q52 0 87.5 12t58 33.5t32.5 51.5t10 66q0 38 -10 68t-32.5 51.5t-58 33t-87.5 11.5h-149v-327zM628 404q0 -41 25 -62.5
t62.5 -34t81 -21t81 -24t62.5 -44t25 -80.5q0 -31 -12 -58t-33.5 -46t-52.5 -30t-69 -11q-91 0 -149 45.5t-68 124.5h45q3 -27 15 -51.5t33.5 -42.5t52.5 -29t71 -11q61 0 92.5 31.5t31.5 78.5q0 43 -25 65.5t-62 35.5t-81 21.5t-81 23.5t-62 42.5t-25 77.5q0 66 47 105.5
t127 39.5q88 0 139 -46t62 -124h-45q-3 27 -14 51t-30.5 42.5t-47.5 29.5t-65 11q-63 0 -97 -30.5t-34 -79.5z" />
    <glyph glyph-name="Euro" unicode="&#x20ac;" horiz-adv-x="831" 
d="M451 35q55 0 99.5 13.5t79.5 37.5t59.5 57t38.5 72h47q-34 -100 -115 -161t-209 -61q-61 0 -113.5 18.5t-94 52.5t-70 82t-42.5 106h-112v28h107q-6 35 -6 72q0 29 3 56h-104v28h109q12 62 40.5 113t70.5 87t95.5 56t116.5 20q128 0 209 -61t115 -162h-47
q-14 39 -38.5 72t-59.5 57.5t-79.5 38t-99.5 13.5q-50 0 -95 -16t-81.5 -46t-62 -73.5t-37.5 -98.5h282v-28h-286q-2 -14 -3 -28t-1 -28q0 -37 6 -72h284v-28h-278q13 -51 39 -91.5t61.5 -68.5t79.5 -42.5t92 -14.5z" />
    <glyph glyph-name="uni20B9" unicode="&#x20b9;" horiz-adv-x="662" 
d="M447 537v-15h154v-31h-156q-4 -53 -20.5 -88t-50.5 -55.5t-88.5 -28.5t-134.5 -8v-116q0 -81 36.5 -125t112.5 -44q71 0 106 41.5t35 119.5h44q-1 -97 -49.5 -147t-134.5 -50q-98 0 -145 55t-47 150v149q88 0 143.5 6t88 22t46.5 44.5t17 74.5h-343v31h344v16v133h-344
v34h540v-34h-154v-134z" />
    <glyph glyph-name="uni20BA" unicode="&#x20ba;" horiz-adv-x="775" 
d="M717 394q0 -201 -84.5 -309t-269.5 -108q-59 0 -122 15v262l-183 -50v34l183 50v133l-183 -51v33l183 51v251h46v-238l206 58v-34l-206 -57v-134l206 56v-34l-206 -56v-239q40 -8 76 -8q158 0 233.5 95t75.5 280h45z" />
    <glyph glyph-name="uni20BD" unicode="&#x20bd;" horiz-adv-x="603" 
d="M186 310v-125h254v-37h-254v-148h-45v148h-83v37h83v125h-83v40h83v355h194q61 0 104.5 -14t71.5 -40t41.5 -62.5t13.5 -81.5q0 -98 -59 -147.5t-172 -49.5h-149zM186 350h147q51 0 87 11t58 31.5t32 49.5t10 65q0 74 -42 116.5t-145 42.5h-147v-316z" />
    <glyph glyph-name="uni2113" unicode="&#x2113;" horiz-adv-x="207" 
d="M126 740v-740h-45v740h45z" />
    <glyph glyph-name="trademark" unicode="&#x2122;" horiz-adv-x="721" 
d="M30 705h242v-34h-102v-318h-36v318h-104v34zM683 705v-352h-36v287l-130 -287h-30l-130 287v-287h-35v352h44l136 -307l139 307h42z" />
    <glyph glyph-name="uni2126" unicode="&#x2126;" horiz-adv-x="794" 
d="M746 356q0 -56 -14 -107t-40 -93t-64.5 -73t-87.5 -46h188v-37h-277v41q55 8 100.5 33t78.5 65t51.5 94t18.5 119q0 72 -23.5 131t-64.5 100.5t-96.5 64.5t-118.5 23q-65 0 -121 -23.5t-96.5 -66t-63.5 -101t-23 -128.5q0 -65 19 -119t52 -94t78.5 -65t99.5 -33v-41h-277
v37h188q-49 15 -87 46t-64.5 73t-40 93t-13.5 107q0 80 27.5 146t74.5 112.5t110.5 72t136.5 25.5q72 0 136 -25.5t111 -72t74.5 -112.5t27.5 -146z" />
    <glyph glyph-name="estimated" unicode="&#x212e;" horiz-adv-x="768" 
d="M393 -7q-73 0 -135 22t-107.5 64.5t-71 105t-25.5 143.5q0 76 21.5 142.5t63.5 116t103.5 78t141.5 28.5t141.5 -27t103.5 -71.5t64 -102.5t22 -120v-60h-558v-161q42 -60 96.5 -90t139.5 -30q39 0 73 9.5t65.5 27.5t62 43.5t63.5 57.5l30 -31q-62 -66 -134.5 -105.5
t-159.5 -39.5zM599 544q-34 52 -88.5 81t-126.5 29q-70 0 -129.5 -29t-97.5 -94v-169h442v182z" />
    <glyph glyph-name="partialdiff" unicode="&#x2202;" horiz-adv-x="544" 
d="M299 553q29 0 57 -8t50.5 -28.5t37.5 -56t18 -90.5q2 72 -5.5 134t-28.5 107.5t-58 71.5t-95 26q-20 0 -40 -3.5t-40 -8.5v31q24 7 45.5 9.5t44.5 2.5q51 0 91 -18t68.5 -57t43.5 -100.5t15 -147.5q0 -98 -20 -177.5t-56.5 -135t-88.5 -85.5t-115 -30q-37 0 -70 13
t-58 40t-39.5 68t-14.5 97q0 65 16.5 127.5t49 111t81 78t111.5 29.5zM302 514q-48 0 -88 -23.5t-68 -65t-43.5 -97t-15.5 -120.5q0 -47 11 -80.5t30 -55.5t44 -32t53 -10q52 0 92.5 24.5t69 66.5t43.5 96.5t15 114.5q0 97 -38 139.5t-105 42.5z" />
    <glyph glyph-name="uni2206" unicode="&#x2206;" horiz-adv-x="649" 
d="M344 687l285 -650v-37h-609v37l285 650h39zM65 37h519l-261 598z" />
    <glyph glyph-name="product" unicode="&#x220f;" horiz-adv-x="734" 
d="M676 705v-37h-85v-668h-45v668h-358v-668h-46v668h-84v37h618z" />
    <glyph glyph-name="summation" unicode="&#x2211;" horiz-adv-x="411" 
d="M415 650h-337l273 -325v-38l-273 -329h337v-37h-375v50l271 333l-271 333v50h375v-37z" />
    <glyph glyph-name="minus" unicode="&#x2212;" horiz-adv-x="452" 
d="M414 395v-39h-376v39h376z" />
    <glyph glyph-name="radical" unicode="&#x221a;" horiz-adv-x="705" 
d="M683 848l-467 -893h-18l-111 193l-56 -31l-16 27l95 53l104 -184l436 835h33z" />
    <glyph glyph-name="infinity" unicode="&#x221e;" horiz-adv-x="610" 
d="M483 483q63 -1 100 -36t37 -99q0 -65 -40 -100t-100 -35q-30 0 -54 9t-44 24t-36.5 34.5t-31.5 40.5q-11 -20 -26.5 -39.5t-35 -35t-44 -24.5t-53.5 -9q-63 0 -100.5 35t-37.5 99q0 65 40.5 100.5t100.5 35.5q30 0 53.5 -9.5t43 -25.5t36 -36.5t31.5 -42.5q11 21 26 41.5
t35 36.5t45 26t55 10zM157 248q44 0 77.5 27.5t59.5 72.5q-14 20 -28 38t-30 32t-34.5 22.5t-41.5 8.5q-50 0 -77 -28.5t-27 -73.5t25.5 -72t75.5 -27zM477 246q50 0 77.5 28.5t27.5 73.5t-25.5 72t-75.5 27q-45 0 -79.5 -28.5t-60.5 -76.5q27 -38 58.5 -67t77.5 -29z" />
    <glyph glyph-name="integral" unicode="&#x222b;" horiz-adv-x="244" 
d="M153 797q7 54 34 80.5t79 26.5h23l-4 -40h-22q-26 0 -43 -13.5t-22 -53.5l-95 -839q-6 -57 -28.5 -86.5t-80.5 -29.5h-27l4 40h27q33 0 44.5 15t16.5 61z" />
    <glyph glyph-name="approxequal" unicode="&#x2248;" horiz-adv-x="449" 
d="M145 541q26 0 47 -10.5t39.5 -23t37 -23t40.5 -10.5q26 0 43 19.5t22 47.5h38q-9 -52 -36 -81t-71 -29q-26 0 -46.5 10.5t-39.5 23t-37.5 23t-40.5 10.5q-26 0 -43 -19.5t-22 -47.5h-38q9 52 36 81t71 29zM145 353q26 0 47 -10.5t39.5 -23t37 -23t40.5 -10.5
q26 0 43 19.5t22 47.5h38q-9 -52 -36 -81t-71 -29q-26 0 -46.5 10.5t-39.5 23t-37.5 23t-40.5 10.5q-26 0 -43 -19.5t-22 -47.5h-38q9 52 36 81t71 29z" />
    <glyph glyph-name="notequal" unicode="&#x2260;" horiz-adv-x="572" 
d="M360 450l-114 -149h288v-41h-319l-83 -109h-33l83 109h-144v41h175l113 149h-288v41h319l83 109h34l-83 -109h143v-41h-174z" />
    <glyph glyph-name="lessequal" unicode="&#x2264;" horiz-adv-x="405" 
d="M303 220l-265 194l265 196h59l-262 -196l262 -194h-59zM367 181v-37h-324v37h324z" />
    <glyph glyph-name="greaterequal" unicode="&#x2265;" horiz-adv-x="405" 
d="M43 220l262 194l-262 196h58l266 -196l-266 -194h-58zM38 181h324v-37h-324v37z" />
    <glyph glyph-name="lozenge" unicode="&#x25ca;" horiz-adv-x="548" 
d="M503 348l-230 -229l-228 229l230 230zM104 348l169 -170l171 170l-169 171z" />
    <glyph glyph-name="fi" unicode="&#xfb01;" horiz-adv-x="521" 
d="M149 543h297v-543h-45v502h-252v-502h-46v502h-82v41h82v33q0 84 43.5 128.5t146.5 42.5v-41q-42 0 -69.5 -8t-44 -24t-23.5 -41t-7 -60v-30zM425 740q17 0 27.5 -9.5t10.5 -26.5t-10.5 -27t-27.5 -10t-28 10t-11 27t11 26.5t28 9.5z" />
    <glyph glyph-name="fl" unicode="&#xfb02;" horiz-adv-x="533" 
d="M103 576q0 84 44 128.5t148 42.5v-41q-84 0 -115 -32t-31 -101v-30h146v-41h-146v-502h-46v502h-84v41h84v33zM452 740v-740h-45v740h45z" />
    <glyph glyph-name="uni03020300" horiz-adv-x="0" 
d="M-29 734l-12 -22l-142 102l17 26zM-164 698l-111 -69l-13 22l124 79l123 -79l-13 -23z" />
    <glyph glyph-name="uni03020301" horiz-adv-x="0" 
d="M-71 821l-152 -88l-13 20l150 98zM-161 697l-111 -69l-13 22l124 79l123 -79l-13 -23z" />
    <glyph glyph-name="uni03020303" horiz-adv-x="0" 
d="M-202 816q18 0 31 -7.5t24 -16.5t22.5 -16.5t28.5 -7.5q15 0 27 11.5t15 33.5h26q-3 -32 -22 -52t-47 -20q-19 0 -32.5 7.5t-25 16t-22.5 16t-26 7.5q-34 0 -40 -46h-26q5 35 22 54.5t45 19.5zM-164 698l-111 -69l-13 22l124 79l123 -79l-13 -23z" />
    <glyph glyph-name="uni03020309" horiz-adv-x="0" 
d="M-18 844q38 0 56 -18.5t18 -53.5q0 -26 -17.5 -46t-48.5 -49l-19 17q23 22 40 40t17 38q0 26 -11 35.5t-36 9.5q-26 0 -34 -13.5t-12 -35.5l-28 1q1 12 4.5 25t11.5 24t22 18.5t37 7.5zM-162 697l-111 -69l-13 22l124 79l123 -79l-13 -23z" />
    <glyph glyph-name="uni03060300" horiz-adv-x="0" 
d="M-137 762l-12 -22l-142 102l17 26zM-163 616q-32 0 -54.5 9.5t-37.5 25t-22 35.5t-7 41v5h28q0 -41 24 -62.5t69 -21.5t69.5 21.5t24.5 62.5h28v-5q0 -21 -7.5 -41t-22.5 -35.5t-38 -25t-54 -9.5z" />
    <glyph glyph-name="uni03060301" horiz-adv-x="0" 
d="M-18 842l-152 -88l-13 20l150 98zM-162 616q-32 0 -54.5 9.5t-37.5 25t-22 35.5t-7 41v5h28q0 -41 24 -62.5t69 -21.5t69.5 21.5t24.5 62.5h28v-5q0 -21 -7.5 -41t-22.5 -35.5t-38 -25t-54 -9.5z" />
    <glyph glyph-name="uni03060303" horiz-adv-x="0" 
d="M-214 842q19 0 32 -7.5t24 -16.5t23.5 -16.5t29.5 -7.5q14 0 26.5 11.5t15.5 33.5h27q-3 -32 -22.5 -52.5t-47.5 -20.5q-20 0 -34 7.5t-25.5 16.5t-23 16.5t-26.5 7.5q-35 0 -41 -47h-26q5 36 22 55.5t46 19.5zM-162 616q-32 0 -54.5 9.5t-37.5 25t-22 35.5t-7 41v5h28
q0 -41 24 -62.5t69 -21.5t69.5 21.5t24.5 62.5h28v-5q0 -21 -7.5 -41t-22.5 -35.5t-38 -25t-54 -9.5z" />
    <glyph glyph-name="uni03060309" horiz-adv-x="0" 
d="M-171 897q38 0 56 -18.5t18 -53.5q0 -26 -17.5 -46t-48.5 -49l-19 17q23 22 40 40t17 38q0 26 -11 35.5t-36 9.5q-26 0 -34 -13.5t-12 -35.5l-28 1q1 12 4.5 25t11.5 24t22 18.5t37 7.5zM-163 616q-32 0 -54.5 9.5t-37.5 25t-22 35.5t-7 41v5h28q0 -41 24 -62.5t69 -21.5
t69.5 21.5t24.5 62.5h28v-5q0 -21 -7.5 -41t-22.5 -35.5t-38 -25t-54 -9.5z" />
  </font>
</defs>
</svg>
